SplineFontDB: 2.0
FontName: Waree-BoldOblique
FullName: Waree Bold Oblique
FamilyName: Waree
Weight: Bold
Copyright: Copyright (c) 2003 by Bitstream, Inc. All Rights Reserved.\n\nModified under GNU General Public License by TLWG.
Version: 0.11.0: 2007-10-04
ItalicAngle: -10
UnderlinePosition: -170
UnderlineWidth: 10
Ascent: 1638
Descent: 410
NeedsXUIDChange: 1
FSType: 0
OS2Version: 0
OS2_WeightWidthSlopeOnly: 0
OS2_UseTypoMetrics: 0
CreationTime: 1153662462
ModificationTime: 1193907952
PfmFamily: 33
TTFWeight: 700
TTFWidth: 5
LineGap: 0
VLineGap: 0
Panose: 2 11 6 4 2 2 2 2 2 4
OS2TypoAscent: 0
OS2TypoAOffset: 1
OS2TypoDescent: 0
OS2TypoDOffset: 1
OS2TypoLinegap: 0
OS2WinAscent: 0
OS2WinAOffset: 1
OS2WinDescent: 0
OS2WinDOffset: 1
HheadAscent: 0
HheadAOffset: 1
HheadDescent: 0
HheadDOffset: 1
OS2SubXSize: -3428
OS2SubYSize: 26328
OS2SubXOff: 0
OS2SubYOff: 0
OS2SupXSize: 26172
OS2SupYSize: 3
OS2SupXOff: -12668
OS2SupYOff: -12668
OS2StrikeYSize: 21536
OS2StrikeYPos: 90
OS2Vendor: 'PfEd'
Lookup: 6 0 0 "'ccmp' Glyph Composition/Decomposition in Thai lookup 0"  {"'ccmp' Glyph Composition/Decomposition in Thai lookup 0"  } ['ccmp' ('thai' <'KUY ' 'PAL ' 'THA ' 'dflt' > ) ]
Lookup: 6 0 0 "'ccmp' Glyph Composition/Decomposition in Thai lookup 1"  {"'ccmp' Glyph Composition/Decomposition in Thai lookup 1"  } ['ccmp' ('thai' <'KUY ' 'PAL ' 'THA ' 'dflt' > ) ]
Lookup: 4 0 1 "'liga' Standard Ligatures in Latin lookup 2"  {"'liga' Standard Ligatures in Latin lookup 2"  } ['liga' ('latn' <'dflt' > ) ]
Lookup: 4 0 0 "'frac' Diagonal Fractions in Thai lookup 3"  {"'frac' Diagonal Fractions in Thai lookup 3"  } ['frac' ('thai' <'KUY ' 'PAL ' 'THA ' 'dflt' > ) ]
Lookup: 5 0 0 "Required Feature in Thai lookup 4"  {"Required Feature in Thai lookup 4"  } [' RQD' ('thai' <'PAL ' > ) ]
Lookup: 1 0 0 "Single Substitution lookup 5"  {"Single Substitution lookup 5"  } []
Lookup: 2 0 0 "Multiple Substitution lookup 6"  {"Multiple Substitution lookup 6"  } []

StartChar: .notdef
Encoding: 65536 -1 0
Width: 1229
Flags: W
HStem: -362 114<173 968> 1329 115<451 1246>
Fore
38 -362 m 1
 357 1444 l 1
 1381 1444 l 1
 1062 -362 l 1
 38 -362 l 1
173 -248 m 1
 968 -248 l 1
 1246 1329 l 1
 451 1329 l 1
 173 -248 l 1
EndSplineSet
EndChar
StartChar: uni0E4D.high
Encoding: 63262 63262 2
Width: 0
VWidth: 2348
Flags: HW
HStem: 2036 114<56.409 187.9> 2294 114<67.4899 198.245>
VStem: -61 115<2152.69 2281.97> 200 116<2161.91 2291.45>
AnchorPoint: "AboveMark" 92 1999 mark 0
Fore
-61 2189 m 0
 -61 2327 70 2408 160 2408 c 0
 255 2408 316 2342 316 2256 c 0
 316 2137 209 2036 95 2036 c 0
 1 2036 -61 2102 -61 2189 c 0
114 2150 m 0
 161 2150 200 2192 200 2235 c 0
 200 2270 174 2294 139 2294 c 0
 96 2294 54 2255 54 2208 c 0
 54 2174 80 2150 114 2150 c 0
EndSplineSet
EndChar
StartChar: exclam
Encoding: 33 33 5
Width: 934
Flags: W
HStem: 0 356<350 647>
VStem: 287 623<0 1493>
Fore
550 1493 m 1
 910 1493 l 1
 809 920 l 1
 685 502 l 1
 427 502 l 1
 449 920 l 1
 550 1493 l 1
350 356 m 1
 710 356 l 1
 647 0 l 1
 287 0 l 1
 350 356 l 1
EndSplineSet
EndChar
StartChar: quotedbl
Encoding: 34 34 6
Width: 1067
Flags: W
VStem: 360 775<938 1493>
Fore
1135 1493 m 1
 1037 938 l 1
 800 938 l 1
 898 1493 l 1
 1135 1493 l 1
695 1493 m 1
 597 938 l 1
 360 938 l 1
 458 1493 l 1
 695 1493 l 1
EndSplineSet
EndChar
StartChar: numbersign
Encoding: 35 35 7
Width: 1716
Flags: W
HStem: 0 21G<322 553.564 809 1038.56> 383 215<244 486 795 973 1283 1530> 872 213<445 691 1006 1178 1491 1731> 1450 20G<938.481 1170 1426.43 1656>
Fore
1170 1470 m 1
 1006 1085 l 1
 1270 1085 l 1
 1435 1470 l 1
 1656 1470 l 1
 1491 1085 l 1
 1768 1085 l 1
 1731 872 l 1
 1401 872 l 1
 1283 598 l 1
 1567 598 l 1
 1530 383 l 1
 1194 383 l 1
 1030 0 l 1
 809 0 l 1
 973 383 l 1
 709 383 l 1
 545 0 l 1
 322 0 l 1
 486 383 l 1
 207 383 l 1
 244 598 l 1
 572 598 l 1
 691 872 l 1
 408 872 l 1
 445 1085 l 1
 783 1085 l 1
 947 1470 l 1
 1170 1470 l 1
1178 872 m 1
 914 872 l 1
 795 598 l 1
 1059 598 l 1
 1178 872 l 1
EndSplineSet
EndChar
StartChar: dollar
Encoding: 36 36 8
Width: 1425
Flags: W
HStem: 0 228<413.613 632>
VStem: 317 329<796 1041.16> 1036 329<284.004 563>
Fore
1029 1329 m 1
 1168 1318 1296 1294 1418 1260 c 1
 1373 1006 l 1
 1276 1050 1144 1092 989 1100 c 1
 938 813 l 1
 969 807 l 2
 1303 753 1365 636 1365 490 c 0
 1365 295 1274 29 795 2 c 1
 742 -301 l 1
 580 -301 l 1
 632 0 l 1
 459 7 311 40 178 92 c 1
 224 354 l 1
 347 285 494 234 673 228 c 1
 728 539 l 1
 696 545 l 2
 357 607 317 733 317 859 c 0
 317 1046 437 1308 866 1325 c 1
 907 1556 l 1
 1069 1556 l 1
 1029 1329 l 1
826 1097 m 1
 727 1091 646 1036 646 945 c 0
 646 901 667 849 780 836 c 1
 826 1097 l 1
836 232 m 1
 1007 234 1036 332 1036 398 c 0
 1036 443 1022 495 885 510 c 1
 836 232 l 1
EndSplineSet
EndChar
StartChar: percent
Encoding: 37 37 9
Width: 2052
Flags: W
HStem: -29 170<1522.56 1713.68> 616 168<1594.45 1784.49> 707 167<530.325 722.948> 1352 168<600.025 791.415>
VStem: 253 250<899.42 1230.46> 819 251<997.503 1324.61> 1244 253<165.96 493.651> 1810 253<259.142 590.315>
Fore
1810 466 m 0xdf
 1810 557 1775 616 1696 616 c 256
 1536 616 1497 385 1497 292 c 0
 1497 200 1532 141 1612 141 c 256
 1771 141 1810 372 1810 466 c 0xdf
1244 277 m 0
 1244 521 1395 784 1725 784 c 256
 1995 784 2063 612 2063 476 c 0
 2063 245 1918 -29 1582 -29 c 256
 1312 -29 1244 146 1244 277 c 0
665 -29 m 1
 444 -29 l 1
 1650 1520 l 1
 1872 1520 l 1
 665 -29 l 1
253 1017 m 0
 253 1237 389 1520 734 1520 c 0
 942 1520 1070 1411 1070 1212 c 0
 1070 993 935 707 590 707 c 256xbf
 327 707 253 872 253 1017 c 0
819 1201 m 0
 819 1272 796 1352 703 1352 c 0
 543 1352 503 1117 503 1027 c 0
 503 935 538 874 619 874 c 0
 779 874 819 1111 819 1201 c 0
EndSplineSet
EndChar
StartChar: ampersand
Encoding: 38 38 10
Width: 1786
Flags: W
HStem: -29 258<658.377 980.415> 1278 242<945.786 1310.45>
VStem: 198 356<323.785 594.115>
Fore
1089 1278 m 0
 944 1278 905 1199 905 1147 c 0
 905 1084 959 1011 974 991 c 2
 1303 541 l 1
 1391 635 1445 747 1479 895 c 1
 1790 895 l 1
 1740 702 1650 490 1464 322 c 1
 1700 0 l 1
 1276 0 l 1
 1197 109 l 1
 1069 32 907 -29 706 -29 c 0
 266 -29 198 268 198 342 c 0
 198 487 203 714 594 944 c 1
 569 986 546 1040 546 1104 c 0
 546 1323 745 1520 1079 1520 c 0
 1233 1520 1371 1488 1464 1462 c 1
 1415 1184 l 1
 1329 1232 1219 1278 1089 1278 c 0
554 456 m 0
 554 345 639 229 798 229 c 0
 902 229 984 267 1046 311 c 1
 731 743 l 1
 577 644 554 521 554 456 c 0
EndSplineSet
EndChar
StartChar: quotesingle
Encoding: 39 39 11
Width: 627
Flags: W
VStem: 360 335<938 1493>
Fore
695 1493 m 1
 597 938 l 1
 360 938 l 1
 458 1493 l 1
 695 1493 l 1
EndSplineSet
EndChar
StartChar: parenleft
Encoding: 40 40 12
Width: 936
Flags: W
VStem: 268 337<59.5172 738.851>
Fore
605 361 m 0
 605 109 667 -114 724 -270 c 1
 427 -270 l 1
 287 46 268 269 268 414 c 0
 268 870 521 1268 749 1554 c 1
 1046 1554 l 1
 622 963 605 549 605 361 c 0
EndSplineSet
EndChar
StartChar: parenright
Encoding: 41 41 13
Width: 936
Flags: W
VStem: 557 337<551.125 1223.37>
Fore
894 877 m 0
 894 418 655 34 413 -270 c 1
 116 -270 l 1
 337 39 557 443 557 919 c 0
 557 1110 522 1322 438 1554 c 1
 735 1554 l 1
 807 1393 894 1152 894 877 c 0
EndSplineSet
EndChar
StartChar: asterisk
Encoding: 42 42 14
Width: 1071
Flags: W
Fore
1245 1217 m 1
 884 1044 l 1
 1183 870 l 1
 1083 729 l 1
 782 913 l 1
 721 569 l 1
 551 569 l 1
 612 913 l 1
 246 729 l 1
 194 870 l 1
 559 1044 l 1
 256 1217 l 1
 356 1358 l 1
 658 1176 l 1
 719 1520 l 1
 889 1520 l 1
 828 1176 l 1
 1193 1358 l 1
 1245 1217 l 1
EndSplineSet
EndChar
StartChar: plus
Encoding: 43 43 15
Width: 1716
Flags: W
HStem: 0 21G<739 980.511> 524 236<351 831 1111 1591>
Fore
1203 1284 m 1
 1111 760 l 1
 1633 760 l 1
 1591 524 l 1
 1069 524 l 1
 977 0 l 1
 739 0 l 1
 831 524 l 1
 309 524 l 1
 351 760 l 1
 873 760 l 1
 965 1284 l 1
 1203 1284 l 1
EndSplineSet
EndChar
StartChar: comma
Encoding: 44 44 16
Width: 778
Flags: W
HStem: -291 678<271 277>
VStem: 58 579<-291 387>
Fore
277 387 m 1
 637 387 l 1
 583 82 l 1
 271 -291 l 1
 58 -291 l 1
 223 82 l 1
 277 387 l 1
EndSplineSet
EndChar
StartChar: hyphen
Encoding: 45 45 17
Width: 850
Flags: W
HStem: 444 291<241 817>
VStem: 189 680<444 735>
Fore
241 735 m 1
 869 735 l 1
 817 444 l 1
 189 444 l 1
 241 735 l 1
EndSplineSet
EndChar
StartChar: period
Encoding: 46 46 18
Width: 778
Flags: W
HStem: 0 387<277 569>
VStem: 209 428<0 387>
Fore
277 387 m 1
 637 387 l 1
 569 0 l 1
 209 0 l 1
 277 387 l 1
EndSplineSet
EndChar
StartChar: slash
Encoding: 47 47 19
Width: 748
Flags: W
Fore
789 1493 m 1
 1011 1493 l 1
 187 -190 l 1
 -34 -190 l 1
 789 1493 l 1
EndSplineSet
EndChar
StartChar: zero
Encoding: 48 48 20
Width: 1425
Flags: W
HStem: -29 262<636.838 869.858> 1257 263<803.327 1053.27>
VStem: 210 375<285.71 701.732> 1104 377<800.659 1201.94>
Fore
585 469 m 0
 585 330 619 233 754 233 c 0
 757 233 l 0
 936 233 1016 419 1074 748 c 0
 1094 860 1104 952 1104 1025 c 0
 1104 1161 1070 1257 935 1257 c 256
 753 1257 673 1079 615 748 c 0
 595 635 585 542 585 469 c 0
1481 982 m 0
 1481 648 1326 -29 708 -29 c 0
 511 -29 372 38 288 172 c 0
 223 278 210 418 210 592 c 0
 210 685 292 1520 981 1520 c 0
 1381 1520 1481 1238 1481 982 c 0
EndSplineSet
EndChar
StartChar: one
Encoding: 49 49 21
Width: 1425
Flags: W
HStem: 0 266<287 627 991 1284>
Fore
287 266 m 1
 627 266 l 1
 797 1231 l 1
 435 1159 l 1
 482 1421 l 1
 841 1493 l 1
 1207 1493 l 1
 991 266 l 1
 1331 266 l 1
 1284 0 l 1
 240 0 l 1
 287 266 l 1
EndSplineSet
EndChar
StartChar: two
Encoding: 50 50 22
Width: 1425
Flags: W
HStem: 0 283<640 1247> 1257 263<595.283 963.425>
Fore
940 1520 m 0
 1354 1520 1434 1307 1434 1165 c 0
 1434 910 1271 763 1008 563 c 2
 640 283 l 1
 1297 283 l 1
 1247 0 l 1
 162 0 l 1
 212 283 l 1
 842 764 l 2
 956 853 1035 949 1035 1072 c 0
 1035 1152 986 1257 814 1257 c 0
 641 1257 443 1150 361 1104 c 1
 418 1432 l 1
 567 1479 749 1520 940 1520 c 0
EndSplineSet
EndChar
StartChar: three
Encoding: 51 51 23
Width: 1425
Flags: W
HStem: -29 262<344.512 827.081> 645 248<550 885.971> 1257 263<534.632 983.446>
VStem: 1035 399<1019.83 1304>
Fore
1434 1211 m 0
 1434 1078 1371 871 1096 805 c 1
 1232 768 1345 682 1345 509 c 0
 1345 294 1214 -29 591 -29 c 0
 424 -29 275 -1 145 45 c 1
 197 342 l 1
 304 284 441 233 602 233 c 0
 893 233 958 378 958 475 c 0
 958 611 812 645 661 645 c 2
 507 645 l 1
 550 893 l 1
 712 893 l 2
 987 893 1035 1022 1035 1109 c 0
 1035 1222 923 1257 800 1257 c 0
 653 1257 515 1218 408 1174 c 1
 458 1456 l 1
 624 1501 778 1520 915 1520 c 0
 1299 1520 1434 1397 1434 1211 c 0
EndSplineSet
EndChar
StartChar: four
Encoding: 52 52 24
Width: 1425
Flags: W
HStem: 0 21G<754 1121.53> 272 279<429 802 1215 1379>
Fore
961 1176 m 1
 429 551 l 1
 851 551 l 1
 961 1176 l 1
953 1493 m 1
 1381 1493 l 1
 1215 551 l 1
 1428 551 l 1
 1379 272 l 1
 1166 272 l 1
 1118 0 l 1
 754 0 l 1
 802 272 l 1
 140 272 l 1
 198 602 l 1
 953 1493 l 1
EndSplineSet
EndChar
StartChar: five
Encoding: 53 53 25
Width: 1425
Flags: W
HStem: -29 262<411.634 821.941> 741 263<712.175 902.463> 1210 283<737 1387>
VStem: 988 391<387.336 660.892>
Fore
988 542 m 0
 988 621 941 741 727 741 c 0
 569 741 407 682 332 653 c 1
 480 1493 l 1
 1437 1493 l 1
 1387 1210 l 1
 737 1210 l 1
 697 979 l 1
 769 998 826 1004 882 1004 c 0
 1299 1004 1379 764 1379 603 c 0
 1379 340 1212 -29 652 -29 c 0
 459 -29 303 12 170 70 c 1
 224 373 l 1
 321 311 472 233 637 233 c 0
 643 233 l 0
 840 233 988 356 988 542 c 0
EndSplineSet
EndChar
StartChar: six
Encoding: 54 54 26
Width: 1425
Flags: W
HStem: -29 242<654.237 913.844> 737 248<810.107 1116.25> 1266 252<900.102 1326.59>
VStem: 236 378<254.453 590.81> 1037 375<372.925 695.774>
Fore
781 213 m 0
 996 213 1037 458 1037 563 c 0
 1037 677 985 737 869 737 c 0
 653 737 614 486 614 388 c 0
 614 277 661 213 781 213 c 0
1412 600 m 0
 1412 302 1185 -29 732 -29 c 0
 538 -29 399 36 316 168 c 0
 251 269 236 403 236 570 c 0
 236 760 375 1518 1093 1518 c 0
 1239 1518 1361 1494 1473 1454 c 1
 1425 1178 l 1
 1340 1222 1229 1266 1097 1266 c 0
 829 1266 704 1092 650 887 c 1
 793 980 917 985 986 985 c 0
 1236 985 1412 842 1412 600 c 0
EndSplineSet
EndChar
StartChar: seven
Encoding: 55 55 27
Width: 1425
Flags: W
HStem: 0 21G<305 692.649> 1210 283<400 1069>
Fore
400 1493 m 1
 1525 1493 l 1
 1487 1276 l 1
 680 0 l 1
 305 0 l 1
 1069 1210 l 1
 350 1210 l 1
 400 1493 l 1
EndSplineSet
EndChar
StartChar: eight
Encoding: 56 56 28
Width: 1425
Flags: W
HStem: -29 242<615.107 902.813> 668 241<749.185 966.732> 1278 242<799.375 1061.84>
VStem: 190 371<261.612 536.141> 351 360<941.871 1191.26> 1018 361<334.014 619.979>
Fore
1018 498 m 0xf4
 1018 613 950 668 831 668 c 0
 615 668 561 487 561 380 c 0
 561 266 634 213 751 213 c 0
 964 213 1018 394 1018 498 c 0xf4
708 -29 m 0
 317 -29 190 119 190 341 c 0xf4
 190 472 253 711 572 795 c 1
 406 848 351 952 351 1056 c 0xec
 351 1242 458 1520 981 1520 c 0
 1409 1520 1473 1334 1473 1210 c 0
 1473 1059 1399 872 1131 795 c 1
 1266 756 1379 673 1379 499 c 0
 1379 331 1291 -29 708 -29 c 0
711 1047 m 0xec
 711 998 729 909 873 909 c 0
 1053 909 1098 1056 1098 1141 c 0
 1098 1235 1035 1278 939 1278 c 0
 755 1278 711 1134 711 1047 c 0xec
EndSplineSet
EndChar
StartChar: nine
Encoding: 57 57 29
Width: 1425
Flags: W
HStem: -29 252<410.907 788.58> 502 250<689.416 927.404> 1276 242<772.966 1026.59>
VStem: 271 377<792.593 1113.54> 1070 380<898.132 1232.38>
Fore
955 1518 m 0
 1351 1518 1450 1225 1450 1003 c 0
 1450 452 1143 -29 589 -29 c 0
 485 -29 353 -18 211 33 c 1
 259 309 l 1
 343 266 454 223 586 223 c 0
 843 223 976 383 1034 602 c 1
 949 547 843 502 705 502 c 0
 375 502 271 714 271 882 c 0
 271 1199 508 1518 955 1518 c 0
815 752 m 0
 1031 752 1070 1000 1070 1101 c 0
 1070 1241 989 1276 905 1276 c 256
 688 1276 648 1031 648 926 c 0
 648 832 682 752 815 752 c 0
EndSplineSet
EndChar
StartChar: colon
Encoding: 58 58 30
Width: 819
Flags: W
HStem: 0 387<297 590> 733 387<426 719>
VStem: 229 558<0 1120>
Fore
426 1120 m 1
 787 1120 l 1
 719 733 l 1
 358 733 l 1
 426 1120 l 1
297 387 m 1
 658 387 l 1
 590 0 l 1
 229 0 l 1
 297 387 l 1
EndSplineSet
EndChar
StartChar: semicolon
Encoding: 59 59 31
Width: 819
Flags: W
HStem: 733 387<426 719>
VStem: 78 709<-291 1120>
Fore
297 387 m 1
 658 387 l 1
 604 82 l 1
 291 -291 l 1
 78 -291 l 1
 243 82 l 1
 297 387 l 1
426 1120 m 1
 787 1120 l 1
 719 733 l 1
 358 733 l 1
 426 1120 l 1
EndSplineSet
EndChar
StartChar: less
Encoding: 60 60 32
Width: 1716
Flags: W
Fore
1671 973 m 1
 648 641 l 1
 1554 311 l 1
 1510 61 l 1
 309 524 l 1
 351 760 l 1
 1715 1223 l 1
 1671 973 l 1
EndSplineSet
EndChar
StartChar: equal
Encoding: 61 61 33
Width: 1716
Flags: W
HStem: 295 237<311 1551> 752 235<391 1632>
Fore
391 987 m 1
 1673 987 l 1
 1632 752 l 1
 350 752 l 1
 391 987 l 1
311 532 m 1
 1593 532 l 1
 1551 295 l 1
 269 295 l 1
 311 532 l 1
EndSplineSet
EndChar
StartChar: greater
Encoding: 62 62 34
Width: 1716
Flags: W
HStem: 1203 20G<429.48 484.836>
Fore
389 973 m 1
 433 1223 l 1
 1633 760 l 1
 1591 524 l 1
 228 61 l 1
 272 311 l 1
 1295 641 l 1
 389 973 l 1
EndSplineSet
EndChar
StartChar: question
Encoding: 63 63 35
Width: 1188
Flags: W
HStem: 0 356<411 709> 1257 263<620.064 861.238>
Fore
823 1520 m 0
 1205 1520 1262 1337 1262 1215 c 0
 1262 974 1092 845 1022 788 c 2
 948 731 l 2
 864 665 819 621 806 549 c 2
 798 504 l 1
 437 504 l 1
 446 553 l 2
 467 676 528 746 672 860 c 2
 746 918 l 2
 825 981 892 1052 892 1141 c 0
 892 1187 866 1257 734 1257 c 0
 583 1257 416 1169 339 1124 c 1
 395 1438 l 1
 611 1509 737 1520 823 1520 c 0
411 356 m 1
 772 356 l 1
 709 0 l 1
 348 0 l 1
 411 356 l 1
EndSplineSet
EndChar
StartChar: at
Encoding: 64 64 36
Width: 2048
Flags: W
HStem: -356 188<764.859 1254.02> 88 186<966.71 1174.75> 801 186<1044.23 1276.88> 1253 187<1013.12 1522.36>
VStem: 215 190<179.569 664.714> 686 232<318.858 655.433> 1840 191<533.601 960.194>
Fore
1165 801 m 0
 993 801 918 601 918 458 c 0
 918 377 949 274 1074 274 c 0
 1254 274 1323 485 1323 615 c 0
 1323 728 1267 801 1165 801 c 0
2031 791 m 0
 2031 525 1884 84 1295 84 c 2
 1256 84 l 1
 1283 238 l 1
 1231 152 1134 88 1005 88 c 0
 811 88 686 218 686 427 c 0
 686 700 870 987 1163 987 c 0
 1283 987 1365 930 1388 836 c 1
 1412 967 l 1
 1621 967 l 1
 1498 274 l 1
 1741 310 1840 562 1840 759 c 0
 1840 1055 1593 1253 1274 1253 c 0
 782 1253 405 842 405 406 c 0
 405 62 664 -168 999 -168 c 2
 1006 -168 l 2
 1149 -168 1346 -117 1504 6 c 1
 1582 -156 l 1
 1432 -258 1217 -356 975 -356 c 2
 972 -356 l 2
 544 -356 215 -67 215 367 c 0
 215 969 748 1440 1292 1440 c 0
 1780 1440 2031 1123 2031 791 c 0
EndSplineSet
EndChar
StartChar: A
Encoding: 65 65 37
Width: 1585
Flags: W
HStem: 0 21G<10 407.515 1184.62 1575> 272 277<685 1094>
Fore
1142 272 m 1
 540 272 l 1
 397 0 l 1
 10 0 l 1
 826 1493 l 1
 1285 1493 l 1
 1575 0 l 1
 1188 0 l 1
 1142 272 l 1
685 549 m 1
 1094 549 l 1
 995 1143 l 1
 685 549 l 1
EndSplineSet
EndChar
StartChar: B
Encoding: 66 66 38
Width: 1561
Flags: W
HStem: 0 262<619 1016.31> 653 262<734 1073.6> 1231 262<790 1137.32>
Fore
1164 1110 m 0
 1164 1199 1095 1231 1003 1231 c 2
 790 1231 l 1
 734 915 l 1
 947 915 l 2
 1130 915 1164 1042 1164 1110 c 0
1117 505 m 0
 1117 617 1031 653 914 653 c 2
 688 653 l 1
 619 262 l 1
 847 262 l 2
 1081 262 1117 424 1117 505 c 0
1558 1186 m 0
 1558 1063 1510 875 1298 799 c 1
 1456 751 1500 626 1500 517 c 0
 1500 387 1448 208 1290 106 c 0
 1180 35 1026 0 827 0 c 2
 188 0 l 1
 451 1493 l 1
 1029 1493 l 2
 1443 1493 1558 1370 1558 1186 c 0
EndSplineSet
EndChar
StartChar: C
Encoding: 67 67 39
Width: 1503
Flags: W
HStem: -29 279<786.387 1211.62> 1241 279<946.541 1399.34>
VStem: 217 402<419.278 864.533>
Fore
619 611 m 0
 619 456 692 250 986 250 c 0
 1176 250 1324 320 1441 391 c 1
 1386 82 l 1
 1212 -1 1050 -29 906 -29 c 0
 362 -29 217 306 217 571 c 0
 217 1022 521 1520 1179 1520 c 0
 1312 1520 1468 1496 1620 1409 c 1
 1566 1100 l 1
 1450 1190 1323 1241 1161 1241 c 0
 786 1241 619 906 619 611 c 0
EndSplineSet
EndChar
StartChar: D
Encoding: 68 68 40
Width: 1700
Flags: W
HStem: 0 291<624 1009.88> 1202 291<785 1161>
VStem: 1339 401<630.584 1043.31>
Fore
1339 862 m 0
 1339 998 1285 1202 923 1202 c 2
 785 1202 l 1
 624 291 l 1
 762 291 l 2
 1243 291 1339 663 1339 862 c 0
451 1493 m 1
 859 1493 l 2
 1228 1493 1457 1462 1612 1280 c 0
 1696 1182 1740 1062 1740 910 c 0
 1740 453 1442 141 1106 48 c 0
 989 16 818 0 594 0 c 2
 188 0 l 1
 451 1493 l 1
EndSplineSet
EndChar
StartChar: E
Encoding: 69 69 41
Width: 1399
Flags: W
HStem: 0 291<624 1249> 633 291<736 1300> 1202 291<785 1439>
Fore
451 1493 m 1
 1490 1493 l 1
 1439 1202 l 1
 785 1202 l 1
 736 924 l 1
 1351 924 l 1
 1300 633 l 1
 685 633 l 1
 624 291 l 1
 1300 291 l 1
 1249 0 l 1
 188 0 l 1
 451 1493 l 1
EndSplineSet
EndChar
StartChar: F
Encoding: 70 70 42
Width: 1399
Flags: W
HStem: 0 21G<188 576.539> 633 291<736 1300> 1202 291<785 1439>
Fore
451 1493 m 1
 1490 1493 l 1
 1439 1202 l 1
 785 1202 l 1
 736 924 l 1
 1351 924 l 1
 1300 633 l 1
 685 633 l 1
 573 0 l 1
 188 0 l 1
 451 1493 l 1
EndSplineSet
EndChar
StartChar: G
Encoding: 71 71 43
Width: 1681
Flags: W
HStem: -29 279<802.251 1211.63> 571 258<1076 1266> 1241 279<957.582 1468.06>
VStem: 217 402<416.441 862.103>
Fore
619 609 m 0
 619 444 696 250 1005 250 c 0
 1110 250 1176 267 1215 281 c 1
 1266 571 l 1
 1031 571 l 1
 1076 829 l 1
 1676 829 l 1
 1550 111 l 1
 1381 36 1164 -29 906 -29 c 0
 362 -29 217 306 217 571 c 0
 217 1011 507 1520 1200 1520 c 0
 1406 1520 1581 1479 1723 1409 c 1
 1669 1100 l 1
 1545.76 1177.15 1391.61 1241 1197 1241 c 0
 735 1241 619 846 619 609 c 0
EndSplineSet
EndChar
StartChar: H
Encoding: 72 72 44
Width: 1714
Flags: W
HStem: 0 21G<188 576.539 1141 1529.52> 633 291<736 1253>
Fore
451 1493 m 1
 836 1493 l 1
 736 924 l 1
 1304 924 l 1
 1404 1493 l 1
 1789 1493 l 1
 1526 0 l 1
 1141 0 l 1
 1253 633 l 1
 685 633 l 1
 573 0 l 1
 188 0 l 1
 451 1493 l 1
EndSplineSet
EndChar
StartChar: I
Encoding: 73 73 45
Width: 762
Flags: W
HStem: 0 21G<188 576.523>
VStem: 188 648<0 1493>
Fore
451 1493 m 1
 836 1493 l 1
 573 0 l 1
 188 0 l 1
 451 1493 l 1
EndSplineSet
EndChar
StartChar: J
Encoding: 74 74 46
Width: 762
Flags: W
HStem: -410 291<-136 72.9276>
VStem: -187 1023<-410 1493>
Fore
451 1493 m 1
 836 1493 l 1
 599 145 l 2
 534 -219 309 -410 -109 -410 c 2
 -187 -410 l 1
 -136 -119 l 1
 -76 -119 l 2
 98 -119 186 -12 214 145 c 2
 451 1493 l 1
EndSplineSet
EndChar
StartChar: K
Encoding: 75 75 47
Width: 1587
Flags: W
HStem: 0 21G<188 576.537 1150.33 1649>
Fore
451 1493 m 1
 836 1493 l 1
 740 948 l 1
 1391 1493 l 1
 1838 1493 l 1
 995 786 l 1
 1649 0 l 1
 1167 0 l 1
 677 588 l 1
 573 0 l 1
 188 0 l 1
 451 1493 l 1
EndSplineSet
EndChar
StartChar: L
Encoding: 76 76 48
Width: 1305
Flags: W
HStem: 0 291<624 1249>
Fore
451 1493 m 1
 836 1493 l 1
 624 291 l 1
 1300 291 l 1
 1249 0 l 1
 188 0 l 1
 451 1493 l 1
EndSplineSet
EndChar
StartChar: M
Encoding: 77 77 49
Width: 2038
Flags: W
HStem: 0 21G<188 556.535 1485 1852.52>
Fore
451 1493 m 1
 941 1493 l 1
 1140 694 l 1
 1623 1493 l 1
 2112 1493 l 1
 1849 0 l 1
 1485 0 l 1
 1678 1092 l 1
 1192 287 l 1
 948 287 l 1
 746 1092 l 1
 553 0 l 1
 188 0 l 1
 451 1493 l 1
EndSplineSet
EndChar
StartChar: N
Encoding: 78 78 50
Width: 1714
Flags: W
HStem: 0 21G<188 556.535 1088.93 1529.52>
Fore
451 1493 m 1
 881 1493 l 1
 1244 469 l 1
 1424 1493 l 1
 1789 1493 l 1
 1526 0 l 1
 1096 0 l 1
 734 1024 l 1
 553 0 l 1
 188 0 l 1
 451 1493 l 1
EndSplineSet
EndChar
StartChar: O
Encoding: 79 79 51
Width: 1741
Flags: W
HStem: -29 279<748.531 1095.64> 1241 279<907.262 1255.44>
VStem: 216 400<389.858 854.858> 1387 400<635.818 1100.24>
Fore
916 250 m 0
 1293 250 1387 700 1387 900 c 0
 1387 1115 1288 1241 1087 1241 c 0
 711 1241 616 791 616 591 c 0
 616 429 676 250 916 250 c 0
216 559 m 0
 216 997 484 1520 1138 1520 c 0
 1657 1520 1787 1196 1787 934 c 0
 1787 490 1517 -29 865 -29 c 0
 346 -29 216 297 216 559 c 0
EndSplineSet
EndChar
StartChar: P
Encoding: 80 80 52
Width: 1501
Flags: W
HStem: 0 21G<188 576.513> 518 279<714 1091.3> 1214 279<787 1149.49>
Fore
1604 1114 m 0
 1604 884 1469 518 928 518 c 2
 664 518 l 1
 573 0 l 1
 188 0 l 1
 451 1493 l 1
 1090 1493 l 2
 1530 1493 1604 1265 1604 1114 c 0
1202 1054 m 0
 1202 1167 1118 1214 1000 1214 c 2
 787 1214 l 1
 714 797 l 1
 928 797 l 2
 1147 797 1202 956 1202 1054 c 0
EndSplineSet
EndChar
StartChar: Q
Encoding: 81 81 53
Width: 1741
Flags: W
HStem: 1241 279<907.055 1252.69>
VStem: 215 401<385.183 852.929> 1387 400<636.898 1102.62>
Fore
1787 935 m 0
 1787 718 1706 239 1228 37 c 1
 1469 -299 l 1
 1102 -299 l 1
 906 -27 l 1
 876 -27 l 2
 349 -27 215 289 215 557 c 0
 215 996 484 1520 1138 1520 c 0
 1541 1520 1787 1323 1787 935 c 0
1387 900 m 0
 1387 1115 1288 1241 1087 1241 c 0
 710 1241 616 793 616 579 c 0
 616 421 676 250 916 250 c 0
 1293 250 1387 700 1387 900 c 0
EndSplineSet
EndChar
StartChar: R
Encoding: 82 82 54
Width: 1577
Flags: W
HStem: 0 21G<188 576.54 1119.69 1536> 565 266<720 926.735> 1214 279<787 1108.3>
VStem: 1147 399<961.105 1272.79>
Fore
1147 1078 m 0
 1147 1159 1108 1214 949 1214 c 2
 787 1214 l 1
 720 831 l 1
 882 831 l 2
 1020 831 1147 880 1147 1078 c 0
1546 1178 m 0
 1546 997 1466 782 1182 698 c 1
 1290 672 1351 582 1402 424 c 2
 1536 0 l 1
 1126 0 l 1
 1009 371 l 2
 967 505 918 565 782 565 c 2
 673 565 l 1
 573 0 l 1
 188 0 l 1
 451 1493 l 1
 1039 1493 l 2
 1425 1493 1546 1367 1546 1178 c 0
EndSplineSet
EndChar
StartChar: S
Encoding: 83 83 55
Width: 1475
Flags: W
HStem: -29 279<469.322 941.557> 1241 279<766.767 1259.17>
VStem: 325 360<863 1168> 1030 385<330.281 653>
Fore
325 967 m 0
 325 1150 430 1520 973 1520 c 0
 1160 1520 1335 1487 1482 1446 c 1
 1426 1130 l 1
 1321 1181 1161 1241 985 1241 c 0
 724 1241 685 1133 685 1061 c 0
 685 1003 719 965 867 934 c 2
 1025 901 l 2
 1291 846 1415 750 1415 556 c 0
 1415 389 1341 197 1194 92 c 0
 1083 11 927 -29 726 -29 c 0
 567 -29 379 -4 174 78 c 1
 231 403 l 1
 357 329 534 250 738 250 c 0
 980 250 1030 366 1030 443 c 0
 1030 519 978 554 831 588 c 2
 687 621 l 2
 476 668 325 759 325 967 c 0
EndSplineSet
EndChar
StartChar: T
Encoding: 84 84 56
Width: 1397
Flags: W
HStem: 0 21G<506 894.527> 1202 291<273 718 1103 1598>
Fore
273 1493 m 1
 1649 1493 l 1
 1598 1202 l 1
 1103 1202 l 1
 891 0 l 1
 506 0 l 1
 718 1202 l 1
 222 1202 l 1
 273 1493 l 1
EndSplineSet
EndChar
StartChar: U
Encoding: 85 85 57
Width: 1663
Flags: W
HStem: -29 283<729.37 1042.83>
Fore
826 -29 m 0
 418 -29 277 153 277 425 c 0
 277 478 282 536 293 598 c 2
 451 1493 l 1
 836 1493 l 1
 678 598 l 2
 669 547 665 502 665 463 c 0
 665 342 707 254 876 254 c 0
 1067 254 1154 363 1195 598 c 2
 1353 1493 l 1
 1738 1493 l 1
 1580 598 l 2
 1511 198 1282 -29 826 -29 c 0
EndSplineSet
EndChar
StartChar: V
Encoding: 86 86 58
Width: 1585
Flags: W
HStem: 0 21G<559.115 1032.93>
Fore
273 1493 m 1
 660 1493 l 1
 862 391 l 1
 1451 1493 l 1
 1838 1493 l 1
 1022 0 l 1
 563 0 l 1
 273 1493 l 1
EndSplineSet
EndChar
StartChar: W
Encoding: 87 87 59
Width: 2259
Flags: W
HStem: 0 21G<414.768 868.247 1397.75 1851.24>
VStem: 324 369<383.19 1470.26>
Fore
324 1493 m 1
 693 1493 l 1
 760 408 l 1
 1207 1493 l 1
 1578 1493 l 1
 1643 408 l 1
 2092 1493 l 1
 2458 1493 l 1
 1843 0 l 1
 1399 0 l 1
 1328 1135 l 1
 860 0 l 1
 416 0 l 1
 324 1493 l 1
EndSplineSet
EndChar
StartChar: X
Encoding: 88 88 60
Width: 1579
Flags: W
HStem: 0 21G<39 459.098 1126.84 1538>
Fore
1154 762 m 1
 1538 0 l 1
 1137 0 l 1
 878 510 l 1
 442 0 l 1
 39 0 l 1
 691 762 l 1
 322 1493 l 1
 724 1493 l 1
 966 1012 l 1
 1377 1493 l 1
 1781 1493 l 1
 1154 762 l 1
EndSplineSet
EndChar
StartChar: Y
Encoding: 89 89 61
Width: 1483
Flags: W
HStem: 0 21G<549 937.529>
Fore
243 1493 m 1
 664 1493 l 1
 910 961 l 1
 1344 1493 l 1
 1766 1493 l 1
 1045 629 l 1
 934 0 l 1
 549 0 l 1
 660 629 l 1
 243 1493 l 1
EndSplineSet
EndChar
StartChar: Z
Encoding: 90 90 62
Width: 1485
Flags: W
HStem: 0 291<620 1393> 1202 291<378 1105>
Fore
378 1493 m 1
 1633 1493 l 1
 1592 1260 l 1
 620 291 l 1
 1444 291 l 1
 1393 0 l 1
 92 0 l 1
 133 233 l 1
 1105 1202 l 1
 327 1202 l 1
 378 1493 l 1
EndSplineSet
EndChar
StartChar: bracketleft
Encoding: 91 91 63
Width: 936
Flags: W
HStem: -270 225<508 749> 1331 225<751 1032>
VStem: 128 943<-270 1556>
Fore
450 1556 m 1
 1071 1556 l 1
 1032 1331 l 1
 751 1331 l 1
 508 -45 l 1
 789 -45 l 1
 749 -270 l 1
 128 -270 l 1
 450 1556 l 1
EndSplineSet
EndChar
StartChar: backslash
Encoding: 92 92 64
Width: 748
Flags: W
VStem: 263 451<-190 1493> 492 222<-190 1478.71>
Fore
492 -190 m 1x40
 263 1493 l 1
 484 1493 l 1
 714 -190 l 1x80
 492 -190 l 1x40
EndSplineSet
EndChar
StartChar: bracketright
Encoding: 93 93 65
Width: 936
Flags: W
HStem: -270 225<131 412> 1331 225<413 655>
VStem: 91 943<-270 1556>
Fore
712 -270 m 1
 91 -270 l 1
 131 -45 l 1
 412 -45 l 1
 655 1331 l 1
 374 1331 l 1
 413 1556 l 1
 1034 1556 l 1
 712 -270 l 1
EndSplineSet
EndChar
StartChar: asciicircum
Encoding: 94 94 66
Width: 1716
Flags: W
HStem: 936 557<1244 1674>
Fore
1244 1493 m 1
 1674 936 l 1
 1433 936 l 1
 1076 1237 l 1
 614 936 l 1
 372 936 l 1
 998 1493 l 1
 1244 1493 l 1
EndSplineSet
EndChar
StartChar: underscore
Encoding: 95 95 67
Width: 1024
Flags: W
HStem: -483 190<-52 939>
Fore
972 -293 m 1
 939 -483 l 1
 -85 -483 l 1
 -52 -293 l 1
 972 -293 l 1
EndSplineSet
EndChar
StartChar: grave
Encoding: 96 96 68
Width: 1024
Flags: W
HStem: 1262 376<666 882>
VStem: 383 499<1262 1638>
Fore
666 1638 m 1
 882 1262 l 1
 686 1262 l 1
 383 1638 l 1
 666 1638 l 1
EndSplineSet
EndChar
StartChar: a
Encoding: 97 97 69
Width: 1382
Flags: W
HStem: 0 21G<860 1224.54> 504 213<579.933 949> 909 238<575.001 944.317>
Fore
508 324 m 0
 508 278 533 209 658 209 c 0
 792 209 915 314 942 463 c 2
 949 504 l 1
 763 504 l 2
 548 504 508 396 508 324 c 0
851 1147 m 0
 1245 1147 1348 1000 1348 780 c 0
 1348 737 1343 690 1334 639 c 2
 1221 0 l 1
 860 0 l 1
 889 166 l 1
 794 59 677 -29 474 -29 c 0
 216 -29 141 145 141 250 c 0
 141 475 264 583 334 625 c 0
 433 685 577 717 767 717 c 2
 986 717 l 1
 992 753 994 759 994 777 c 0
 994 856 934 909 744 909 c 0
 579 909 446 874 330 817 c 1
 378 1090 l 1
 562 1133 721 1147 851 1147 c 0
EndSplineSet
EndChar
StartChar: b
Encoding: 98 98 70
Width: 1466
Flags: W
HStem: -29 260<701.562 948.614> 887 260<898.903 1223.5>
VStem: 1114 373<441.541 823.486>
Fore
618 449 m 0
 618 311.467 681.309 231 809 231 c 256
 1053 231 1114 530 1114 669 c 0
 1114 807 1052 887 924 887 c 0
 679 887 618 590 618 449 c 0
896 -29 m 0
 723 -29 625 46 559 162 c 1
 530 0 l 1
 172 0 l 1
 446 1556 l 1
 804 1556 l 1
 699 956 l 1
 815 1081 941 1147 1103 1147 c 0
 1344 1147 1487 965 1487 705 c 0
 1487 351 1252 -29 896 -29 c 0
EndSplineSet
EndChar
StartChar: c
Encoding: 99 99 71
Width: 1214
Flags: W
HStem: -29 256<657.962 1026.98> 891 256<745.946 1132.4>
VStem: 175 377<324.207 674.18>
Fore
802 227 m 0
 903 227 1013 244 1134 326 c 1
 1083 33 l 1
 984 -1 861 -29 728 -29 c 0
 265 -29 175 244 175 426 c 0
 175 774 403 1147 930 1147 c 0
 1094 1147 1205 1110 1268 1085 c 1
 1217 793 l 1
 1147 848 1057 891 935 891 c 0
 628 891 552 622 552 470 c 0
 552 276 706 227 802 227 c 0
EndSplineSet
EndChar
StartChar: d
Encoding: 100 100 72
Width: 1466
Flags: W
HStem: -29 260<440.5 766.388> 887 260<714.936 959.184>
VStem: 177 374<295.216 675.617>
Fore
767 1147 m 0
 940 1147 1037 1070 1103 956 c 1
 1208 1556 l 1
 1568 1556 l 1
 1294 0 l 1
 934 0 l 1
 963 162 l 1
 845 35 721 -29 560 -29 c 0
 321 -29 177 145 177 419 c 0
 177 745 397 1147 767 1147 c 0
551 445 m 0
 551 343 588 231 739 231 c 0
 983 231 1044 530 1044 669 c 0
 1044 807 982 887 854 887 c 0
 597 887 551 558 551 445 c 0
EndSplineSet
EndChar
StartChar: e
Encoding: 101 101 73
Width: 1389
Flags: W
HStem: -29 238<622.032 1068.29> 461 221<577 1042> 909 238<707.87 994.582>
Fore
911 1147 m 0
 1222 1147 1401 970 1401 695 c 0
 1401 653 1397 609 1389 563 c 2
 1371 461 l 1
 534 461 l 1
 533 451 533 441 533 431 c 0
 533 274 636 209 799 209 c 0
 802 209 l 0
 1001 209 1191 291 1298 344 c 1
 1249 68 l 1
 1102 16 921 -29 724 -29 c 0
 260 -29 174 241 174 422 c 0
 174 755 387 1147 911 1147 c 0
1047 734 m 0
 1047 836 982 909 867 909 c 0
 711 909 619 810 577 682 c 1
 1042 682 l 1
 1045 700 1047 718 1047 734 c 0
EndSplineSet
EndChar
StartChar: f
Encoding: 102 102 74
Width: 891
Flags: W
HStem: 0 21G<217 578.518> 864 256<236 369 772 1033> 1321 235<820.225 1142>
VStem: 191 992<864 1556>
Fore
1183 1556 m 1
 1142 1321 l 1
 944 1321 l 2
 837 1321 801 1282 786 1198 c 2
 772 1120 l 1
 1078 1120 l 1
 1033 864 l 1
 727 864 l 1
 575 0 l 1
 217 0 l 1
 369 864 l 1
 191 864 l 1
 236 1120 l 1
 414 1120 l 1
 428 1198 l 2
 472 1442 624 1556 909 1556 c 2
 1183 1556 l 1
EndSplineSet
EndChar
StartChar: g
Encoding: 103 103 75
Width: 1466
Flags: W
HStem: -442 237<333.125 779.238> 0 21G<437 645.5> 887 258<715.632 960.681>
VStem: 180 374<317.59 693.711>
Fore
212 -98 m 1
 307.515 -159.481 419.6 -205 558 -205 c 0
 798 -205 916 -100 954 113 c 2
 968 190 l 1
 851 65 726 0 565 0 c 0
 309 0 180 201 180 434 c 0
 180 785 419 1145 767 1145 c 0
 941 1145 1037 1069 1102 954 c 1
 1131 1120 l 1
 1491 1120 l 1
 1314 113 l 2
 1219 -423 711 -442 551 -442 c 0
 396 -442 273 -416 163 -377 c 1
 212 -98 l 1
1044 671 m 0
 1044 806.672 980.429 887 852 887 c 0
 614 887 554 602 554 469 c 0
 554 335 616 260 744 260 c 0
 745 260 745 260 746 260 c 0
 985 260 1044 542 1044 671 c 0
EndSplineSet
EndChar
StartChar: h
Encoding: 104 104 76
Width: 1458
Flags: W
HStem: 0 21G<172 533.521 938 1301.52> 877 270<902.303 1235.5>
Fore
1105 1147 m 0
 1366 1147 1431 984 1431 821 c 0
 1431 779 1427 732 1418 682 c 2
 1298 0 l 1
 938 0 l 1
 1030 520 l 2
 1050 635 1060 704 1060 744 c 0
 1060 850 986 877 925 877 c 0
 750 877 657 719 627 551 c 2
 530 0 l 1
 172 0 l 1
 446 1556 l 1
 804 1556 l 1
 699 956 l 1
 815 1072 943 1147 1105 1147 c 0
EndSplineSet
EndChar
StartChar: i
Encoding: 105 105 77
Width: 702
Flags: W
HStem: 0 21G<172 533.518> 1264 292<446 753>
VStem: 172 632<0 1556>
Fore
369 1120 m 1
 727 1120 l 1
 530 0 l 1
 172 0 l 1
 369 1120 l 1
446 1556 m 1
 804 1556 l 1
 753 1264 l 1
 395 1264 l 1
 446 1556 l 1
EndSplineSet
EndChar
StartChar: j
Encoding: 106 106 78
Width: 702
Flags: W
HStem: -442 235<-104 98.4646> 1264 292<446 753>
VStem: -146 950<-442 1556>
Fore
369 1120 m 1
 727 1120 l 1
 534 20 l 2
 485.779 -251.244 329.96 -442 31 -442 c 2
 -146 -442 l 1
 -104 -207 l 1
 -42 -207 l 2
 99.677 -207 146.009 -148.698 176 20 c 2
 369 1120 l 1
446 1556 m 1
 804 1556 l 1
 753 1264 l 1
 395 1264 l 1
 446 1556 l 1
EndSplineSet
EndChar
StartChar: k
Encoding: 107 107 79
Width: 1362
Flags: W
HStem: 0 21G<172 533.512 951.797 1401>
Fore
446 1556 m 1
 804 1556 l 1
 655 709 l 1
 1139 1120 l 1
 1555 1120 l 1
 918 606 l 1
 1401 0 l 1
 967 0 l 1
 612 467 l 1
 530 0 l 1
 172 0 l 1
 446 1556 l 1
EndSplineSet
EndChar
StartChar: l
Encoding: 108 108 80
Width: 702
Flags: W
HStem: 0 21G<172 533.522>
VStem: 172 632<0 1556>
Fore
446 1556 m 1
 804 1556 l 1
 530 0 l 1
 172 0 l 1
 446 1556 l 1
EndSplineSet
EndChar
StartChar: m
Encoding: 109 109 81
Width: 2134
Flags: W
HStem: 0 21G<170 533.521 891 1254.53 1612 1975.52> 877 270<885.772 1117.51 1585.38 1879.68>
Fore
1072 1147 m 0
 1235 1147 1338 1062 1375 934 c 1
 1460 1037 1596 1147 1779 1147 c 0
 2040 1147 2105 982 2105 821 c 0
 2105 779 2101 732 2092 682 c 2
 1972 0 l 1
 1612 0 l 1
 1715 584 l 2
 1722 615 1738 682 1738 745 c 0
 1738 820 1715 877 1621 877 c 0
 1566 877 1407 861 1348 550 c 2
 1251 0 l 1
 891 0 l 1
 994 584 l 2
 1007 658 1014 716 1014 758 c 0
 1014 815 1004 877 900 877 c 0
 682 877 635 593 627 551 c 2
 530 0 l 1
 170 0 l 1
 367 1120 l 1
 727 1120 l 1
 699 956 l 1
 779 1049 902 1147 1072 1147 c 0
EndSplineSet
EndChar
StartChar: n
Encoding: 110 110 82
Width: 1458
Flags: W
HStem: 0 21G<172 533.521 938 1301.52> 877 270<902.303 1235.5>
Fore
1105 1147 m 0
 1366 1147 1431 984 1431 821 c 0
 1431 779 1427 732 1418 682 c 2
 1298 0 l 1
 938 0 l 1
 1030 522 l 2
 1050 632 1060 700 1060 744 c 0
 1060 850 986 877 925 877 c 0
 750 877 657 719 627 551 c 2
 530 0 l 1
 172 0 l 1
 369 1120 l 1
 727 1120 l 1
 699 956 l 1
 815 1072 943 1147 1105 1147 c 0
EndSplineSet
EndChar
StartChar: o
Encoding: 111 111 83
Width: 1407
Flags: W
HStem: -29 256<615.953 887.729> 891 256<723.784 987.703>
VStem: 174 375<291.477 674.799> 1055 376<436.391 827.257>
Fore
1055 669 m 0
 1055 777 1017 891 862 891 c 0
 597 891 549 565 549 447 c 0
 549 340 588 227 745 227 c 0
 994 227 1055 528 1055 669 c 0
174 421 m 0
 174 678 321 1147 907 1147 c 0
 1318 1147 1431 908 1431 696 c 0
 1431 378 1234 -29 700 -29 c 0
 260 -29 174 241 174 421 c 0
EndSplineSet
EndChar
StartChar: p
Encoding: 112 112 84
Width: 1466
Flags: W
HStem: -29 260<703.025 945.253> 887 260<898.903 1223.5>
VStem: 1114 373<441.541 823.486>
Fore
896 -29 m 0
 723 -29 625 46 559 162 c 1
 455 -426 l 1
 97 -426 l 1
 369 1120 l 1
 727 1120 l 1
 699 956 l 1
 815 1081 941 1147 1103 1147 c 0
 1344 1147 1487 965 1487 705 c 0
 1487 351 1252 -29 896 -29 c 0
1114 669 m 0
 1114 807 1052 887 924 887 c 0
 679 887 618 590 618 449 c 0
 618 313 681 231 807 231 c 2
 809 231 l 258
 1053 231 1114 530 1114 669 c 0
EndSplineSet
EndChar
StartChar: q
Encoding: 113 113 85
Width: 1466
Flags: W
HStem: -29 260<440.5 766.388> 887 258<715.894 961.312>
VStem: 177 374<295.216 679.68>
Fore
1044 669 m 0
 1044 807 982 887 854 887 c 0
 597 887 551 558 551 445 c 0
 551 343 588 231 739 231 c 0
 983 231 1044 530 1044 669 c 0
767 1145 m 0
 941 1145 1037 1069 1102 954 c 1
 1131 1120 l 1
 1491 1120 l 1
 1219 -426 l 1
 859 -426 l 1
 963 162 l 1
 845 35 721 -29 560 -29 c 0
 321 -29 177 145 177 419 c 0
 177 765 412 1145 767 1145 c 0
EndSplineSet
EndChar
StartChar: r
Encoding: 114 114 86
Width: 1010
Flags: W
HStem: 0 21G<172 533.527> 1127 20G<1004 1125>
Fore
695 936 m 1
 784 1048 904 1147 1104 1147 c 2
 1105 1147 l 2
 1145 1147 1184 1142 1204 1139 c 1
 1148 815 l 1
 1084 848 1022 858 968 858 c 0
 762 858 655 709 621 516 c 2
 530 0 l 1
 172 0 l 1
 369 1120 l 1
 727 1120 l 1
 695 936 l 1
EndSplineSet
EndChar
StartChar: s
Encoding: 115 115 87
Width: 1219
Flags: W
HStem: -29 238<319.237 789.776> 909 238<602.073 1052.39>
VStem: 841 347<258.062 500.5>
Fore
608 209 m 0
 808 209 841 290 841 344 c 0
 841 397 796 417 676 432 c 2
 615 440 l 2
 274 484 239 599 239 723 c 0
 239 893 323 1147 804 1147 c 0
 978 1147 1133 1113 1238 1085 c 1
 1190 813 l 1
 1097 855 946 909 783 909 c 0
 624 909 562 861 562 789 c 0
 562 739 612 717 718 705 c 2
 780 696 l 2
 1088 656 1188 584 1188 417 c 0
 1188 238 1105 -29 591 -29 c 0
 453 -29 296 -8 130 41 c 1
 178 313 l 1
 329 233 479 209 608 209 c 0
EndSplineSet
EndChar
StartChar: t
Encoding: 116 116 88
Width: 979
Flags: W
HStem: 0 256<635.016 901> 864 256<224 357 760 1084>
Fore
594 0 m 2
 266 0 261 159 261 277 c 0
 261 311 267 348 274 389 c 2
 357 864 l 1
 179 864 l 1
 224 1120 l 1
 402 1120 l 1
 459 1438 l 1
 817 1438 l 1
 760 1120 l 1
 1129 1120 l 1
 1084 864 l 1
 715 864 l 1
 632 389 l 2
 629 371 627 355 627 341 c 0
 627 273 669 256 762 256 c 2
 946 256 l 1
 901 0 l 1
 594 0 l 2
EndSplineSet
EndChar
StartChar: u
Encoding: 117 117 89
Width: 1458
Flags: W
HStem: -29 271<420.5 753.979>
Fore
552 -29 m 0
 289 -29 224 136 224 297 c 0
 224 339 228 386 237 436 c 2
 357 1120 l 1
 717 1120 l 1
 623 596 l 2
 604 489 595 421 595 378 c 0
 595 269 669 242 731 242 c 0
 906 242 998 399 1028 567 c 2
 1125 1120 l 1
 1483 1120 l 1
 1286 0 l 1
 928 0 l 1
 957 162 l 1
 841 47 714 -29 552 -29 c 0
EndSplineSet
EndChar
StartChar: v
Encoding: 118 118 90
Width: 1335
Flags: W
HStem: 0 21G<466.661 875.393>
Fore
228 1120 m 1
 586 1120 l 1
 729 346 l 1
 1143 1120 l 1
 1502 1120 l 1
 864 0 l 1
 471 0 l 1
 228 1120 l 1
EndSplineSet
EndChar
StartChar: w
Encoding: 119 119 91
Width: 1892
Flags: W
HStem: 0 21G<365.25 766.416 1133.62 1534.79>
VStem: 269 348<813.175 1096.61>
Fore
269 1120 m 1
 617 1120 l 1
 669 348 l 1
 994 1120 l 1
 1293 1120 l 1
 1347 356 l 1
 1670 1120 l 1
 2018 1120 l 1
 1526 0 l 1
 1135 0 l 1
 1082 770 l 1
 758 0 l 1
 367 0 l 1
 269 1120 l 1
EndSplineSet
EndChar
StartChar: x
Encoding: 120 120 92
Width: 1321
Flags: W
HStem: 0 21G<31 427.571 900.266 1290>
Fore
556 573 m 1
 248 1120 l 1
 627 1120 l 1
 798 788 l 1
 1088 1120 l 1
 1467 1120 l 1
 967 575 l 1
 1290 0 l 1
 911 0 l 1
 721 354 l 1
 410 0 l 1
 31 0 l 1
 556 573 l 1
EndSplineSet
EndChar
StartChar: y
Encoding: 121 121 93
Width: 1335
Flags: W
HStem: -442 235<168 430.96>
Fore
222 1120 m 1
 580 1120 l 1
 747 360 l 1
 1137 1120 l 1
 1495 1120 l 1
 808 -106 l 2
 699.561 -300.981 581.153 -442 334 -442 c 2
 127 -442 l 1
 168 -207 l 1
 280 -207 l 2
 405.185 -207 454.863 -170.119 501 -74 c 2
 516 -43 l 1
 222 1120 l 1
EndSplineSet
EndChar
StartChar: z
Encoding: 122 122 94
Width: 1192
Flags: W
HStem: 0 256<549 1094> 864 256<314 834>
Fore
314 1120 m 1
 1291 1120 l 1
 1247 870 l 1
 549 256 l 1
 1139 256 l 1
 1094 0 l 1
 92 0 l 1
 136 250 l 1
 834 864 l 1
 269 864 l 1
 314 1120 l 1
EndSplineSet
EndChar
StartChar: braceleft
Encoding: 123 123 95
Width: 1458
Flags: W
HStem: -334 225<939.199 1143> 494 223<382 576.21> 1331 225<1179.45 1257 1257 1437>
Fore
918 18 m 0
 918 -63 939 -109 1114 -109 c 2
 1183 -109 l 1
 1143 -334 l 1
 926 -334 l 2
 644 -334 563 -226 563 -65 c 0
 563 -34 567 -1 573 35 c 2
 607 227 l 2
 613 263 617 295 617 323 c 0
 617 426 587 494 404 494 c 2
 343 494 l 1
 382 717 l 1
 443 717 l 2
 631 717 706 785 740 983 c 2
 776 1188 l 2
 822 1442 968 1556 1257 1556 c 2
 1476 1556 l 1
 1437 1331 l 1
 1368 1331 l 2
 1176 1331 1133 1281 1101 1102 c 2
 1072 936 l 2
 1039 749 981 648 815 612 c 1
 942 580 970 509 970 412 c 0
 970 376 966 335 958 287 c 2
 928 121 l 2
 921 81 918 46 918 18 c 0
EndSplineSet
EndChar
StartChar: bar
Encoding: 124 124 96
Width: 748
Flags: W
VStem: 175 588<-483 1565>
Fore
763 1565 m 1
 402 -483 l 1
 175 -483 l 1
 536 1565 l 1
 763 1565 l 1
EndSplineSet
EndChar
StartChar: braceright
Encoding: 125 125 97
Width: 1458
Flags: W
HStem: -334 225<237 492.081> 494 223<1095.56 1289> 1331 225<530 735.185>
Fore
1054 885 m 0
 1054 784 1086 717 1267 717 c 2
 1328 717 l 1
 1289 494 l 1
 1228 494 l 2
 1040 494 965 425 931 227 c 2
 897 35 l 2
 852 -220 705 -334 414 -334 c 2
 197 -334 l 1
 237 -109 l 1
 307 -109 l 2
 400 -109 464 -94 497 -66 c 0
 530 -36 555 26 572 121 c 2
 602 287 l 2
 635 475 693 573 860 612 c 1
 732 642 703 712 703 809 c 0
 703 845 707 888 716 936 c 2
 745 1102 l 2
 752 1142 756 1176 756 1204 c 0
 756 1285 736 1331 561 1331 c 2
 491 1331 l 1
 530 1556 l 1
 747 1556 l 2
 1028 1556 1110 1450 1110 1291 c 0
 1110 1259 1107 1225 1100 1188 c 2
 1064 983 l 2
 1058 946 1054 913 1054 885 c 0
EndSplineSet
EndChar
StartChar: asciitilde
Encoding: 126 126 98
Width: 1716
Flags: W
HStem: 457 233<1068.69 1415.13> 594 233<528.736 874.121>
Fore
1649 850 m 1x80
 1606 606 l 1
 1495 532 1362 457 1199 457 c 0x80
 999.003 457 865.705 594 680 594 c 0
 603 594 486 576 294 434 c 1
 337 678 l 1
 448 751 581 827 744 827 c 0x40
 944.282 827 1076.27 690 1263 690 c 0
 1388 690 1508 749 1649 850 c 1x80
EndSplineSet
EndChar
StartChar: exclamdown
Encoding: 161 161 100
Width: 934
Flags: W
HStem: 0 21G<287 650.525> 1137 356<550 847>
VStem: 287 623<0 1493>
Fore
287 0 m 1
 388 573 l 1
 513 991 l 1
 771 991 l 1
 748 573 l 1
 647 0 l 1
 287 0 l 1
487 1137 m 1
 550 1493 l 1
 910 1493 l 1
 847 1137 l 1
 487 1137 l 1
EndSplineSet
EndChar
StartChar: cent
Encoding: 162 162 101
Width: 1425
Flags: W
HStem: 891 254<1067 1212.2>
VStem: 262 375<318.742 609.686>
Fore
853 858 m 1
 655 756 637 541 637 469 c 0
 637 343 702 287 748 260 c 1
 853 858 l 1
698 -25 m 1
 445 15 262 144 262 431 c 0
 262 609 325 1068 904 1145 c 1
 954 1432 l 1
 1116 1432 l 1
 1067 1145 l 1
 1173 1140 1265 1118 1352 1085 c 1
 1301 793 l 1
 1236 841 1142 891 1036 891 c 2
 1021 891 l 1
 904 228 l 1
 1032 229 1138 268 1218 326 c 1
 1167 33 l 1
 1024 -16 929 -29 869 -29 c 2
 859 -29 l 1
 809 -313 l 1
 647 -313 l 1
 698 -25 l 1
EndSplineSet
EndChar
StartChar: sterling
Encoding: 163 163 102
Width: 1425
Flags: W
HStem: 0 266<172 399 764 1255> 592 239<305 456 864 1194> 1257 263<1010.73 1327.79>
Fore
1451 1180 m 1
 1356 1239 1254 1257 1170 1257 c 0
 996 1257 921 1156 894 1001 c 2
 864 831 l 1
 1237 831 l 1
 1194 592 l 1
 821 592 l 1
 764 266 l 1
 1302 266 l 1
 1255 0 l 1
 125 0 l 1
 172 266 l 1
 399 266 l 1
 456 592 l 1
 262 592 l 1
 305 831 l 1
 499 831 l 1
 529 1001 l 2
 588 1338 760 1520 1149 1520 c 0
 1246 1520 1367 1509 1501 1466 c 1
 1451 1180 l 1
EndSplineSet
EndChar
StartChar: currency
Encoding: 164 164 103
Width: 1303
Flags: W
HStem: 213 209<601.775 815.9> 860 209<714.743 929.634> 1197 20G<420.493 460.425 1270.52 1310.23>
VStem: 330 213<479.147 738.417> 989 212<594.758 781.01>
Fore
691 213 m 0
 605 213 539 234 481 268 c 1
 238 61 l 1
 112 215 l 1
 355 422 l 1
 341 458 330 504 330 556 c 0
 330 652 360 766 436 858 c 1
 263 1063 l 1
 444 1217 l 1
 614 1010 l 1
 693 1055 773 1069 841 1069 c 0
 925 1069 995 1044 1051 1014 c 1
 1294 1221 l 1
 1419 1067 l 1
 1176 860 l 1
 1195 805 1201 759 1201 716 c 0
 1201 659 1188 539 1097 426 c 1
 1268 219 l 1
 1087 66 l 1
 916 272 l 1
 839 227 764 213 691 213 c 0
543 599 m 0
 543 508 605 422 727 422 c 0
 864 422 989 541 989 683 c 0
 989 774 925 860 805 860 c 0
 669 860 543 742 543 599 c 0
EndSplineSet
EndChar
StartChar: yen
Encoding: 165 165 104
Width: 1425
Flags: W
HStem: 0 21G<522 906.51> 416 194<176 595 1011 1431> 762 192<236 528 1233 1492>
Fore
1431 416 m 1
 976 416 l 1
 903 0 l 1
 522 0 l 1
 595 416 l 1
 141 416 l 1
 176 610 l 1
 630 610 l 1
 641 676 l 1
 607 762 l 1
 202 762 l 1
 236 954 l 1
 528 954 l 1
 288 1493 l 1
 687 1493 l 1
 895 1032 l 1
 1264 1493 l 1
 1664 1493 l 1
 1233 954 l 1
 1526 954 l 1
 1492 762 l 1
 1086 762 l 1
 1022 676 l 1
 1011 610 l 1
 1466 610 l 1
 1431 416 l 1
EndSplineSet
EndChar
StartChar: brokenbar
Encoding: 166 166 105
Width: 748
Flags: W
VStem: 198 542<-350 1432>
Fore
740 1432 m 1
 606 674 l 1
 379 674 l 1
 512 1432 l 1
 740 1432 l 1
559 408 m 1
 425 -350 l 1
 198 -350 l 1
 332 408 l 1
 559 408 l 1
EndSplineSet
EndChar
StartChar: section
Encoding: 167 167 106
Width: 1024
Flags: W
HStem: -195 211<299.651 602.548> 1235 21G<1075 1106.52> 1313 207<662.88 959.72>
VStem: 851 289<550.81 888.209>
Fore
1140 728 m 0
 1140 598 1072 431 847 344 c 1
 947 285 963 213 963 162 c 0
 963 19 841 -195 449 -195 c 0
 377 -195 263 -188 91 -137 c 1
 133 100 l 1
 259 52 389 16 472 16 c 0
 594 16 632 81 632 115 c 0
 632 159 580 204 476 250 c 2
 425 272 l 2
 199 376 126 470 126 602 c 0
 126 752 207 892 410 977 c 1
 338 1033 307 1088 307 1162 c 0
 307 1305 415 1520 796 1520 c 0
 891 1520 1011 1506 1143 1462 c 1
 1103 1235 l 1
 1047 1259 913 1313 803 1313 c 0
 659 1313 634 1242 634 1208 c 0
 634 1060 1140 1038 1140 728 c 0
687 471 m 1
 797 508 851 576 851 647 c 0
 851 730 766 789 585 856 c 1
 474 813 421 750 421 680 c 0
 421 596 491 547 687 471 c 1
EndSplineSet
EndChar
StartChar: dieresis
Encoding: 168 168 107
Width: 1024
Flags: W
HStem: 1339 246<476 668 871 1063>
VStem: 433 673<1339 1585>
Fore
476 1585 m 1
 711 1585 l 1
 668 1339 l 1
 433 1339 l 1
 476 1585 l 1
871 1585 m 1
 1106 1585 l 1
 1063 1339 l 1
 828 1339 l 1
 871 1585 l 1
EndSplineSet
EndChar
StartChar: copyright
Encoding: 169 169 108
Width: 2048
Flags: W
HStem: 0 154<832.752 1275.32> 313 187<1039.18 1378.69> 983 186<1111.78 1405.71> 1331 154<1028.07 1473.1>
VStem: 401 154<434.361 861.151> 722 261<556.054 843.54> 1755 154<623.398 1046.83>
Fore
722 648 m 0
 722 910 913 1169 1270 1169 c 0
 1370 1169 1452 1153 1522 1126 c 1
 1484 911 l 1
 1429 951 1362 983 1271 983 c 0
 1041 983 983 787 983 677 c 0
 983 598 1024 500 1186 500 c 0
 1282 500 1362 529 1424 571 c 1
 1386 358 l 1
 1322 338 1226 313 1120 313 c 0
 811 313 722 504 722 648 c 0
555 634 m 0
 555 377 747 154 1051 154 c 0
 1432 154 1755 494 1755 849 c 0
 1755 1084 1581 1331 1259 1331 c 256
 889 1331 555 997 555 634 c 0
1024 0 m 256
 618 0 401 312 401 603 c 0
 401 1069 821 1485 1286 1485 c 256
 1679 1485 1909 1187 1909 879 c 0
 1909 414 1485 0 1024 0 c 256
EndSplineSet
EndChar
StartChar: ordfeminine
Encoding: 170 170 109
Width: 1155
Flags: W
HStem: 373 200<277 1055> 696 162<476.036 775.651> 1081 138<616.38 924> 1354 166<525.725 934.828>
Fore
277 573 m 1
 1090 573 l 1
 1055 373 l 1
 242 373 l 1
 277 573 l 1
575 944 m 0
 575 909 592 858 681 858 c 0
 803 858 899 945 920 1059 c 2
 924 1081 l 1
 834 1081 l 2
 668 1081 575 1054 575 944 c 0
829 1520 m 0
 1044 1520 1214 1461 1214 1253 c 0
 1214 1226 1212 1196 1206 1165 c 2
 1127 717 l 1
 882 717 l 1
 905 844 l 1
 813 743 716 696 590 696 c 0
 367 696 320 816 320 895 c 0
 320 939 334 1078 466 1153 c 0
 544 1197 658 1219 809 1219 c 2
 946 1219 l 1
 951 1252 951 1252 951 1261 c 0
 951 1334 874 1354 796 1354 c 0
 692 1354 579 1336 451 1284 c 1
 483 1464 l 1
 576 1491 705 1520 829 1520 c 0
EndSplineSet
EndChar
StartChar: guillemotleft
Encoding: 171 171 110
Width: 1323
Flags: W
HStem: 137 926<675 838>
Fore
838 1063 m 1
 796 821 l 1
 464 600 l 1
 718 379 l 1
 675 137 l 1
 247 506 l 1
 280 692 l 1
 838 1063 l 1
1317 1063 m 1
 1275 821 l 1
 944 600 l 1
 1197 379 l 1
 1154 137 l 1
 726 506 l 1
 759 692 l 1
 1317 1063 l 1
EndSplineSet
EndChar
StartChar: logicalnot
Encoding: 172 172 111
Width: 1716
Flags: W
HStem: 672 237<377 1382>
Fore
377 909 m 1
 1659 909 l 1
 1550 287 l 1
 1315 287 l 1
 1382 672 l 1
 335 672 l 1
 377 909 l 1
EndSplineSet
EndChar
StartChar: uni00AD
Encoding: 173 173 112
Width: 850
Flags: W
HStem: 444 291<241 817>
VStem: 189 680<444 735>
Fore
241 735 m 1
 869 735 l 1
 817 444 l 1
 189 444 l 1
 241 735 l 1
EndSplineSet
EndChar
StartChar: registered
Encoding: 174 174 113
Width: 2048
Flags: W
HStem: 0 154<832.44 1273.77> 1036 138<1115 1281.54> 1331 154<1028.07 1473.1>
VStem: 401 154<434.797 861.151> 1291 233<896.366 1020.14> 1755 154<623.398 1046.83>
Fore
555 634 m 0
 555 379 749 154 1045 154 c 0
 1051 154 l 0
 1432 154 1755 494 1755 849 c 0
 1755 1084 1581 1331 1259 1331 c 256
 889 1331 555 997 555 634 c 0
1291 955 m 0
 1291 1020 1226 1036 1150 1036 c 2
 1115 1036 l 1
 1078 829 l 1
 1113 829 l 2
 1263 829 1291 904 1291 955 c 0
1524 983 m 0
 1524 929 1505 758 1280 719 c 1
 1335 686 1370 629 1393 559 c 2
 1465 338 l 1
 1236 338 l 1
 1166 551 l 2
 1141 632 1112 694 1066 694 c 2
 1054 694 l 1
 992 338 l 1
 779 338 l 1
 926 1174 l 1
 1211 1174 l 2
 1442 1174 1524 1098 1524 983 c 0
1024 0 m 256
 618 0 401 312 401 603 c 0
 401 1069 821 1485 1286 1485 c 256
 1679 1485 1909 1187 1909 879 c 0
 1909 414 1485 0 1024 0 c 256
EndSplineSet
EndChar
StartChar: macron
Encoding: 175 175 114
Width: 1024
Flags: W
HStem: 1368 188<471 1068>
VStem: 438 663<1368 1556>
Fore
471 1556 m 1
 1101 1556 l 1
 1068 1368 l 1
 438 1368 l 1
 471 1556 l 1
EndSplineSet
EndChar
StartChar: degree
Encoding: 176 176 115
Width: 1024
Flags: W
HStem: 868 162<585.809 817.415> 1372 162<632.413 859.526>
VStem: 384 165<1066.56 1287.23> 899 163<1111.07 1333.83>
Fore
899 1231 m 0
 899 1305 845 1372 754 1372 c 0
 648 1372 549 1281 549 1166 c 0
 549 1096 600 1030 694 1030 c 0
 806 1030 899 1127 899 1231 c 0
782 1534 m 0
 936 1534 1062 1425 1062 1261 c 0
 1062 1054 875 868 663 868 c 0
 492 868 384 982 384 1138 c 0
 384 1339 558 1534 782 1534 c 0
EndSplineSet
EndChar
StartChar: plusminus
Encoding: 177 177 116
Width: 1716
Flags: W
HStem: 0 238<259 1499> 694 236<381 861 1141 1621>
Fore
1203 1284 m 1
 1141 930 l 1
 1663 930 l 1
 1621 694 l 1
 1099 694 l 1
 1037 340 l 1
 799 340 l 1
 861 694 l 1
 339 694 l 1
 381 930 l 1
 903 930 l 1
 965 1284 l 1
 1203 1284 l 1
259 238 m 1
 1541 238 l 1
 1499 0 l 1
 217 0 l 1
 259 238 l 1
EndSplineSet
EndChar
StartChar: uni00B2
Encoding: 178 178 117
Width: 897
Flags: W
HStem: 668 168<559 900> 1372 148<445.944 743.428>
VStem: 759 249<1179.4 1355.7>
Fore
708 1520 m 0
 953 1520 1008 1402 1008 1324 c 0
 1008 1173 885 1076 783 1001 c 2
 559 836 l 1
 929 836 l 1
 900 668 l 1
 227 668 l 1
 254 821 l 1
 614 1087 l 2
 684 1140 759 1204 759 1282 c 0
 759 1336 716 1372 645 1372 c 0
 523 1372 390 1305 341 1280 c 1
 373 1466 l 1
 463 1492 587 1520 708 1520 c 0
EndSplineSet
EndChar
StartChar: uni00B3
Encoding: 179 179 118
Width: 897
Flags: W
HStem: 653 146<343.243 655.527> 1047 137<457 684.03> 1372 148<541.683 737.352>
VStem: 708 243<851.992 1006.45> 747 250<1216.58 1356.44>
Fore
997 1342 m 0xe8
 997 1211 895 1142 789 1120 c 1
 939 1090 951 987 951 951 c 0
 951 832 877 653 502 653 c 0
 392 653 296 669 213 698 c 1
 244 872 l 1
 306 834 389 799 485 799 c 0
 666 799 708 886 708 944 c 0xf0
 708 1006 660 1047 507 1047 c 2
 433 1047 l 1
 457 1184 l 1
 541 1184 l 2
 638 1184 747 1201 747 1298 c 0
 747 1342 710 1372 604 1372 c 0
 553 1372 470 1363 350 1319 c 1
 379 1485 l 1
 471 1508 573 1520 688 1520 c 0
 953 1520 997 1413 997 1342 c 0xe8
EndSplineSet
EndChar
StartChar: acute
Encoding: 180 180 119
Width: 1024
Flags: W
HStem: 1262 376<784 936>
VStem: 588 631<1262 1638>
Fore
936 1638 m 1
 1219 1638 l 1
 784 1262 l 1
 588 1262 l 1
 936 1638 l 1
EndSplineSet
EndChar
StartChar: mu
Encoding: 181 181 120
Width: 1507
Flags: W
HStem: -29 269<649.46 908.594>
Fore
780 240 m 0
 926 240 997 325 1023 469 c 2
 1137 1120 l 1
 1497 1120 l 1
 1365 371 l 2
 1361 347 1359 326 1359 310 c 0
 1359 270 1370 244 1415 244 c 0
 1445 244 1469 255 1489 266 c 1
 1445 16 l 1
 1398 -3 1326 -29 1246 -29 c 0
 1123 -29 1063 23 1037 129 c 1
 973 47 880 -29 738 -29 c 0
 642 -29 576 0 547 66 c 1
 460 -428 l 1
 99 -428 l 1
 371 1120 l 1
 732 1120 l 1
 618 469 l 2
 613 442 611 417 611 394 c 0
 611 270 693 240 780 240 c 0
EndSplineSet
EndChar
StartChar: paragraph
Encoding: 182 182 121
Width: 1303
Flags: W
HStem: 1346 147<982 1171>
Fore
310 984 m 0
 310 1233 499 1493 867 1493 c 2
 1387 1493 l 1
 1089 -197 l 1
 899 -197 l 1
 1171 1346 l 1
 982 1346 l 1
 710 -197 l 1
 520 -197 l 1
 669 649 l 1
 456 676 310 783 310 984 c 0
EndSplineSet
EndChar
StartChar: periodcentered
Encoding: 183 183 122
Width: 778
Flags: W
HStem: 518 387<369 660>
VStem: 300 429<518 905>
Fore
369 905 m 1
 729 905 l 1
 660 518 l 1
 300 518 l 1
 369 905 l 1
EndSplineSet
EndChar
StartChar: cedilla
Encoding: 184 184 123
Width: 1024
Flags: W
HStem: -401 147<261.483 501.911> -20 20G<463 625>
VStem: 522 157<-230.054 -82.4425>
Fore
522 -154 m 0
 522 -123 506 -77 463 0 c 1
 602 0 l 1
 648 -61 679 -123 679 -186 c 0
 679 -272 630 -401 397 -401 c 0
 340.403 -401 274.278 -395.607 197 -375 c 1
 223 -223 l 1
 254 -233 319 -254 383 -254 c 0
 492 -254 522 -194 522 -154 c 0
EndSplineSet
EndChar
StartChar: uni0E01
Encoding: 3585 3585 124
Width: 1470
Flags: W
HStem: 0 21G<170 484.509 998 1312.52> 984 241<622.63 1091.55>
Fore
944 1225 m 0
 1233 1225 1461 1161 1461 905 c 0
 1461 876 1458 845 1452 812 c 2
 1309 0 l 1
 998 0 l 1
 1138 796 l 2
 1141 812 1142 826 1142 840 c 0
 1142 926 1081 984 906 984 c 0
 747 984 670 960 618 938 c 1
 793 847 l 1
 759 651 l 1
 631 606 577 546 561 456 c 2
 481 0 l 1
 170 0 l 1
 250 456 l 2
 269 557 343 679 454 735 c 1
 282 812 l 1
 331 1088 l 1
 478 1145 710 1225 944 1225 c 0
EndSplineSet
EndChar
StartChar: uni0E02
Encoding: 3586 3586 125
Width: 1380
Flags: W
HStem: 0 222<613 902.157> 712 136<347.451 485.322> 997 218<397.632 651>
VStem: 199 146<851.809 982.578> 499 151<861.198 987.683> 681 236<802.572 1006.36>
Fore
345 908 m 0
 345 876 366 848 411 848 c 0
 465 848 499 897 499 939 c 0
 499 970 480 997 436 997 c 0
 380 997 345 949 345 908 c 0
587 1215 m 0
 715 1215 917 1160 917 939 c 0
 917 677 681 621 638 361 c 2
 613 222 l 1
 814 222 l 0
 883 222 923 258 935 326 c 2
 1091 1206 l 1
 1403 1206 l 1
 1246 320 l 2
 1209 107 1049 0 768 0 c 2
 264 0 l 1
 336 406 l 2
 379 658 681 732 681 922 c 0
 681 959 665 988 633 1009 c 1
 644 991 650 969 650 945 c 0
 650 888 622 835 565 780 c 0
 518 734 459 712 386 712 c 0
 264 712 199 798 199 886 c 0
 199 1062 380 1215 587 1215 c 0
EndSplineSet
EndChar
StartChar: uni0E03
Encoding: 3587 3587 126
Width: 1530
Flags: W
HStem: 0 222<760 1055.25> 605 136<327.769 464.668> 1195 20G<523 590.989 806.517 909.5 1235.45 1549>
VStem: 182 143<745.836 874.149> 480 144<754.823 887.961> 825 253<863.963 1003.6>
Fore
840 1215 m 1
 979 1198 1078 1108 1078 962 c 0
 1078 820 947 651 910 606 c 0
 845 530 802 465 785 361 c 2
 760 222 l 1
 962 222 l 2
 1031 222 1071 258 1083 326 c 2
 1239 1206 l 1
 1549 1206 l 1
 1392 319 l 2
 1355 106 1199 0 924 0 c 2
 411 0 l 1
 483 406 l 2
 494 470 528 617 722 763 c 0
 814 832 825 918 825 946 c 0
 825 985 803 1002 771 1008 c 1
 661 970 l 1
 515 1051 l 1
 466 1032 l 1
 561 1018 624 951 624 846 c 0
 624 706 512 605 367 605 c 0
 288 605 182 643 182 793 c 0
 182 859 210 1016 332 1114 c 0
 407 1175 484 1209 562 1215 c 1
 691 1126 l 1
 840 1215 l 1
480 831 m 0
 480 860 459 890 419 890 c 16
 416 890 l 0
 367 890 325 847 325 801 c 0
 325 766 354 741 390 741 c 0
 434 741 480 780 480 831 c 0
EndSplineSet
EndChar
StartChar: uni0E04
Encoding: 3588 3588 127
Width: 1570
Flags: W
HStem: 0 21G<-4849 1394.54> 390 127<810.168 947.446> 666 139<821.958 958.511> 984 239<761.731 1133.48>
VStem: 961 146<530.587 662.269>
Fore
577 577 m 1
 639 682 765 805 920 805 c 0
 1025 805 1107 722 1107 626 c 0
 1107 488 964 390 856 390 c 0
 784 390 731 412 704 453 c 1
 544 248 512 139 488 0 c 1
 177 0 l 1
 285 732 l 2
 356 1205 864 1223 1002 1223 c 0
 1289 1223 1529 1101 1529 829 c 0
 1529 797 1526 764 1520 729 c 2
 1391 0 l 1
 1079 1 l 1
 1210 738 l 2
 1213 755 1215 770 1215 786 c 0
 1215 865.2 1166 984 954 984 c 0
 768 984 631 882 605 735 c 2
 577 577 l 1
807 577 m 0
 807 544 832 517 870 517 c 24
 914 517 961 554 961 605 c 0
 961 639 936 666 897 666 c 0
 847 666 807 621 807 577 c 0
EndSplineSet
EndChar
StartChar: uni0E05
Encoding: 3589 3589 128
Width: 1570
Flags: W
HStem: 0 21G<-4848 1395.52> 390 127<810.481 947.663> 666 139<822.234 958.972> 1198 20G<719 804.657 1201.77 1313.5>
VStem: 962 145<530.975 662.269>
Fore
962 605 m 0
 962 639 936 666 897 666 c 0
 842 666 808 617 808 576 c 0
 808 544 827 517 870 517 c 0
 923 517 962 562 962 605 c 0
704 453 m 1
 544 248 512 139 488 0 c 1
 177 0 l 1
 287 742 l 2
 310 897 369 1009 465 1080 c 0
 561 1150 664 1196 774 1218 c 1
 984 1081 l 1
 1239 1218 l 1
 1388 1180 1533 1074 1533 857 c 0
 1533 821 1529 781 1522 739 c 2
 1392 0 l 1
 1080 1 l 1
 1212 748 l 2
 1215 767 1217 786 1217 803 c 0
 1217 871 1185 928 1146 952 c 1
 990 868 l 1
 899 868 l 1
 758 961 l 1
 634 885 614 789 606 745 c 2
 577 576 l 1
 639 682 765 805 920 805 c 0
 1025 805 1107 722 1107 626 c 0
 1107 488 964 390 856 390 c 0
 784 390 731 412 704 453 c 1
EndSplineSet
EndChar
StartChar: uni0E06
Encoding: 3590 3590 129
Width: 1600
Flags: W
HStem: -11 216<425.91 576.363> 605 137<347.63 484.941> 1195 20G<543 610.989 826.517 929.5 1293.48 1623>
VStem: 193 228<209.836 352.413> 202 143<746.086 874.149> 500 144<754.47 887.931>
Fore
860 1215 m 1xec
 999 1197 1110 1100 1110 959 c 0
 1110 866 1051 728 954 644 c 0
 913 608 885 573 871 540 c 1
 984 507 1131 399 1144 336 c 1
 1297 1205 l 1
 1623 1205 l 1
 1411 0 l 1
 1080 0 l 1
 1042 134 931 269 833 315 c 1
 824 265 l 2
 796 108 656 -11 466 -11 c 0
 293 -11 193 83 193 223 c 0xf4
 193 329 239 416 311 487 c 0
 373 548 462 582 577 588 c 1
 674 779 845 781 845 946 c 0
 845 985 823 1002 791 1008 c 1
 681 970 l 1
 535 1051 l 1
 486 1032 l 1
 581 1018 644 951 644 846 c 0
 644 706 532 605 387 605 c 0
 308 605 202 643 202 793 c 0
 202 859 230 1016 352 1114 c 0
 427 1175 504 1209 582 1215 c 1
 711 1126 l 1
 860 1215 l 1xec
410 742 m 0
 466 742 500 789 500 830 c 0
 500 865 474 890 439 890 c 0
 436 890 l 0
 387 890 345 847 345 801 c 0xec
 345 762 376 742 410 742 c 0
421 273 m 0xf4
 421 235 450 205 494 205 c 0
 544 205 595 248 595 303 c 0
 595 335 572 373 523 373 c 0
 472 373 421 329 421 273 c 0xf4
EndSplineSet
EndChar
StartChar: uni0E07
Encoding: 3591 3591 130
Width: 1130
Flags: W
HStem: 0 21G<543 944.528> 744 146<656.676 754.685> 1039 176<670.026 874>
VStem: 491 163<893.174 1024.86>
Back
372 960 m 4
 372 1029.33 396.667 1088.67 446 1138 c 0
 495.333 1187.33 554.667 1212 624 1212 c 0
 693.333 1212 752.667 1187.33 802 1138 c 0
 851.333 1088.67 876 1029.33 876 960 c 0
 876 890.667 851.333 831.333 802 782 c 0
 752.667 732.667 693.333 708 624 708 c 0
 554.667 708 495.333 732.667 446 782 c 0
 396.667 831.333 372 890.667 372 960 c 4
548 962 m 4
 548 982.667 555.167 1000.17 569.5 1014.5 c 0
 583.833 1028.83 601.333 1036 622 1036 c 0
 642.667 1036 660.167 1028.83 674.5 1014.5 c 0
 688.833 1000.17 696 982.667 696 962 c 0
 696 941.333 688.833 923.833 674.5 909.5 c 0
 660.167 895.167 642.667 888 622 888 c 0
 601.333 888 583.833 895.167 569.5 909.5 c 0
 555.167 923.833 548 941.333 548 962 c 4
EndSplineSet
Fore
807 977 m 0
 807 1005 786 1039 743 1039 c 0
 688 1039 654 990 654 948 c 0
 654 917 672 890 716 890 c 0
 767 890 807 935 807 977 c 0
1095 921 m 0
 1095 889 1092 856 1086 822 c 2
 941 0 l 25
 574 0 l 1
 512 108 349 381 140 570 c 1
 237 761 l 1
 348 700 579 530 691 371 c 1
 759 752 l 1
 748 747 724 744 689 744 c 0
 576 744 491 824 491 928 c 0
 491 993 540 1215 812 1215 c 0
 936 1215 1095 1177 1095 921 c 0
EndSplineSet
EndChar
StartChar: uni0E08
Encoding: 3592 3592 131
Width: 1360
Flags: W
HStem: 0 21G<852 1166.52> 364 144<492.794 631.375> 657 144<506.953 634.854> 994 240<473.301 897.754>
VStem: 342 147<510.758 643.176>
Fore
623 801 m 0
 879 801 935 563 943 518 c 1
 994 806 l 2
 996 818 997 830 997 841 c 0
 997 969 844 994 713 994 c 0
 457 990 295 892 204 822 c 1
 252 1095 l 1
 381 1166 550 1234 749 1234 c 0
 858 1234 1040 1225 1186 1138 c 0
 1269 1089 1312 1009 1312 897 c 0
 1312 864 1309 828 1302 789 c 10
 1163 0 l 1
 852 0 l 1
 853 214 812 367 730 460 c 1
 702 410 600 364 532 364 c 0
 430 364 342 447 342 541 c 0
 342 661 455 801 620 801 c 0
 623 801 l 0
489 568 m 0
 489 532 518 508 553 508 c 24
 599 508 644 546 644 596 c 0
 644 629 618 657 580 657 c 0
 530 657 489 612 489 568 c 0
EndSplineSet
EndChar
StartChar: uni0E09
Encoding: 3593 3593 132
Width: 1470
Flags: W
HStem: -10 174<1133.4 1270.39> 324 146<328.271 422.647> 619 176<337.337 591> 994 241<560.567 1018.64>
VStem: 160 162<472.211 605.72> 1284 199<179.641 309.991>
Fore
476 556 m 0
 476 586 454 619 412 619 c 0
 357 619 322 570 322 528 c 0
 322 497 341 470 385 470 c 0
 434 470 476 513 476 556 c 0
481 795 m 0
 701 795 756 596 756 488 c 0
 756 470 754 451 751 432 c 2
 729 305 l 1
 811 370 906 425 1015 471 c 1
 1074 806 l 2
 1076 817 1077 827 1077 837 c 0
 1077 877 1062 911 1032 940 c 0
 996 976 918 994 800 994 c 0
 692 994 521 970 264 822 c 1
 312 1095 l 1
 472 1176 664 1235 893 1235 c 0
 1165 1235 1392 1158 1392 891 c 0
 1392 859 1388 825 1382 789 c 2
 1332 507 l 1
 1379 507 1483 430 1483 304 c 0
 1483 208 1419 -10 1162 -10 c 0
 1019 -10 941 55 930 185 c 1
 838 158 753 96 675 0 c 1
 369 0 l 1
 428 332 l 1
 417 327 394 324 359 324 c 2
 358 324 l 2
 226 324 160 426 160 502 c 0
 160 595 224 795 481 795 c 0
1129 223 m 0
 1129 191 1155 164 1193 164 c 24
 1238 164 1284 201 1284 250 c 0
 1284 278 1263 313 1220 313 c 0
 1173 313 1129 270 1129 223 c 0
EndSplineSet
EndChar
StartChar: uni0E0A
Encoding: 3594 3594 133
Width: 1420
Flags: W
HStem: 0 222<613 942.251> 712 136<347.451 485.322> 997 218<397.632 651>
VStem: 199 146<851.809 982.578> 499 151<861.198 987.683> 681 236<802.572 1006.36>
Fore
345 908 m 0
 345 876 366 848 411 848 c 0
 465 848 499 897 499 939 c 0
 499 970 480 997 436 997 c 0
 380 997 345 949 345 908 c 0
587 1215 m 0
 715 1215 917 1160 917 939 c 0
 917 677 681 621 638 361 c 2
 613 222 l 1
 847 222 l 0
 916 222 956 258 968 326 c 2
 1018 608 l 2
 1021 625 1022 641 1022 655 c 0
 1022 717 985 752 918 761 c 1
 968 1042 l 1
 1087 1066 1189 1220 1210 1373 c 1
 1540 1373 l 1
 1488 1062 1285 925 1214 894 c 1
 1289 858 1336 758 1336 668 c 0
 1336 650 1334 632 1331 614 c 2
 1279 320 l 18
 1242 107 1086 0 811 0 c 2
 264 0 l 1
 336 406 l 2
 379 658 681 732 681 922 c 0
 681 959 665 988 633 1009 c 1
 644 991 650 969 650 945 c 0
 650 888 622 835 565 780 c 0
 518 734 459 712 386 712 c 0
 264 712 199 798 199 886 c 0
 199 1062 380 1215 587 1215 c 0
EndSplineSet
EndChar
StartChar: uni0E0B
Encoding: 3595 3595 134
Width: 1580
Flags: W
HStem: 0 222<760 1109.17> 605 136<327.769 464.668> 1195 20G<523 590.989 806.517 909.5>
VStem: 182 143<745.836 874.149> 480 144<754.823 887.961> 825 253<863.963 1003.6>
Fore
840 1215 m 1
 979 1198 1078 1108 1078 962 c 0
 1078 820 947 651 910 606 c 0
 845 530 802 465 785 361 c 2
 760 222 l 1
 1012 222 l 0
 1081 222 1121 258 1133 326 c 2
 1183 608 l 2
 1186 625 1187 641 1187 655 c 0
 1187 722 1152 758 1083 761 c 1
 1134 1052 l 1
 1263 1076 1355 1223 1375 1373 c 1
 1705 1373 l 1
 1653 1062 1450 925 1379 894 c 1
 1454 858 1501 758 1501 668 c 0
 1501 650 1499 632 1496 614 c 2
 1439 290 l 18
 1405 97 1257 0 995 0 c 2
 411 0 l 1
 483 406 l 2
 494 470 528 617 722 763 c 0
 814 832 825 918 825 946 c 0
 825 985 803 1002 771 1008 c 1
 661 970 l 1
 515 1051 l 1
 466 1032 l 1
 561 1018 624 951 624 846 c 0
 624 706 512 605 367 605 c 0
 288 605 182 643 182 793 c 0
 182 859 210 1016 332 1114 c 0
 407 1175 484 1209 562 1215 c 1
 691 1126 l 1
 840 1215 l 1
480 831 m 0
 480 860 459 890 419 890 c 16
 416 890 l 0
 367 890 325 847 325 801 c 0
 325 766 354 741 390 741 c 0
 434 741 480 780 480 831 c 0
EndSplineSet
EndChar
StartChar: uni0E0C
Encoding: 3596 3596 135
Width: 2060
Flags: W
HStem: -20 186<340.5 564.59> -20 206<1035.32 1184.93> 315 148<483.641 575.552> 984 241<612.535 1062.41>
VStem: 579 159<180.044 311.961> 806 225<192.246 333>
Fore
398 -20 m 0xbc
 283 -20 140 57 140 248 c 0
 140 248 141 293 149 337 c 2
 173 468 l 2
 184 535 219 674 398 765 c 1
 240 854 l 1
 279 1074 l 1
 438 1155 638 1225 877 1225 c 0
 1165 1224 1418 1158 1418 892 c 0
 1418 866 1416 840 1411 812 c 2
 1365 547 l 1
 1473 522 1555 462 1612 366 c 1
 1759 1204 l 1
 2063 1204 l 1
 1851 0 l 1
 1541 0 l 1
 1511 121 1462 195 1394 220 c 1
 1379 121 1264 -20 1065 -20 c 0x7c
 944 -20 806 60 806 208 c 0
 806 405 959 501 1055 536 c 1
 1102 796 l 2
 1105 812 1106 826 1106 840 c 0
 1106 955 1016 984 906 984 c 0
 723 984 636 950 601 936 c 1
 739 850 l 1
 714 708 l 1
 527 642 499 561 491 516 c 2
 482 463 l 1
 488 463 500 464 541 464 c 0
 598 464 654 459 702 398 c 0
 726 368 738 329 738 281 c 0
 738 121 612 -20 398 -20 c 0xbc
1205 286 m 0
 1205 323 1175 354 1132 354 c 0
 1070 354 1031 299 1031 252 c 0
 1031 217 1053 186 1104 186 c 0
 1155 186 1205 231 1205 286 c 0
579 255 m 0
 579 288 554 315 516 315 c 24
 473 315 425 280 425 227 c 0
 425 193 450 166 488 166 c 0xbc
 539 166 579 211 579 255 c 0
EndSplineSet
EndChar
StartChar: uni0E0D
Encoding: 3597 3597 136
Width: 1970
Flags: HW
HStem: -461 176<1020.23 1176.81> -172 119<1002.56 1117.03> -11 189<335.705 542.356> 0 221<1225 1506> 994 241<557.258 962.548>
VStem: 558 208<193.359 324.108> 872 124<-283.419 -179.726> 1118 125<-261.218 -173.658>
Fore
1067 -172 m 0xcf
 1034 -172 996 -201 996 -239 c 0
 996 -268 1022 -285 1051 -285 c 0
 1091 -285 1118 -252 1118 -219 c 0
 1118 -189 1094 -172 1067 -172 c 0xcf
1243 -204 m 0
 1243 -220 1236 -266 1228 -274 c 1
 1300 -267 1580 -203 1739 -67 c 1
 1736 -306 l 1
 1539 -438 1210 -461 1125 -461 c 0
 1048 -461 992 -448 958 -420 c 0
 891 -368 872 -330 872 -275 c 0
 872 -110 1011 -53 1089 -53 c 0
 1190 -53 1243 -137 1243 -204 c 0
EndSplineSet
Refer: 256 63247 N 1 0 0 1 0 0 2
Substitution2: "Single Substitution lookup 11" uni0E0D.descless
Substitution2: "Single Substitution lookup 10" uni0E0D.descless
EndChar
StartChar: uni0E0E
Encoding: 3598 3598 137
Width: 1560
Flags: HW
HStem: -532 193<472.24 610.531> -196 195<483.498 646.758> -10 179<288.969 420.543> 984 241<874.886 1121.18>
VStem: 105 181<173.321 304.454> 246 216<-338.037 -218.684>
AnchorPoint: "BelowBase" 1247.73 -580 basechar 0
Fore
286 230 m 0xb8
 286 202 306 169 350 169 c 0
 406 169 438 216 438 258 c 0
 438 290 419 318 375 318 c 0
 324 318 286 272 286 230 c 0xb8
482 -532 m 0
 341 -532 246 -437 246 -327 c 0
 246 -119 453 -1 628 -1 c 0
 673 -1 716 -10 758 -29 c 1
 786 62 l 1
 978 -1 l 1xd4
 917 -127 l 1
 954 -156 982 -186 1003 -217 c 1
 1180 795 l 2
 1182 807 1183 818 1183 829 c 0
 1183 953 1046 984 926 984 c 0
 846 984 779 969 715 937 c 1
 917 836 l 1
 884 644 l 1
 806 619 749 555 736 478 c 2
 708 320 l 2
 691 221 634 -10 338 -10 c 0
 205 -10 105 50 105 181 c 0
 105 360 242 484 379 493 c 2
 425 496 l 1
 451 636 493 695 581 734 c 1
 379 811 l 1
 428 1088 l 1
 758 1225 956 1225 1016 1225 c 0
 1238 1225 1349 1172 1410 1128 c 0
 1478 1079 1512 1004 1512 904 c 0
 1512 875 1509 844 1503 811 c 2
 1269 -520 l 1
 940 -520 l 1
 911 -457 873 -403 825 -358 c 1
 754 -472 637 -532 482 -532 c 0
462 -291 m 0
 462 -329 491 -339 511 -339 c 0
 573 -339 632 -290 666 -220 c 1
 638 -204 610 -196 581 -196 c 0
 529 -196 462 -230 462 -291 c 0
EndSplineSet
EndChar
StartChar: uni0E0F
Encoding: 3599 3599 138
Width: 1550
Flags: HW
HStem: -523 177<248.978 389.885> -241 162<247.014 387.955> -12 181<288.526 410.053> 985 240<724.051 1116.15>
VStem: 106 180<173.634 304.916>
AnchorPoint: "BelowBase" 1247.73 -580 basechar 0
Fore
286 230 m 0
 286 202 306 169 350 169 c 0
 406 169 438 216 438 258 c 0
 438 290 419 318 375 318 c 0
 324 318 286 272 286 230 c 0
1016 1225 m 0
 1283 1225 1510 1160 1510 899 c 0
 1510 871 1507 842 1502 811 c 2
 1267 -520 l 1
 930 -520 l 1
 854 -418 l 1
 760 -508 l 1
 661 -508 l 1
 561 -388 l 1
 479 -462 403 -506 266 -523 c 1
 147 -520 29 -449 29 -337 c 0
 29 -250 121 -79 362 -79 c 0
 386 -79 468 -84 521 -119 c 1
 618 9 l 1
 843 -76 l 1
 695 -232 l 1
 746 -265 l 1
 846 -175 l 1
 924 -175 l 1
 995 -254 l 1
 1180 795 l 2
 1182 808 1183 820 1183 831 c 0
 1183 955 1037 985 923 985 c 0
 840 985 771 965 715 937 c 1
 917 836 l 1
 884 644 l 1
 806 619 749 555 736 478 c 2
 708 320 l 2
 655 11 394 -12 326 -12 c 0
 189 -12 106 91 106 195 c 0
 106 293 179 480 379 493 c 2
 425 496 l 1
 451 636 493 695 581 734 c 1
 379 811 l 1
 428 1088 l 1
 639 1192 838 1225 1016 1225 c 0
238 -308 m 0
 238 -338 266 -346 295 -346 c 0
 368 -346 400 -293 416 -265 c 1
 388 -249 361 -241 334 -241 c 0
 277 -241 238 -270 238 -308 c 0
EndSplineSet
EndChar
StartChar: uni0E10
Encoding: 3600 3600 139
Width: 1250
Flags: HW
HStem: -617 143<177.489 288.837> -394 130<171.549 290.1> -361 103<678.089 738.5> -156 111<681.013 826.5> 0 21<677.336 986.571> 205 144<379.674 518.055> 498 144<392.688 527.835> 984 241<621.002 1073.81>
VStem: 28 142<-502 -395.569> 229 148<351.706 482.916> 561 117<-247.656 -158.752>
Fore
561 -238 m 0xbfe0
 561 -112 669 -45 785 -45 c 0
 868 -45 980 -83 980 -235 c 0
 980 -261 977 -289 971 -321 c 2
 920 -615 l 1
 658 -615 l 1
 597 -528 l 1
 525 -610 l 1
 453 -610 l 1
 389 -518 l 1
 345 -584 277 -617 185 -617 c 0
 54 -617 28 -527 28 -477 c 0
 28 -353 154 -264 257 -264 c 0xdfe0
 285 -264 315 -265 368 -308 c 1
 411 -231 l 1
 518 -338 l 1
 468 -408 l 1
 517 -458 l 1
 588 -385 l 1
 647 -385 l 1
 691 -456 l 1
 708 -360 l 1
 702 -361 696 -361 690 -361 c 0
 627 -361 561 -316 561 -238 c 0xbfe0
782 -197 m 0
 782 -174 764 -156 740 -156 c 16
 701 -156 678 -189 678 -217 c 0
 678 -239 691 -258 721 -258 c 0xbfe0
 756 -258 782 -222 782 -197 c 0
291 -428 m 1
 264 -404 256 -394 225 -394 c 0xdfe0
 189 -394 171 -419 170 -442 c 0
 171 -463 182 -474 204 -474 c 0
 256 -474 270 -446 291 -428 c 1
EndSplineSet
Refer: 241 63232 N 1 0 0 1 0 0 2
Substitution2: "Single Substitution lookup 11" uni0E10.descless
Substitution2: "Single Substitution lookup 10" uni0E10.descless
EndChar
StartChar: uni0E11
Encoding: 3601 3601 140
Width: 1820
Flags: W
HStem: 0 21G<432 828.5 1319 1632.53> 605 137<348.63 486.001> 836 387<1379.65 1661>
VStem: 203 143<746.139 873.979> 501 144<754.596 888.081> 846 253<863.963 1003.6>
Fore
411 742 m 0
 463 742 501 785 501 829 c 0
 501 864 476 890 440 890 c 0
 382 890 346 840 346 802 c 0
 346 763 377 742 411 742 c 0
1549 1223 m 0
 1773 1223 1802 1085 1802 1010 c 0
 1802 991 1801 972 1797 951 c 2
 1629 0 l 1
 1319 0 l 1
 1457 784 l 2
 1458 789 1458 793 1458 797 c 0
 1458 824 1438 836 1414 836 c 0
 1397 836 1363 810 1353 784 c 0
 1242 521 910 149 747 0 c 1
 432 0 l 1
 504 406 l 2
 515 470 549 617 743 763 c 0
 835 832 846 918 846 946 c 0
 846 985 824 1002 792 1008 c 1
 682 970 l 1
 536 1051 l 1
 487 1032 l 1
 582 1018 645 951 645 846 c 0
 645 706 533 605 388 605 c 0
 309 605 203 643 203 793 c 0
 203 859 231 1016 352 1114 c 0
 428 1175 505 1209 583 1215 c 1
 712 1126 l 1
 861 1215 l 1
 1000 1198 1099 1108 1099 962 c 0
 1099 820 968 651 930 606 c 0
 866 530 823 465 806 361 c 2
 802 340 l 1
 829 360 887 430 976 549 c 0
 1065 668 1147 820 1223 1003 c 0
 1243 1051 1282 1100 1338 1149 c 0
 1396 1198 1465 1223 1549 1223 c 0
EndSplineSet
EndChar
StartChar: uni0E12
Encoding: 3602 3602 141
Width: 2230
Flags: W
HStem: -21 191<1231.22 1381.74> 702 140<818.14 968.156> 1203 20<734.5 819.348 1225.26 1385 1939.48 5003>
VStem: 654 147<543.856 683.03> 973 157<559.227 696.614> 1016 212<176.898 316.763>
Fore
1402 268 m 0xf4
 1402 300 1379 338 1330 338 c 0
 1268 338 1228 283 1228 236 c 0
 1228 201 1250 170 1301 170 c 0
 1357 170 1402 220 1402 268 c 0xf4
901 702 m 0
 839 702 801 650 801 604 c 0
 801 570 823 539 874 539 c 0
 936 539 973 591 973 636 c 0xf8
 973 671 951 702 901 702 c 0
1261 1223 m 1
 1509 1217 1614 1036 1614 851 c 0
 1614 818 1610 783 1604 746 c 2
 1562 512 l 1
 1649 492 1724 427 1787 318 c 1
 1943 1205 l 1
 2249 1203 l 1
 2037 0 l 1
 1726 0 l 1
 1691 107 1645 176 1587 209 c 1
 1575 133 1458 -21 1279 -21 c 0
 1129 -21 1016 48 1016 193 c 0
 1016 386 1174 488 1255 515 c 1
 1294 730 l 2
 1301 770 1305 806 1305 836 c 0
 1305 917 1271 980 1228 994 c 1xf4
 1055 898 l 1
 918 898 l 1
 767 993 l 1
 597 899 573 770 565 689 c 2
 531 339 l 1
 638 362 711 394 750 437 c 1
 670 477 654 530 654 580 c 0
 654 697 745 842 923 842 c 0
 1027 842 1130 789 1130 674 c 0
 1130 503 946 281 495 0 c 1
 187 0 l 1
 260 710 l 2
 276 866 341 989 456 1078 c 0
 571 1168 681 1216 788 1223 c 1
 1009 1082 l 1
 1261 1223 l 1
EndSplineSet
EndChar
StartChar: uni0E13
Encoding: 3603 3603 142
Width: 2060
Flags: W
HStem: -24 202<1633.37 1769.01> -18 203<327.325 569.173> 985 240<580.786 980.956>
VStem: 584 208<199.727 329.604> 1786 218<194.32 324.281>
Fore
1786 266 m 0xb8
 1786 296 1764 327 1722 327 c 0
 1666 327 1632 278 1632 237 c 0
 1632 205 1651 178 1694 178 c 0
 1745 178 1786 224 1786 266 c 0xb8
1648 -24 m 0
 1489 -24 1410 67 1410 174 c 0
 1410 182 1410 191 1411 199 c 1
 1370 181 1303 115 1209 0 c 1
 900 0 l 1
 1040 796 l 2
 1042 807 1043 817 1043 827 c 0
 1043 866 1029 900 1001 930 c 0
 966 967 896 985 792 985 c 0
 786 985 l 0
 685 985 636 968 575 938 c 1
 761 847 l 1
 727 651 l 1
 620 629 555 583 533 512 c 1
 589 509 l 2
 694 503 792 428 792 305 c 0
 792 124 629 -18 441 -18 c 256x78
 222 -18 180 153 180 236 c 0
 180 267 182 300 188 336 c 2
 211 465 l 2
 229 568 302 680 412 735 c 1
 239 812 l 1
 288 1088 l 1
 579 1200 758 1225 876 1225 c 0
 1129 1225 1362 1158 1362 906 c 0
 1362 876 1359 845 1353 812 c 2
 1271 345 l 1
 1366 429 1465 479 1568 495 c 1
 1693 1203 l 1
 2003 1203 l 1
 1880 501 l 1
 1938 489 2004 405 2004 311 c 0
 2004 212 1933 -24 1648 -24 c 0
584 274 m 0
 584 307 559 334 521 334 c 24
 476 334 430 297 430 248 c 0
 430 215 456 185 494 185 c 0
 539 185 584 225 584 274 c 0
EndSplineSet
EndChar
StartChar: uni0E14
Encoding: 3604 3604 143
Width: 1600
Flags: W
HStem: 0 21G<-4795 1428.54> 666 145<817.305 952.415> 984 240<828.616 1177.11>
VStem: 655 146<520.875 651.55> 955 151<530.819 662.063>
Fore
929 811 m 0
 1029 811 1106 715 1106 628 c 0
 1106 554 1057 394 890 261 c 0
 757 155 621 68 482 0 c 1
 171 0 l 1
 279 732 l 2
 304 897 383 1020 518 1100 c 0
 694 1205 890 1224 1039 1224 c 0
 1252 1224 1396 1175 1471 1078 c 0
 1531 999 1562 912 1562 815 c 0
 1562 787 1559 759 1554 729 c 2
 1425 0 l 1
 1114 1 l 1
 1244 738 l 2
 1246 749 1247 760 1247 772 c 0
 1247 811 1235 853 1212 898 c 0
 1183 956 1109 984 989 984 c 0
 901 984 778 971 700 897 c 0
 641 840 607 786 600 735 c 2
 531 264 l 1
 605 283 683 329 765 402 c 1
 722 413 655 463 655 555 c 0
 655 702 799 811 929 811 c 0
801 577 m 0
 801 544 826 517 864 517 c 24
 908 517 955 554 955 605 c 0
 955 639 930 666 891 666 c 0
 841 666 801 621 801 577 c 0
EndSplineSet
EndChar
StartChar: uni0E15
Encoding: 3605 3605 144
Width: 1600
Flags: W
HStem: 0 21G<-4795 1428.52> 636 135<809.896 947.055> 1193 20G<720.5 802.919 1230.14 1408>
VStem: 660 136<490.41 622.938> 950 150<502.118 632.759>
Fore
1100 596 m 0
 1100 477 1001 248 481 0 c 1
 171 0 l 1
 281 742 l 2
 305 905 364 1021 460 1088 c 0
 554 1156 661 1198 780 1213 c 1
 992 1028 l 1
 1259 1213 l 1
 1557 1138 1567 952 1567 864 c 0
 1567 826 1563 784 1555 739 c 2
 1425 0 l 1
 1114 1 l 1
 1246 748 l 2
 1255 799 1259 839 1259 870 c 0
 1259 947 1215 962 1200 965 c 1
 1048 854 l 1
 859 854 l 1
 742 966 l 1
 641 911 616 849 600 745 c 2
 534 302 l 1
 612 313 687 343 759 392 c 1
 729 401 660 447 660 532 c 0
 660 660 782 771 923 771 c 0
 1026 771 1100 681 1100 596 c 0
796 545 m 0
 796 513 822 487 859 487 c 24
 906 487 950 528 950 573 c 0
 950 608 926 636 886 636 c 0
 836 636 796 594 796 545 c 0
EndSplineSet
EndChar
StartChar: uni0E16
Encoding: 3606 3606 145
Width: 1430
Flags: W
HStem: -11 195<379 568.805> 986 238<662.187 1010.7>
VStem: 583 208<199.167 330.728>
Fore
791 294 m 0
 791 170 689 -11 428 -11 c 0
 330 -6 177 38 177 232 c 0
 177 260 180 291 185 325 c 2
 210 466 l 2
 231 578 330 685 431 736 c 1
 238 813 l 1
 288 1090 l 1
 619 1215 753 1224 887 1224 c 0
 993 1224 1152 1216 1276 1132 c 0
 1352 1082 1389 1001 1389 890 c 0
 1389 866 1387 840 1383 813 c 2
 1239 1 l 1
 929 1 l 1
 1071 797 l 2
 1073 808 1074 819 1074 829 c 0
 1074 967 899 986 817 986 c 0
 805 986 660 982 575 939 c 1
 761 848 l 1
 726 652 l 1
 582 606 551 559 532 511 c 1
 588 508 l 2
 739 508 791 375 791 294 c 0
583 273 m 0
 583 306 558 333 520 333 c 24
 477 333 428 298 428 245 c 0
 428 211 452 184 492 184 c 0
 542 184 583 228 583 273 c 0
EndSplineSet
EndChar
StartChar: uni0E17
Encoding: 3607 3607 146
Width: 1690
Flags: W
HStem: 0 21G<335 687.658 1202 1515.53> 745 146<355.907 453.687> 901 313<1224.35 1530.5> 1040 175<367.699 586>
VStem: 204 149<893.239 1000.88>
Fore
521 1215 m 0xd8
 651 1215 806 1160 806 938 c 0
 806 900 802 859 794 813 c 2
 733 467 l 1
 1037 993 l 2
 1071 1051 1188 1214 1415 1214 c 0
 1646 1214 1684 1086 1684 1001 c 0
 1684 982 1682 962 1678 941 c 2
 1512 0 l 1
 1202 0 l 1
 1350 839 l 2
 1357 878 1318 901 1289 901 c 0xe8
 1254 901 1221 863 1206 839 c 2
 675 0 l 1
 335 0 l 1
 469 759 l 1
 447 750 421 745 390 745 c 0
 303 745 204 813 204 923 c 0
 204 944 207 1045 302 1140 c 0
 360 1198 438 1215 521 1215 c 0xd8
353 951 m 0
 353 918 378 891 416 891 c 24
 459 891 507 926 507 979 c 0
 507 1013 481 1040 443 1040 c 0xd8
 393 1040 353 995 353 951 c 0
EndSplineSet
EndChar
StartChar: uni0E18
Encoding: 3608 3608 147
Width: 1330
Flags: HW
HStem: 0 158<543 828> 984 241<630.23 1113.75>
Fore
1160 848 m 1
 1144 951 1084 984 906 984 c 0
 747 984 670 960 618 938 c 1
 1108 798 l 2
 1181 777 1217 717 1217 618 c 0
 1217 589 1214 557 1208 521 c 2
 1116 0 l 1
 204 0 l 1
 314 622 l 1
 625 622 l 1
 543 158 l 1
 828 158 l 1
 894 520 l 2
 895 527 896 534 896 541 c 0
 896 596 851 635 763 656 c 2
 275 772 l 1
 329 1078 l 1
 587 1179 742 1225 944 1225 c 0
 1043.24 1225 1265.51 1219.7 1389 1112 c 1
 1160 848 l 1
EndSplineSet
EndChar
StartChar: uni0E19
Encoding: 3609 3609 148
Width: 1580
Flags: W
HStem: -23 196<1202.67 1334.45> 751 146<357.072 442.628> 1046 175<371.365 593.5>
VStem: 205 150<899.158 1005.81> 1351 218<189.157 317.976>
Fore
509 984 m 0
 509 1015 486 1046 444 1046 c 0
 389 1046 355 997 355 956 c 0
 355 924 374 897 417 897 c 0
 469 897 509 942 509 984 c 0
1351 261 m 0
 1351 292 1329 322 1287 322 c 0
 1231 322 1197 274 1197 232 c 0
 1197 201 1216 173 1260 173 c 0
 1312 173 1351 218 1351 261 c 0
1225 -23 m 0
 1027 -23 994 121 994 182 c 0
 994 188 995 193 995 199 c 1
 898 178 782 111 648 -1 c 1
 337 -1 l 1
 471 765 l 17
 445 756 418 751 391 751 c 2
 390 751 l 2
 303 751 205 820 205 929 c 0
 205 975.502 235.441 1221 534 1221 c 0
 653 1221 807 1166 807 945 c 0
 807 907 803 865 795 819 c 2
 705 304 l 1
 818 409 960 470 1132 485 c 1
 1259 1206 l 1
 1571 1206 l 1
 1445 491 l 1
 1465 488 1569 419 1569 306 c 0
 1569 191 1474 -23 1225 -23 c 0
EndSplineSet
EndChar
StartChar: uni0E1A
Encoding: 3610 3610 149
Width: 1600
Flags: W
HStem: 0 222<690 1153> 744 146<356.827 460.038> 1039 176<370.058 590.5>
VStem: 204 150<893.687 1024.8>
Fore
507 977 m 0
 507 1005 486 1039 443 1039 c 0
 388 1039 354 990 354 948 c 0
 354 917 372 890 416 890 c 0
 467 890 507 935 507 977 c 0
522 1215 m 0
 659 1215 808 1161 808 944 c 0
 808 907 804 867 796 822 c 2
 690 222 l 1
 1153 222 l 1
 1326 1205 l 1
 1640 1205 l 1
 1428 0 l 1
 337 0 l 1
 469 755 l 1
 454 748 428 744 390 744 c 0
 292 744 204 802 204 930 c 0
 204 978 246 1215 522 1215 c 0
EndSplineSet
EndChar
StartChar: uni0E1B
Encoding: 3611 3611 150
Width: 1600
Flags: HW
HStem: 0 222<690 1153> 754 146<359.39 458.292> 1049 175<371.415 581.5>
VStem: 204 152<901.573 1033.7>
AnchorPoint: "AboveBase" 1212.4 1284 basechar 0
Fore
509 987 m 0
 509 1016 488 1049 445 1049 c 0
 390 1049 356 1000 356 958 c 0
 356 927 374 900 418 900 c 0
 469 900 509 945 509 987 c 0
515 1224 m 0
 648 1224 808 1167 808 938 c 0
 808 902 803 864 796 822 c 2
 690 222 l 1
 1153 222 l 1
 1403 1641 l 1
 1717 1641 l 1
 1428 0 l 1
 337 0 l 1
 470 768 l 1
 458 760 434 754 391 754 c 0
 283 754 204 850 204 918 c 0
 204 1042 294 1224 515 1224 c 0
EndSplineSet
EndChar
StartChar: uni0E1C
Encoding: 3612 3612 151
Width: 1580
Flags: W
HStem: 0 21G<172 521.852 1045.62 1388.53> 748 146<688.905 828.084> 1042 175<706.498 838.484>
VStem: 841 151<908.824 1039.1>
Fore
686 953 m 0
 686 926 709 894 752 894 c 16
 803 894 841 939 841 980 c 0
 841 1011 818 1042 777 1042 c 0
 732 1042 686 996 686 953 c 0
992 1028 m 0
 992 854 850 748 716 748 c 0
 666 748 634 753 622 762 c 9
 550 352 l 1
 807 652 l 1
 981 652 l 1
 1133 336 l 1
 1287 1206 l 1
 1598 1206 l 1
 1385 0 l 1
 1056 0 l 1
 853 391 l 1
 504 0 l 1
 172 0 l 1
 319 836 l 2
 340 955 407 1217 759 1217 c 0
 951 1217 992 1103 992 1028 c 0
EndSplineSet
EndChar
StartChar: uni0E1D
Encoding: 3613 3613 152
Width: 1580
Flags: HW
HStem: 0 21G<172 521.852 1045.62 1388.53> 748 146<688.905 828.084> 1042 175<706.498 838.484>
VStem: 841 151<908.824 1039.1>
AnchorPoint: "AboveBase" 1186.4 1284 basechar 0
Fore
686 953 m 0
 686 926 709 894 752 894 c 16
 803 894 841 939 841 980 c 0
 841 1011 818 1042 777 1042 c 0
 732 1042 686 996 686 953 c 0
992 1028 m 0
 992 854 850 748 716 748 c 0
 666 748 634 753 622 762 c 9
 550 352 l 1
 807 652 l 1
 981 652 l 1
 1133 336 l 1
 1363 1638 l 1
 1674 1638 l 1
 1385 0 l 1
 1056 0 l 1
 853 391 l 1
 504 0 l 1
 172 0 l 1
 319 836 l 2
 340 955 407 1217 759 1217 c 0
 951 1217 992 1103 992 1028 c 0
EndSplineSet
EndChar
StartChar: uni0E1E
Encoding: 3614 3614 153
Width: 1700
Flags: W
HStem: 0 21G<338 665.156 1216.38 1534.52> 753 146<358.26 456.211> 1048 176<371.537 596>
VStem: 206 150<902.831 1031.7>
Fore
811 950 m 0
 811 912 806 869 798 821 c 2
 742 505 l 1
 1042 1064 l 1
 1201 1064 l 1
 1309 500 l 1
 1433 1205 l 1
 1743 1205 l 1
 1531 0 l 1
 1222 0 l 1
 1042 640 l 25
 653 0 l 1
 338 0 l 1
 472 767 l 1
 449 758 423 753 393 753 c 0
 285 753 206 849 206 917 c 0
 206 1009 260 1224 530 1224 c 0
 662 1224 811 1169 811 950 c 0
356 959 m 0
 356 926 382 899 420 899 c 24
 465 899 510 936 510 987 c 0
 510 1021 487 1048 447 1048 c 0
 393 1048 356 1000 356 959 c 0
EndSplineSet
EndChar
StartChar: uni0E1F
Encoding: 3615 3615 154
Width: 1700
Flags: HW
HStem: 0 21G<338 665.156 1216.38 1534.53> 753 146<358.26 455.843> 1048 176<371.537 596>
VStem: 206 150<902.831 1031.7>
AnchorPoint: "AboveBase" 1329.4 1284 basechar 0
Fore
811 950 m 0
 811 912 806 869 798 821 c 2
 742 505 l 1
 1042 1064 l 1
 1201 1064 l 1
 1309 500 l 1
 1510 1639 l 1
 1820 1639 l 1
 1531 0 l 1
 1222 0 l 1
 1042 640 l 25
 653 0 l 1
 338 0 l 1
 472 767 l 1
 443 756 415 753 393 753 c 0
 285 753 206 849 206 917 c 0
 206 1009 260 1224 530 1224 c 0
 662 1224 811 1169 811 950 c 0
356 959 m 0
 356 926 382 899 420 899 c 24
 465 899 510 936 510 987 c 0
 510 1021 487 1048 447 1048 c 0
 393 1048 356 1000 356 959 c 0
EndSplineSet
EndChar
StartChar: uni0E20
Encoding: 3616 3616 155
Width: 1550
Flags: W
HStem: -13 192<290.698 426.408> 986 237<904.886 1112.92>
VStem: 95 193<143.866 311.736>
Fore
443 268 m 0
 443 297 419 328 378 328 c 16
 328 328 288 282 288 240 c 0
 288 212 311 179 353 179 c 0
 399 179 443 225 443 268 c 0
335 -13 m 0
 135 -13 95 106 95 185 c 0
 95 350 221 493 382 503 c 2
 428 506 l 1
 448 620 496 696 572 735 c 1
 380 812 l 1
 430 1088 l 1
 629 1208 989 1223 1022 1223 c 0
 1221 1223 1357 1183 1428 1104 c 0
 1484 1042 1512 969 1512 886 c 0
 1512 862 1510 838 1505 812 c 2
 1362 0 l 1
 1053 0 l 1
 1192 796 l 2
 1193 801 1193 806 1193 812 c 0
 1193 847 1152 984 966 986 c 0
 941 986 804 981 716 938 c 1
 919 837 l 1
 883 635 l 1
 817 616 747 533 737 479 c 2
 704 290 l 2
 663 59 458 -13 335 -13 c 0
EndSplineSet
EndChar
StartChar: uni0E21
Encoding: 3617 3617 156
Width: 1560
Flags: W
HStem: -11 207<367.854 516.627> 364 215<382.394 503> 752 146<423.503 511.603> 1047 178<433.988 678>
VStem: 144 217<201.141 341.876> 271 149<902.049 1032.43>
Fore
574 986 m 0xf4
 574 1017 550 1047 510 1047 c 0
 454 1047 420 998 420 957 c 0
 420 925 439 898 482 898 c 0
 535 898 574 944 574 986 c 0xf4
271 930 m 0
 271 1030 350 1225 579 1225 c 0
 777 1225 876 1131 876 943 c 0
 876 906 872 865 864 820 c 2
 814 541 l 1
 934 504 1040 443 1132 356 c 1
 1281 1204 l 1
 1587 1203 l 1
 1375 0 l 1
 1064 0 l 1
 999 212 846 269 771 296 c 1
 766 266 l 2
 740 116 589 -11 398 -11 c 0
 194 -11 144 120 144 215 c 0xf8
 144 486 402 579 503 579 c 1
 536 766 l 1
 518 757 487 752 444 752 c 2
 443 752 l 2
 377 752 271 816 271 930 c 0
361 264 m 0
 361 233 384 196 435 196 c 0
 485 196 535 240 535 294 c 0
 535 326 512 364 463 364 c 0
 412 364 361 320 361 264 c 0
EndSplineSet
EndChar
StartChar: uni0E22
Encoding: 3618 3618 157
Width: 1470
Flags: HW
HStem: 0 222<501 999> 447 200<624.852 803> 749 149<633.99 770.042> 1048 175<646.391 782.018>
VStem: 274 357<733.722 984.552> 785 149<911.606 1042.94>
Fore
631 959 m 0
 631 929 655 898 696 898 c 16
 746 898 785 942 785 985 c 0
 785 1020 760 1048 722 1048 c 0
 675 1048 631 1001 631 959 c 0
695 1223 m 0
 824 1223 934 1182 934 1018 c 0
 934 853 787 749 642 749 c 0
 602 749 561 771 543 789 c 1
 543 780 l 0
 543 696 716 647 820 647 c 0
 838 647 l 1
 803 447 l 1
 774 447 l 2
 592 447 528 374 501 222 c 1
 999 222 l 1
 1172 1205 l 1
 1487 1205 l 1
 1275 0 l 1
 153 0 l 1
 195 237 l 2
 231 439 372 529 475 540 c 1
 383 571 274 643 274 797 c 0
 274 922 318 1012 411 1110 c 0
 483 1185 577 1223 695 1223 c 0
EndSplineSet
EndChar
StartChar: uni0E23
Encoding: 3619 3619 158
Width: 1190
Flags: W
HStem: -12 191<624.297 759.895> 328 175<632.982 773.688> 984 241<621.648 1073.9>
VStem: 422 199<182.832 313.97>
Fore
675 -12 m 0
 515 -12 422 70 422 202 c 0
 422 372 571 497 725 503 c 2
 781 505 l 1
 789 550 l 2
 790 556 791 563 791 569 c 0
 791 625 747 664 658 686 c 2
 277 782 l 1
 331 1088 l 1
 435 1128 693 1225 934 1225 c 0
 1133 1225 1272 1191 1351 1122 c 1
 1121 858 l 1
 1112 959 997 984 896 984 c 0
 729 984 649 951 618 938 c 1
 1003 828 l 2
 1077 807 1113 745 1113 644 c 0
 1113 616 1109 585 1103 551 c 2
 1064 330 l 2
 1024 97 830 -12 675 -12 c 0
776 267 m 0
 776 300 749 328 711 328 c 24
 666 328 621 291 621 241 c 0
 621 208 647 179 686 179 c 0
 738 179 776 227 776 267 c 0
EndSplineSet
EndChar
StartChar: uni0E24
Encoding: 3620 3620 159
Width: 1410
Flags: W
HStem: -11 196<308 549.785> 985 238<640.326 969.086>
VStem: 564 206<202.208 330.645>
Fore
409 -11 m 0
 207 -11 156 127 156 231 c 0
 156 254 158 279 163 306 c 2
 189 455 l 2
 208 559 300 680 412 735 c 1
 219 812 l 1
 268 1088 l 1
 497 1189 728 1223 892 1223 c 0
 1049 1223 1173 1195 1264 1138 c 0
 1335 1094 1373 1021 1373 920 c 0
 1373 887 1370 851 1363 812 c 2
 1148 -410 l 1
 839 -410 l 1
 1050 796 l 2
 1051 802 1052 807 1052 813 c 0
 1052 848 1014 985 797 985 c 0
 785 985 640 981 555 938 c 1
 741 847 l 1
 709 661 l 1
 549 607 525 550 513 512 c 1
 569 509 l 2
 739 500 770 360 770 294 c 0
 770 111 606 -11 409 -11 c 0
564 274 m 0
 564 307 539 334 501 334 c 24
 456 334 410 297 410 248 c 0
 410 220 431 185 474 185 c 0
 519 185 564 225 564 274 c 0
EndSplineSet
EndChar
StartChar: uni0E25
Encoding: 3621 3621 160
Width: 1460
Flags: W
HStem: -12 180<322.5 581.07> 606 254<545.004 769.728> 979 242<593.461 964.943>
VStem: 595 197<183.468 314.975>
Fore
442 231 m 0
 442 197 467 168 506 168 c 0
 560 168 595 218 595 259 c 0
 595 290 576 317 533 317 c 0
 481 317 442 273 442 231 c 0
649 860 m 0
 857 860 998 732 1069 588 c 1
 1090 716 l 2
 1094 742 1097 765 1097 787 c 0
 1097 848 1077 893 1038 920 c 0
 961 975 840 979 791 979 c 0
 504 979 373 866 339 836 c 1
 340 1082 l 1
 542 1179 742 1221 915 1221 c 0
 1062 1221 1188 1188 1292 1122 c 0
 1378 1067 1420 983 1420 869 c 0
 1420 838 1417 805 1411 770 c 2
 1275 -1 l 1
 966 -1 l 1
 916 391 835 606 638 606 c 0
 564 606 527 560 514 485 c 1
 579 483 l 2
 755 477 792 351 792 277 c 0
 792 104 649 -12 435 -12 c 0
 210 -12 174 170 174 229 c 0
 174 257 175 287 180 319 c 2
 210 494 l 2
 246 703 447 860 649 860 c 0
EndSplineSet
EndChar
StartChar: uni0E26
Encoding: 3622 3622 161
Width: 1570
Flags: W
HStem: -12 191<291.205 425.279> 983 240<788.843 1152.36>
VStem: 89 199<182.082 314.182>
Fore
443 268 m 0
 443 297 419 328 378 328 c 16
 328 328 288 282 288 240 c 0
 288 212 311 179 353 179 c 0
 399 179 443 225 443 268 c 0
89 201 m 0
 89 347 211 492 382 503 c 2
 428 506 l 1
 459 677 538 718 572 735 c 1
 380 812 l 1
 430 1088 l 1
 744 1210 864 1223 1018 1223 c 0
 1179 1223 1307 1190 1402 1126 c 0
 1476 1074 1513 998 1513 898 c 0
 1513 871 1510 842 1505 812 c 2
 1290 -410 l 1
 981 -410 l 1
 1192 796 l 2
 1195 811 1196 826 1196 839 c 0
 1196 957 1088 983 964 983 c 0
 864 983 782 971 716 938 c 1
 919 837 l 1
 883 635 l 1
 817 616 747 533 737 479 c 2
 704 290 l 2
 661 49 432 -12 339 -12 c 0
 124.88 -12 89 126.345 89 201 c 0
EndSplineSet
EndChar
StartChar: uni0E27
Encoding: 3623 3623 162
Width: 1270
Flags: W
HStem: -11 196<706.006 840.875> 334 185<716.38 851.286> 981 240<424.768 839.027>
VStem: 511 190<188.655 294.593>
Fore
701 247 m 0
 701 218 722 185 765 185 c 0
 821 185 853 232 853 274 c 0
 853 306 834 334 790 334 c 0
 740 334 701 289 701 247 c 0
750 -11 m 0
 562 -8 511 122 511 201 c 0
 511 257 517 341 626 437 c 0
 688 492 755 519 826 519 c 2
 865 517 l 1
 900 717 l 2
 904 738 906 759 906 778 c 0
 906 940 799 981 654 981 c 0
 465 981 319 936 229 837 c 1
 229 1083 l 1
 354 1160 509 1221 696 1221 c 0
 800.186 1221 982.69 1211.14 1116 1120 c 0
 1193 1067 1231 985 1231 874 c 0
 1231 842 1228 808 1221 771 c 2
 1141 316 l 2
 1104 105 952 -11 750 -11 c 0
EndSplineSet
EndChar
StartChar: uni0E28
Encoding: 3624 3624 163
Width: 1580
Flags: W
HStem: 0 21G<-4833 1390.54> 390 127<806.168 943.446> 666 139<817.958 954.511> 984 239<759.742 1133.71>
VStem: 957 146<530.587 662.269>
Fore
700 453 m 1
 540 248 508 139 484 0 c 1
 173 0 l 1
 281 732 l 2
 300 861 371 975 493 1073 c 0
 648 1197 852 1223 1009 1223 c 0
 1169 1223 1282 1197 1348 1144 c 1
 1467 1278 l 1
 1661 1129 l 1
 1489 985 l 1
 1512 935 1524 880 1524 820 c 0
 1524 791 1521 760 1516 729 c 2
 1387 0 l 1
 1076 1 l 1
 1206 738 l 2
 1209 754 1211 770 1213 786 c 1
 1143 744 l 1
 1005 828 l 1
 1142 930 l 1
 1119 966 1060 984 963 984 c 0
 673 982 613 797 602 735 c 2
 573 577 l 1
 635 682 761 805 916 805 c 0
 1021 805 1103 722 1103 626 c 0
 1103 488 960 390 852 390 c 0
 780 390 727 412 700 453 c 1
803 577 m 0
 803 544 828 517 866 517 c 24
 910 517 957 554 957 605 c 0
 957 639 932 666 893 666 c 0
 843 666 803 621 803 577 c 0
EndSplineSet
EndChar
StartChar: uni0E29
Encoding: 3625 3625 164
Width: 1620
Flags: W
HStem: 0 222<690 1153> 410 175<965.221 1186> 699 119<966.505 1082.36> 744 146<356.827 460.038> 1039 176<370.058 590.5>
VStem: 204 150<893.687 1024.8> 838 122<586.594 690.782> 1083 142<624.378 698.095>
Fore
507 977 m 0xdf
 507 1005 486 1039 443 1039 c 0
 388 1039 354 990 354 948 c 0
 354 917 372 890 416 890 c 0
 467 890 507 935 507 977 c 0xdf
1058 818 m 0xef
 1128 818 1225 784 1225 645 c 0
 1225 638 1224 631 1224 624 c 9
 1326 1205 l 1
 1640 1205 l 1
 1548 682 l 17
 1597 711 1642 751 1683 801 c 1
 1678 552 l 1
 1631 516 1575 487 1510 466 c 9
 1428 0 l 1
 337 0 l 1
 469 755 l 1
 454 748 428 744 390 744 c 0xdf
 292 744 204 802 204 930 c 0
 204 978 246 1215 522 1215 c 0
 659 1215 808 1161 808 944 c 0
 808 907 804 867 796 822 c 2
 690 222 l 1
 1153 222 l 1
 1186 410 l 17
 903 410 838 531 838 611 c 0
 838 730 948 818 1058 818 c 0xef
960 631 m 0
 960 603 985 585 1014 585 c 0
 1048 585 1083 615 1083 652 c 0
 1083 677 1062 698 1034 699 c 0xef
 990 699 960 662 960 631 c 0
EndSplineSet
EndChar
StartChar: uni0E2A
Encoding: 3626 3626 165
Width: 1490
Flags: W
HStem: -12 191<371.5 599.568> 609 254<576.628 777.434> 983 240<575.192 1037.94>
VStem: 617 199<191.752 325.928>
Fore
463 240 m 0
 463 213 484 179 528 179 c 0
 582 179 617 229 617 271 c 0
 617 301 598 328 555 328 c 0
 504 328 463 282 463 240 c 0
454 -12 m 0
 289 -12 193 92 193 246 c 0
 193 272 196 300 201 330 c 2
 229 487 l 2
 267 706 464 863 663 863 c 0
 784 863 879 834 946 777 c 0
 1013 720 1062 658 1091 591 c 1
 1114 719 l 2
 1119 746 1121 768 1121 785 c 0
 1121 798 1119 808 1116 814 c 1
 1034 759 l 1
 938 842 l 1
 1051 924 l 1
 1016 974 959 983 811 983 c 0
 586 983 437 895 360 839 c 1
 360 1085 l 1
 497 1164 669 1223 881 1223 c 0
 1022 1223 1186 1217 1272 1158 c 1
 1353 1276 l 1
 1555 1134 l 1
 1411 1012 l 1
 1431 971 1441 923 1441 869 c 0
 1441 839 1438 807 1432 773 c 2
 1296 -2 l 1
 986 -1 l 1
 957 224 861 609 673 609 c 0
 608 609 574 579 537 506 c 1
 613 503 l 2
 764 503 816 370 816 289 c 0
 816 169 721 -10 454 -12 c 0
EndSplineSet
EndChar
StartChar: uni0E2B
Encoding: 3627 3627 166
Width: 1620
Flags: W
HStem: 0 21G<335 694 1136 1449.52> 756 146<357.455 466.568> 1051 175<368.544 577> 1066 158<1275.06 1436.57>
VStem: 205 149<906.358 1037> 1064 183<884.189 1037.71> 1444 175<901.634 1056.85>
Fore
1619 1005 m 0xde
 1619 903 1566 829 1515 783 c 1
 1542 740 1556 694 1556 645 c 0
 1556 629 1554 613 1551 596 c 2
 1446 0 l 1
 1136 0 l 1
 1252 656 l 2
 1255 678 1248 693 1230 701 c 1
 1080 504 713 229 675 0 c 1
 335 0 l 1
 469 760 l 1
 392 756 l 1
 391 756 l 2
 302 756 205 830 205 931 c 0
 205 1016 284 1226 514 1226 c 0xee
 640 1226 807 1169 807 942 c 0
 807 906 804 867 796 824 c 2
 746 540 l 1
 810 602 1057 742 1093 812 c 1
 1069 848 1064 902 1064 924 c 0
 1064 1063 1208 1224 1390 1224 c 0
 1539 1224 1619 1113 1619 1005 c 0xde
1247 953 m 0
 1247 911 1280 876 1328 876 c 24
 1386 876 1444 925 1444 988 c 0
 1444 1031 1412 1066 1363 1066 c 0xde
 1303 1066 1247 1013 1247 953 c 0
354 962 m 0
 354 926 383 902 418 902 c 24
 463 902 509 939 509 988 c 0
 509 1022 484 1051 445 1051 c 0xee
 395 1051 354 1006 354 962 c 0
EndSplineSet
EndChar
StartChar: uni0E2C
Encoding: 3628 3628 167
Width: 1700
Flags: HW
HStem: 0 21G<338 666.393 1215.07 1534.52> 753 146<358.26 456.063> 1048 176<371.537 596> 1323 251<1358.88 1585.78>
VStem: 206 150<902.831 1031.7>
AnchorPoint: "AboveBase" 1000.4 1284 basechar 0
Fore
811 950 m 0
 811 911 806 868 798 821 c 2
 737 475 l 1
 1012 894 l 1
 1171 894 l 1
 1304 470 l 1
 1386 936 l 1
 1205 939 1088 1058 1088 1195 c 0
 1088 1371 1244 1574 1489 1574 c 0
 1678 1574 1756 1439 1756 1318 c 0
 1756 1299 1755 1279 1751 1258 c 1
 1793 1281 1840 1317 1891 1366 c 1
 1873 1107 l 1
 1818 1070 1764 1040 1710 1016 c 1
 1531 0 l 1
 1222 0 l 1
 1028 560 l 25
 653 0 l 1
 338 0 l 1
 472 767 l 1
 449 758 423 753 393 753 c 0
 285 753 206 849 206 917 c 0
 206 1009 260 1224 530 1224 c 0
 662 1224 811 1169 811 950 c 0
356 959 m 0
 356 926 382 899 420 899 c 16
 477 899 510 946 510 988 c 0
 510 1020 490 1048 447 1048 c 0
 393 1048 356 1000 356 959 c 0
1407 1174 m 0
 1450 1174 1496 1209 1496 1261 c 0
 1496 1294 1472 1323 1437 1323 c 0
 1391 1323 1343 1285 1343 1235 c 0
 1343 1198 1371 1174 1407 1174 c 0
EndSplineSet
EndChar
StartChar: uni0E2D
Encoding: 3629 3629 168
Width: 1420
Flags: W
HStem: 0 222<504 972> 353 146<577.118 714.983> 648 178<589.177 724.866> 986 240<531.514 970.791>
VStem: 729 169<512.123 645.272>
Fore
729 585 m 0
 729 612 710 648 665 648 c 0
 609 648 575 600 575 559 c 0
 575 527 595 499 640 499 c 0
 690 499 729 543 729 585 c 0
898 621 m 0
 898 432 717 355 614 353 c 0
 570 353 542 358 530 367 c 9
 504 222 l 1
 972 222 l 1
 1060 722 l 2
 1064 742 1066 761 1066 779 c 0
 1066 937 917 986 755 986 c 0
 612 986 437 955 305 842 c 1
 306 1088 l 1
 439 1159 618 1226 827 1226 c 0
 1007 1226 1151 1193 1259 1129 c 0
 1344 1078 1386 995 1386 880 c 0
 1386 848 1383 813 1376 776 c 2
 1239 -1 l 1
 150 0 l 1
 224 421 l 2
 243 524 287 617 358 699 c 0
 433 787 537 826 656 826 c 0
 855 826 898 703 898 621 c 0
EndSplineSet
EndChar
StartChar: uni0E2E
Encoding: 3630 3630 169
Width: 1460
Flags: W
HStem: 0 222<525 998> 257 131<578.291 715.414> 537 175<593.082 726.75> 736 179<598.724 929.083> 1020 206<663.43 925.053>
VStem: 731 151<403.792 598>
Fore
576 448 m 0
 576 420 599 388 641 388 c 16
 691 388 731 433 731 475 c 0
 731 505 709 537 667 537 c 0
 621 537 576 491 576 448 c 0
303 914 m 0
 303 1113 588 1226 866 1226 c 0
 1023 1226 1147 1206 1237 1166 c 1
 1293 1207 1345 1257 1392 1316 c 1
 1517 1094 l 1
 1385 1007 l 1
 1402 967 1410 922 1410 872 c 0
 1410 842 1407 810 1401 776 c 2
 1263 0 l 1
 170 0 l 1
 225 310 l 2
 279 618 526 712 665 712 c 0
 731 718 882 661 882 535 c 0
 882 297 693 257 601 257 c 0
 570 257 548 260 534 266 c 1
 525 222 l 1
 998 222 l 1
 1086 722 l 2
 1092 759 1096 791 1096 818 c 0
 1096 825 1095 832 1095 838 c 1
 1003 788 803 736 686 736 c 0
 529 736 303 773 303 914 c 0
597 955 m 0
 597 931 623 915 719 915 c 0
 821 915 918 952 986 984 c 1
 948 998 861 1020 797 1020 c 0
 744 1020 597 1008 597 955 c 0
EndSplineSet
EndChar
StartChar: uni0E2F
Encoding: 3631 3631 170
Width: 1410
Flags: W
HStem: 0 21G<877 1191.52> 488 253<507.463 773.618> 783 126<475 549.466> 1058 157<425.91 561.043>
VStem: 565 162<923.114 1053.76>
Back
1217 1509.5 m 29
 1217 -110.5 l 1
1260 1207.5 m 29
 1260 -412.5 l 1
1411 1327.5 m 29
 1410 -292.5 l 1
1324 1318.5 m 29
 1323 -301.5 l 1
1392 1276.5 m 29
 1391 -343.5 l 1
1310 1149.5 m 29
 1310 -470.5 l 1
EndSplineSet
Fore
410 970 m 0
 410 942 431 909 475 909 c 16
 527 909 565 954 565 996 c 0
 565 1028 543 1058 501 1058 c 0
 454 1058 410 1013 410 970 c 0
987 624 m 1
 955 584 807 488 571 488 c 0
 522 488 424 488 288 594 c 0
 224 644 184 708 184 786 c 0
 184 818 184 853 191 890 c 2
 203 951 l 2
 236 1122 389 1215 524 1215 c 0
 684 1215 727 1110 727 1023 c 0
 727 850 591 784 507 783 c 1
 519 770 582 741 623 741 c 0
 707 741 893 782 1042 1161 c 1
 1378 1081 l 1
 1188 0 l 1
 877 0 l 1
 987 624 l 1
EndSplineSet
EndChar
StartChar: uni0E30
Encoding: 3632 3632 171
Width: 1160
Flags: W
HStem: 28 187<261.119 482.428> 328 128<264.052 379.969> 714 185<384.346 609.576> 1012 129<390.883 505.135>
VStem: 125 133<217.557 320.805> 252 132<901.987 1005.3> 381 135<252.916 327.42> 507 135<935.842 1011.14>
Fore
507 964 m 0xf5
 507 991 486 1012 457 1012 c 0
 421 1012 384 981 384 944 c 0
 384 916 411 899 440 899 c 0
 479 899 507 933 507 964 c 0xf5
630 930 m 1
 715 938 968 1015 1123 1147 c 1
 1127 888 l 1
 952 770 661 714 521 714 c 0
 417 714 252 755 252 919 c 0
 252 1065 399 1141 485 1141 c 0
 586 1141 642 1055 642 988 c 0
 642 966 639 939 630 930 c 1
381 280 m 0xfa
 381 309 357 328 330 328 c 0
 295 328 258 298 258 261 c 0
 258 232 284 215 313 215 c 0
 353 215 381 249 381 280 c 0xfa
502 245 m 1
 597 254 847 334 996 462 c 1
 1000 203 l 1
 831 90 548 28 388 28 c 0
 192 28 125 144 125 237 c 0
 125 376 272 456 356 456 c 0
 458 456 516 369 516 301 c 0
 516 279 511 254 502 245 c 1
EndSplineSet
EndChar
StartChar: uni0E31
Encoding: 3633 3633 172
Width: 0
Flags: HW
HStem: 1336 176<-245.438 -92.5> 1625 119<-254.625 -140.105>
VStem: -392 132<1513.43 1618.24> -137 134<1539.89 1623.36>
AnchorPoint: "AboveBase" -27.5957 1284 mark 0
AnchorPoint: "AboveMark" 157.654 2000 basemark 0
Fore
-186 1625 m 0
 -230 1625 -260 1588 -260 1557 c 0
 -260 1528 -234 1512 -206 1512 c 0
 -163 1512 -137 1547 -137 1578 c 0
 -137 1602 -153 1624 -186 1625 c 0
-3 1588 m 0
 -3 1566 -8 1539 -17 1533 c 1
 65 1540 328 1606 486 1740 c 1
 481 1491 l 1
 281 1358 -50 1336 -135 1336 c 0
 -328 1336 -392 1457 -392 1538 c 0
 -392 1662 -250 1744 -163 1744 c 0
 -62 1745 -3 1659 -3 1588 c 0
EndSplineSet
EndChar
StartChar: uni0E32
Encoding: 3634 3634 173
Width: 1220
Flags: W
HStem: 990 240<473.772 786.24>
Fore
616 990 m 0
 828 990 857 873 857 797 c 0
 857 775 854 751 850 726 c 2
 722 0 l 1
 1033 0 l 1
 1171 780 l 2
 1178 818 1181 853 1181 886 c 0
 1181 1092 1070 1230 658 1230 c 0
 618 1230 435 1241 228 1092 c 1
 227 846 l 1
 350 961 488 990 616 990 c 0
EndSplineSet
EndChar
StartChar: uni0E34
Encoding: 3636 3636 175
Width: 0
Flags: W
HStem: 1430 148<-652 -489.457> 1683 159<-585.989 -282.203>
AnchorPoint: "AboveBase" 40.4043 1284 mark 0
AnchorPoint: "AboveMark" 49.6543 2000 basemark 0
Fore
-209 1536 m 1
 -265 1644 -305 1683 -429 1683 c 0
 -535 1683 -588 1655 -652 1578 c 1
 -608 1578 l 2
 -369 1578 -266 1551 -209 1536 c 1
54 1326 m 1
 -321 1430 -546 1430 -687 1430 c 0
 -805 1430 -924 1424 -982 1414 c 1
 -952 1575 l 1
 -835 1740 -558 1842 -392 1842 c 0
 -127 1842 48 1654 125 1524 c 1
 54 1326 l 1
EndSplineSet
EndChar
StartChar: uni0E35
Encoding: 3637 3637 176
Width: 0
Flags: W
HStem: 1430 148<-652 -489.457> 1683 159<-588.081 -280.98>
AnchorPoint: "AboveMark" 49.6543 2000 basemark 0
AnchorPoint: "AboveBase" 36.4043 1284 mark 0
Fore
-209 1536 m 1
 -265 1644 -305 1683 -429 1683 c 0
 -535 1683 -588 1655 -652 1578 c 1
 -608 1578 l 2
 -369 1578 -266 1551 -209 1536 c 1
54 1326 m 1
 -321 1430 -546 1430 -687 1430 c 0
 -805 1430 -924 1424 -982 1414 c 1
 -952 1575 l 1
 -838 1735 -568 1842 -389 1842 c 0
 -284 1842 -186 1812 -93 1753 c 1
 -66 1903 l 1
 131 1903 l 1
 76 1596 l 1
 94 1573 110 1549 125 1524 c 1
 54 1326 l 1
EndSplineSet
EndChar
StartChar: uni0E36
Encoding: 3638 3638 177
Width: 0
Flags: W
HStem: 1430 148<-652 -489.457> 1683 159<-589.188 -302.524> 1840 123<-51.084 78.615>
VStem: 82 124<1712.97 1837.76>
AnchorPoint: "AboveMark" 49.6543 2000 basemark 0
AnchorPoint: "AboveBase" 39.4043 1284 mark 0
Fore
-209 1536 m 1xd0
 -265 1644 -305 1683 -429 1683 c 0
 -535 1683 -588 1655 -652 1578 c 1
 -608 1578 l 2
 -369 1578 -266 1551 -209 1536 c 1xd0
54 1326 m 1
 -321 1430 -546 1430 -687 1430 c 0
 -805 1430 -924 1424 -982 1414 c 1
 -952 1575 l 1
 -842 1730 -587 1842 -398 1842 c 0xd0
 -341 1842 -253 1831 -170 1794 c 1
 -156 1874 -62 1963 40 1963 c 2
 43 1963 l 2xb0
 159 1963 206 1873 206 1814 c 0
 206 1688 113 1624 65 1604 c 1
 96 1565 116 1539 125 1524 c 1
 54 1326 l 1
82 1783 m 0
 82 1814 58 1840 22 1840 c 24xb0
 -23 1840 -64 1803 -64 1758 c 0
 -64 1725 -37 1702 -2 1702 c 0
 39 1702 82 1737 82 1783 c 0
EndSplineSet
EndChar
StartChar: uni0E37
Encoding: 3639 3639 178
Width: 0
Flags: W
HStem: 1430 148<-652 -489.457> 1683 159<-589.188 -323.871>
AnchorPoint: "AboveMark" -68.3457 2000 basemark 0
AnchorPoint: "AboveBase" 40.4043 1284 mark 0
Fore
-209 1536 m 1
 -265 1644 -305 1683 -429 1683 c 0
 -535 1683 -588 1655 -652 1578 c 1
 -608 1578 l 2
 -369 1578 -266 1551 -209 1536 c 1
54 1326 m 1
 -321 1430 -546 1430 -687 1430 c 0
 -805 1430 -924 1424 -982 1414 c 1
 -952 1575 l 1
 -842 1730 -587 1842 -398 1842 c 0
 -374 1842 -350 1841 -327 1838 c 1
 -310 1928 l 1
 -115 1928 l 1
 -141 1780 l 1
 -120 1769 -100 1757 -81 1744 c 1
 -47 1927 l 1
 136 1927 l 1
 76 1595 l 1
 94 1572 110 1549 125 1524 c 1
 54 1326 l 1
EndSplineSet
EndChar
StartChar: uni0E38
Encoding: 3640 3640 179
Width: 0
Flags: W
HStem: -412 102<-534.935 -459.801> -204 126<-531.187 -352>
VStem: -636 100<-308.428 -209.56> -422 229<-333.5 -216.022>
AnchorPoint: "BelowBase" -147.988 -85 mark 0
Fore
-420 -78 m 0
 -284 -78 -193 -184 -193 -325 c 0
 -193 -342 -194 -360 -197 -378 c 2
 -218 -512 l 1
 -476 -512 l 1
 -457 -405 l 1
 -468 -410 -485 -412 -508 -412 c 0
 -579 -411 -636 -346 -636 -279 c 0
 -636 -212 -575 -78 -420 -78 c 0
-422 -247 m 0
 -422 -228 -437 -204 -469 -204 c 24
 -502 -204 -536 -230 -536 -266 c 0
 -536 -292 -515 -310 -488 -310 c 0
 -456 -310 -422 -283 -422 -247 c 0
EndSplineSet
EndChar
StartChar: uni0E39
Encoding: 3641 3641 180
Width: 0
Flags: W
HStem: -560 152<-596 -514> -560 490<-879 -675.966 -451 -279> -404 102<-927.686 -852.877> -196 126<-925.76 -744>
VStem: -1033 104<-300.378 -201.703> -815 230<-325.5 -208.691>
AnchorPoint: "BelowBase" -147.988 -85 mark 0
Fore
-812 -70 m 0x4c
 -676 -70 -585 -177 -585 -317 c 0
 -585 -334 -586 -352 -589 -370 c 2
 -596 -408 l 1x8c
 -514 -409 l 1
 -451 -76 l 1
 -193 -76 l 1
 -279 -560 l 1
 -879 -560 l 1x4c
 -850 -397 l 1
 -861 -402 -877 -404 -900 -404 c 0x2c
 -972 -403 -1033 -338 -1033 -271 c 0
 -1033 -195 -963 -70 -812 -70 c 0x4c
-815 -239 m 0
 -815 -220 -830 -196 -862 -196 c 24
 -895 -196 -929 -222 -929 -258 c 0
 -929 -283 -908 -302 -880 -302 c 0x3c
 -847 -302 -815 -273 -815 -239 c 0
EndSplineSet
EndChar
StartChar: uni0E3A
Encoding: 3642 3642 181
Width: 0
Flags: W
AnchorPoint: "BelowBase" -172.988 -85 mark 0
Fore
-489 -299 m 0
 -489 -197 -398 -103 -294 -103 c 24
 -205 -103 -155 -170 -155 -238 c 0
 -155 -341 -249 -433 -352 -433 c 0
 -442 -433 -489 -365 -489 -299 c 0
EndSplineSet
EndChar
StartChar: uni0E3F
Encoding: 3647 3647 182
Width: 1561
Flags: W
Fore
1298 799 m 1
 1456 751 1500 626 1500 517 c 0
 1500 391 1450 210 1290 106 c 0
 1187 39 1044 4 861 0 c 1
 837 -136 l 1
 642 -136 l 1
 666 0 l 1
 188 0 l 1
 451 1493 l 1
 929 1493 l 1
 947 1593 l 1
 1141 1593 l 1
 1123 1491 l 1
 1353 1478 1558 1421 1558 1186 c 0
 1558 1063 1510 875 1298 799 c 1
1023 922 m 17
 1029 925 1164 955 1164 1110 c 0
 1164 1177 1122 1212 1076 1222 c 1
 1023 922 l 17
907 266 m 1
 1095 287 1117 449 1117 507 c 0
 1117 596 1058 638 975 649 c 1
 907 266 l 1
712 262 m 1
 781 653 l 1
 688 653 l 1
 619 262 l 1
 712 262 l 1
828 915 m 1
 884 1231 l 1
 790 1231 l 1
 734 915 l 1
 828 915 l 1
1076 1222 m 0
907 266 m 0
975 649 m 0
EndSplineSet
EndChar
StartChar: uni0E40
Encoding: 3648 3648 183
Width: 850
Flags: W
HStem: -10 206<438.5 638.102> 1186 20G<391.461 703>
VStem: 653 208<211.92 342.3>
Fore
861 309 m 0
 861 153 715 -10 496 -10 c 0
 381 -10 234 43 234 253 c 0
 234 282 237 313 243 347 c 2
 395 1206 l 1
 703 1206 l 1
 582 523 l 1
 622 523 l 2
 817 523 861 408 861 309 c 0
653 285 m 0
 653 318 628 345 590 345 c 24
 546 345 498 308 498 259 c 0
 498 225 525 196 564 196 c 0
 614 196 653 243 653 285 c 0
EndSplineSet
EndChar
StartChar: uni0E41
Encoding: 3649 3649 184
Width: 1570
Flags: W
HStem: -10 206<442.374 638.102 1147.9 1358.1> 345 178<583.792 650.652 1302.02 1370.65> 1186 20G<391.461 703 1111.46 1423>
VStem: 653 208<211.92 342.691> 1373 208<211.92 342.691>
Back
258 282 m 4
 258 360 285.5 426.5 340.5 481.5 c 0
 395.5 536.5 462 564 540 564 c 0
 618 564 684.5 536.5 739.5 481.5 c 0
 794.5 426.5 822 360 822 282 c 0
 822 204 794.5 137.5 739.5 82.5 c 0
 684.5 27.5 618 0 540 0 c 0
 462 0 395.5 27.5 340.5 82.5 c 0
 285.5 137.5 258 204 258 282 c 4
461 282 m 0
 461 303.333 468.667 321.667 484 337 c 0
 499.333 352.333 517.667 360 539 360 c 0
 560.333 360 578.667 352.333 594 337 c 0
 609.333 321.667 617 303.333 617 282 c 0
 617 260.667 609.333 242.333 594 227 c 0
 578.667 211.667 560.333 204 539 204 c 0
 517.667 204 499.333 211.667 484 227 c 0
 468.667 242.333 461 260.667 461 282 c 0
EndSplineSet
Fore
1216 -10 m 0
 1074 -10 954 69 954 247 c 0
 954 277 957 311 963 347 c 2
 1115 1206 l 1
 1423 1206 l 1
 1302 523 l 1
 1345 523 l 2
 1534 523 1581 411 1581 309 c 0
 1581 153 1435 -10 1216 -10 c 0
1373 285 m 0
 1373 318 1348 345 1310 345 c 16
 1252 345 1220 298 1220 257 c 0
 1220 225 1240 196 1284 196 c 0
 1334 196 1373 243 1373 285 c 0
496 -10 m 0
 384 -10 234 42 234 250 c 0
 234 289 240 328 243 347 c 2
 395 1206 l 1
 703 1206 l 1
 582 523 l 1
 625 523 l 2
 814 523 861 411 861 309 c 0
 861 153 715 -10 496 -10 c 0
653 285 m 0
 653 318 628 345 590 345 c 24
 546 345 498 308 498 259 c 0
 498 225 525 196 564 196 c 0
 614 196 653 243 653 285 c 0
EndSplineSet
EndChar
StartChar: uni0E42
Encoding: 3650 3650 185
Width: 1090
Flags: W
HStem: -10 206<685.5 880.678> 1817 241<573.648 1026.16>
VStem: 895 209<211.571 342.499>
Fore
741 259 m 0
 741 221 772 196 806 196 c 0
 861 196 895 245 895 287 c 0
 895 318 876 345 833 345 c 0
 783 345 741 302 741 259 c 0
1073 1691 m 1
 1068 1749 1026 1817 847 1817 c 0
 681 1817 601 1784 570 1771 c 1
 875 1661 l 2
 947 1635 984 1574 984 1479 c 0
 984 1450 981 1419 975 1384 c 2
 823 523 l 1
 865 523 l 2
 1060 523 1104 408 1104 309 c 0
 1104 153 958 -10 739 -10 c 0
 632 -10 476 41 476 247 c 0
 476 278 479 311 485 347 c 2
 669 1388 l 2
 670 1394 671 1400 671 1406 c 0
 671 1459 627 1498 539 1524 c 2
 229 1615 l 1
 283 1921 l 1
 387 1961 645 2058 886 2058 c 0
 1085 2058 1224 2023 1303 1954 c 1
 1073 1691 l 1
EndSplineSet
EndChar
StartChar: uni0E43
Encoding: 3651 3651 186
Width: 1040
Flags: W
HStem: -10 206<585.5 780.678> 1408 160<402.099 539.284> 1717 335<465.5 770.924>
VStem: 233 165<1572.84 1702.36> 553 172<1582.56 1714.35> 795 209<211.571 342.499>
Fore
641 259 m 0
 641 221 672 196 706 196 c 0
 761 196 795 245 795 287 c 0
 795 318 776 345 733 345 c 0
 683 345 641 303 641 259 c 0
747 2052 m 0
 1012 2052 1119 1843 1119 1690 c 0
 1119 1642 1116 1544 1008 1406 c 2
 932 1310 l 2
 893 1260 838 1173 820 1074 c 2
 723 523 l 1
 765 523 l 2
 960 523 1004 408 1004 309 c 0
 1004 153 858 -10 639 -10 c 0
 532 -10 376 41 376 247 c 0
 376 278 379 311 385 347 c 2
 525 1142 l 2
 542 1231 593 1309 630 1352 c 2
 699 1432 l 2
 736 1473 803 1558 803 1642 c 0
 803 1689 780 1774 672 1804 c 1
 722 1770 725 1731 725 1703 c 0
 725 1512 574 1408 435 1408 c 0
 296 1408 233 1501 233 1597 c 0
 233 1857 472 2052 747 2052 c 0
553 1657 m 0
 553 1690 529 1717 489 1717 c 0
 442 1717 398 1674 398 1629 c 0
 398 1594 426 1568 464 1568 c 0
 511 1568 553 1612 553 1657 c 0
EndSplineSet
EndChar
StartChar: uni0E44
Encoding: 3652 3652 187
Width: 1100
Flags: W
HStem: -10 206<675.5 870.678>
VStem: 885 209<211.571 341.3>
Fore
731 259 m 0
 731 221 762 196 796 196 c 0
 851 196 885 245 885 287 c 0
 885 318 866 345 823 345 c 0
 773 345 731 302 731 259 c 0
1122 1972 m 2
 1156 1972 1196 1872 1196 1816 c 0
 1196 1807 1195 1800 1194 1792 c 2
 1165 1628 l 2
 1148 1535 1109 1445 1066 1380 c 2
 1004 1288 l 2
 930 1181 917 1114 913 1088 c 2
 813 523 l 1
 855 523 l 2
 1018 528 1094 443 1094 309 c 0
 1094 153 948 -10 729 -10 c 0
 622 -10 466 41 466 247 c 0
 466 278 469 311 475 347 c 2
 607 1092 l 2
 624 1196 671 1293 702 1344 c 2
 758 1434 l 2
 786 1479 837 1572 846 1631 c 2
 851 1672 l 1
 741 1661 646 1512 607 1424 c 1
 355 1424 l 1
 351 1575 291 1790 175 1856 c 1
 256 2064 l 1
 287 2040 517 1859 540 1700 c 1
 628 1885 832 1972 904 1972 c 2
 1122 1972 l 2
EndSplineSet
EndChar
StartChar: uni0E45
Encoding: 3653 3653 188
Width: 1210
Flags: W
HStem: 990 240<323.772 635.199>
Fore
466 990 m 0
 678 990 707 873 707 797 c 0
 707 775 704 751 700 726 c 2
 500 -410 l 1
 811 -410 l 1
 1021 780 l 2
 1028 821 1031 858 1031 893 c 0
 1031 1095 912 1230 508 1230 c 0
 468 1230 285 1241 78 1092 c 1
 77 846 l 1
 200 961 338 990 466 990 c 0
EndSplineSet
EndChar
StartChar: uni0E46
Encoding: 3654 3654 189
Width: 1460
Flags: W
HStem: 436 165<397.292 544.317> 1204 20G<985.407 1146>
VStem: 217 178<607.416 734.279> 559 174<617.322 749.897>
Fore
1018 1224 m 1
 1274 1209 1395 1021 1395 859 c 0
 1395 834 1393 808 1388 780 c 2
 1178 -411 l 1
 869 -411 l 1
 1075 764 l 2
 1078 779 1079 794 1079 808 c 0
 1079 879 1045 938 976 984 c 1
 800 896 l 1
 643 992 l 1
 600 976 568 953 547 924 c 1
 664 909 733 823 733 727 c 0
 733 577 586 436 433 436 c 0
 302 436 217 526 217 657 c 0
 217 916 447 1198 706 1224 c 1
 705 1221 751 1185 842 1116 c 1
 1018 1224 l 1
395 662 m 0
 395 626 426 601 465 601 c 0
 517 601 559 646 559 692 c 0
 559 718 539 754 490 754 c 0
 441 754 395 713 395 662 c 0
EndSplineSet
EndChar
StartChar: uni0E47
Encoding: 3655 3655 190
Width: 0
Flags: HW
HStem: 1304 124<-253.5 -61.703> 1404 151<-445.094 -331.21> 1543 85<-168.105 -56.7837> 1654 135<-471.535 26.7051>
VStem: -686 147<1463.31 1593.12> -56 90<1432.27 1541.9>
AnchorPoint: "AboveMark" -336.937 1294.12 mark 0
AnchorPoint: "AboveBase" 24.6543 1284 mark 0
Fore
-121 1428 m 0xbc
 -89 1428 -56 1461 -56 1497 c 0
 -56 1524 -76 1543 -102 1543 c 8
 -140 1543 -173 1511 -173 1475 c 0
 -173 1446 -150 1428 -121 1428 c 0xbc
-686 1477 m 0
 -686 1727 -410 1789 -269 1789 c 0
 -238 1789 -248 1786 -216 1786 c 0
 -67 1786 63 1809 115 1924 c 1
 168 1790 l 1
 85 1683 -55 1654 -237 1654 c 0
 -251 1654 -262 1654 -272 1655 c 0
 -379 1655 -539 1629 -539 1500 c 0
 -539 1480 -534 1462 -521 1453 c 1
 -506 1482 -478 1555 -389 1555 c 0x5c
 -341 1555 -302 1473 -260 1473 c 1
 -260 1480 l 1
 -254 1502 l 2
 -241 1578 -169 1628 -95 1628 c 0
 -41 1628 34 1605 34 1518 c 0
 34 1426 -49 1304 -193 1304 c 0xbc
 -314 1304 -352 1404 -400 1404 c 0x5c
 -448 1404 -451 1319 -464 1305 c 1
 -589 1305 -686 1342 -686 1477 c 0
EndSplineSet
EndChar
StartChar: uni0E48
Encoding: 3656 3656 191
Width: 0
VWidth: 2302
Flags: W
VStem: -56 275<2076 2432>
AnchorPoint: "AboveMark" 36.6543 2000 mark 0
Fore
7 2432 m 25
 219 2432 l 1
 156 2076 l 1
 -56 2076 l 1
 7 2432 l 25
EndSplineSet
Substitution2: "Single Substitution lookup 7" uni0E48.low
MultipleSubs2: "Multiple Substitution lookup 6" uni0E4D uni0E48
EndChar
StartChar: uni0E49
Encoding: 3657 3657 192
Width: 0
VWidth: 2314
Flags: W
HStem: 2030 250<-204 -4.15649> 2394 88<-107.194 9.75342>
VStem: -194 81<2280.84 2386.38> 11 101<2300 2392.67>
AnchorPoint: "AboveMark" 78.6543 2000 mark 0
Fore
-194 2310 m 0
 -194 2433 -75 2482 -19 2482 c 0
 70 2482 112 2416 112 2354 c 0
 112 2322 98 2260 38 2194 c 1
 137 2211 251 2297 379 2450 c 1
 469 2308 l 1
 287 2118 28 2030 -204 2030 c 2
 -215 2030 l 1
 -190 2162 l 1
 -123 2168 -122 2167 -85 2200 c 1
 -94 2200 l 2
 -132 2200 -194 2227 -194 2310 c 0
-40 2394 m 0
 -82 2394 -113 2360 -113 2325 c 0
 -113 2300 -92 2280 -63 2280 c 8
 -20 2280 11 2317 11 2348 c 0
 11 2374 -11 2394 -40 2394 c 0
EndSplineSet
Substitution2: "Single Substitution lookup 7" uni0E49.low
MultipleSubs2: "Multiple Substitution lookup 6" uni0E4D uni0E49
EndChar
StartChar: uni0E4A
Encoding: 3658 3658 193
Width: 0
VWidth: 2296
Flags: W
HStem: 2075 85<-256.422 -160.689> 2258 66<-239.871 -160.423>
VStem: -391 123<2160.33 2252.6> -159 72<2164.21 2257.31> 56 137<2235.75 2351.57>
AnchorPoint: "AboveMark" -105.346 2000 mark 0
Fore
-204 2258 m 0
 -242 2258 -268 2221 -268 2196 c 0
 -268 2175 -248 2160 -223 2160 c 0
 -193 2160 -159 2180 -159 2215 c 0
 -159 2241 -179 2258 -204 2258 c 0
-87 2227 m 0
 -87 2168 -143 2075 -239 2075 c 0
 -318 2075 -391 2135 -391 2218 c 0
 -391 2287 -331 2425 -175 2478 c 1
 -63 2400 l 1
 61 2480 l 1
 141 2451 193 2374 193 2302 c 0
 193 2293 193 2249 154 2212 c 2
 119 2179 l 1
 205 2208 300 2372 340 2475 c 1
 465 2366 l 1
 426 2257 229 2079 40 2076 c 1
 -7 2184 l 1
 12 2200 56 2232 56 2305 c 0
 56 2332 48 2352 31 2366 c 1
 -83 2298 l 1
 -183 2364 l 1
 -224 2333 -220 2338 -243 2306 c 1
 -242 2323 -236 2324 -210 2324 c 2
 -192 2324 l 2
 -126 2323 -87 2277 -87 2227 c 0
EndSplineSet
Substitution2: "Single Substitution lookup 7" uni0E4A.low
MultipleSubs2: "Multiple Substitution lookup 6" uni0E4D uni0E4A
EndChar
StartChar: uni0E4B
Encoding: 3659 3659 194
Width: 0
VWidth: 2297
Flags: W
HStem: 2213 179<-203 -98 122 227>
VStem: -235 494<2212 2392>
AnchorPoint: "AboveMark" -24.3457 2000 mark 0
Fore
227 2213 m 1
 90 2213 l 1
 66 2076 l 1
 -122 2076 l 1
 -98 2212 l 1
 -235 2212 l 1
 -203 2391 l 1
 -66 2391 l 1
 -42 2528 l 1
 146 2529 l 1
 122 2392 l 1
 259 2392 l 1
 227 2213 l 1
EndSplineSet
Substitution2: "Single Substitution lookup 7" uni0E4B.low
MultipleSubs2: "Multiple Substitution lookup 6" uni0E4D uni0E4B
EndChar
StartChar: uni0E4C
Encoding: 3660 3660 195
Width: 0
VWidth: 2306
Flags: W
HStem: 2076 110<-129.445 -5.08135>
VStem: -263 131<2188.34 2310.21> 4 128<2194.48 2321.17>
AnchorPoint: "AboveMark" -107.346 2000 mark 0
Fore
132 2309 m 0
 132 2173 20 2076 -94 2076 c 0
 -221 2076 -263 2159 -263 2230 c 0
 -263 2325 -176 2448 -25 2468 c 0
 31 2476 361 2480 464 2540 c 1
 461 2378 l 1
 411 2351 361 2343 283 2343 c 0
 233 2343 196 2348 158 2348 c 0
 144 2348 133 2347 124 2346 c 1
 130 2335 132 2323 132 2309 c 0
-73 2186 m 0
 -31 2186 4 2224 4 2266 c 0
 4 2298 -17 2322 -49 2322 c 8
 -97 2322 -132 2276 -132 2238 c 0
 -132 2208 -108 2186 -73 2186 c 0
EndSplineSet
Substitution2: "Single Substitution lookup 7" uni0E4C.low
MultipleSubs2: "Multiple Substitution lookup 6" uni0E4D uni0E4C
EndChar
StartChar: uni0E4D
Encoding: 3661 3661 196
Width: 0
Flags: W
HStem: 1336 180<-209.689 -48.7666> 1708 180<-190.185 -30.054>
VStem: -401 183<1524.16 1680.89> -22 183<1543.93 1700.1>
AnchorPoint: "AboveBase" 21.4043 1284 mark 0
AnchorPoint: "AboveMark" -38.8457 2000 basemark 0
Fore
-401 1561 m 0
 -401 1737 -242 1888 -71 1888 c 0
 78 1888 161 1776 161 1663 c 0
 161 1491 6 1336 -168 1336 c 0
 -319 1336 -401 1450 -401 1561 c 0
-103 1708 m 0
 -165 1708 -218 1654 -218 1594 c 0
 -218 1551 -186 1516 -137 1516 c 0
 -75 1516 -22 1570 -22 1630 c 0
 -22 1673 -54 1708 -103 1708 c 0
EndSplineSet
Substitution2: "Single Substitution lookup 5" uni0E4D.high
EndChar
StartChar: uni0E4E
Encoding: 3662 3662 197
Width: 0
VWidth: 2105
Flags: HW
HStem: 1313 149<-99.8027 -53 -53 100> 1595 132<-71.3291 116> 1854 144<-69.9347 147.699>
VStem: -342 198<1418 1572.59> -260 183<1740.24 1838.69>
AnchorPoint: "AboveBase" 86.4043 1284 mark 0
Fore
51 1595 m 2xe8
 -123 1595 -144 1547 -144 1513 c 0
 -144 1465 -90 1462 -8 1462 c 0
 19 1462 5 1463 126 1463 c 1
 100 1313 l 1
 -53 1313 l 2
 -275 1313 -342 1372 -342 1464 c 0xf0
 -342 1600 -197 1654 -177 1659 c 1
 -199 1671 -260 1711 -260 1785 c 0
 -260 1913 -122 1998 57 1998 c 0
 96 1998 177 1994 249 1975 c 1
 225 1830 l 1
 164 1846 110 1854 61 1854 c 0
 -16 1854 -77 1837 -77 1786 c 0
 -77 1747 -28 1727 71 1727 c 2
 141 1727 l 1
 116 1595 l 1
 51 1595 l 2xe8
EndSplineSet
EndChar
StartChar: uni0E4F
Encoding: 3663 3663 198
Width: 1310
Flags: W
HStem: -1 198<521.663 875.604> 290 156<642.608 836.278> 677 156<670.343 855.852> 933 198<643.327 983.339>
VStem: 177 201<339.616 673.145> 469 158<464.046 633.892> 874 159<485.162 659.112> 1128 201<451.558 789.973>
Fore
874 580 m 0
 874 632 835 677 772 677 c 24
 700 677 627 617 627 541 c 0
 627 485 675 446 735 446 c 0
 808 446 874 508 874 580 c 0
821 933 m 0
 583 933 378 718 378 498 c 0
 378 333 501 197 690 197 c 0
 919 197 1128 395 1128 626 c 0
 1128 793 1008 933 821 933 c 0
177 461 m 0
 177 812 504 1131 852 1131 c 0
 1138 1131 1329 922 1329 660 c 0
 1329 303 998 -1 659 -1 c 0
 380 -1 177 198 177 461 c 0
469 514 m 0
 469 677 622 833 800 833 c 0
 951 833 1033 720 1033 611 c 0
 1033 435 875 290 707 290 c 0
 561 290 469 393 469 514 c 0
EndSplineSet
EndChar
StartChar: uni0E50
Encoding: 3664 3664 199
Width: 1330
Flags: W
HStem: 0 263<559.703 875.153> 802 263<645.154 960.809>
VStem: 194 268<356.374 630.795> 1058 266<434.765 708.018>
Fore
1324 625 m 0
 1324 301 1012 0 670 0 c 24
 399 0 194 190 194 437 c 0
 194 791 526 1065 863 1065 c 0
 1121 1065 1324 881 1324 625 c 0
817 802 m 0
 630 802 462 658 462 485 c 0
 462 358 566 263 714 263 c 0
 904 263 1058 422 1058 581 c 0
 1058 695 969 802 817 802 c 0
EndSplineSet
EndChar
StartChar: uni0E51
Encoding: 3665 3665 200
Width: 1400
Flags: W
HStem: -160 177<664 799.991> 117 238<516.391 741.015> 500 131<691.514 821.879> 808 258<635.858 1005.93>
VStem: 184 278<378.019 638.836> 544 134<366.089 486.991> 825 133<367.564 496.184> 1121 274<357.466 691.429>
Back
538.275 -12 m 4
 441.949 -12 362.147 -3.2484 298.869 14.2548 c 132
 235.592 31.7581 170.404 58.8893 103.306 95.6484 c 5
 126 294 l 5
 174.255 256.779 236.952 227.987 314.09 207.624 c 132
 391.229 187.26 465.107 177.19 535.724 177.413 c 4
 608.786 180.42 677.684 197.516 742.417 228.699 c 132
 807.15 259.882 859.44 301.587 899.287 353.814 c 132
 939.133 406.041 959.371 462.103 960 522 c 4
 960.503 569.848 952.396 615.215 935.679 658.102 c 132
 918.962 700.989 895.158 738.714 864.266 771.278 c 132
 833.375 803.842 794.152 829.497 746.599 848.243 c 132
 699.046 866.989 646.612 875.929 589.297 875.062 c 4
 513.795 872.069 449.445 848.332 396.248 803.85 c 132
 343.05 759.368 311.664 700.012 302.09 625.783 c 4
 302.069 596.466 306.492 569.33 315.361 544.375 c 132
 324.23 519.421 335.907 498.614 350.393 481.954 c 132
 364.879 465.293 381.283 450.975 399.606 439 c 132
 417.929 427.025 436.606 418.477 455.638 413.357 c 132
 474.67 408.238 493.089 405.68 510.895 405.684 c 132
 528.702 405.689 544.403 408.461 558 414 c 5
 516.823 420.588 480.936 439.412 450.339 470.473 c 132
 419.741 501.534 404.442 540.957 404.442 588.743 c 4
 404.442 620.923 411.354 652.172 425.177 682.491 c 132
 439 712.81 460.601 738.642 489.979 759.985 c 132
 519.358 781.328 553.198 792 591.5 792 c 4
 632.379 792 669.666 784.226 703.361 768.679 c 132
 737.056 753.131 764.387 732.598 785.354 707.081 c 132
 806.321 681.564 822.303 653.009 833.3 621.417 c 132
 844.297 589.825 849.31 557.45 848.34 524.293 c 4
 847.431 493.206 839.432 461.814 824.344 430.118 c 132
 809.257 398.423 788.492 369.097 762.049 342.141 c 132
 735.606 315.185 701.566 293.215 659.928 276.23 c 132
 618.29 259.245 573.062 250.753 524.243 250.753 c 4
 463.336 250.753 405.616 259.074 351.085 275.715 c 132
 296.554 292.356 247.843 316.372 204.952 347.763 c 132
 162.061 379.154 128.02 419.91 102.827 470.031 c 132
 77.6344 520.152 65.0381 576.313 65.0381 638.516 c 4
 65.0381 701 79.7291 759.416 109.111 813.764 c 132
 138.493 868.111 177.673 913.728 226.651 950.614 c 132
 275.63 987.498 332.277 1016.47 396.593 1037.53 c 132
 460.908 1058.58 527.694 1069.11 596.951 1069.11 c 4
 636.544 1069.11 676.141 1066.26 715.744 1060.55 c 132
 755.347 1054.84 795.671 1045.42 836.717 1032.31 c 132
 877.762 1019.19 916.474 1002.88 952.853 983.381 c 132
 989.231 963.882 1023.41 939.37 1055.39 909.846 c 132
 1087.36 880.322 1114.71 847.336 1137.42 810.888 c 132
 1160.13 774.44 1177.72 731.672 1190.19 682.583 c 132
 1202.65 633.495 1208.14 580.608 1206.67 523.923 c 4
 1205.22 468.119 1195.97 415.907 1178.94 367.286 c 132
 1161.91 318.665 1139.62 276.514 1112.07 240.831 c 132
 1084.52 205.149 1052.29 172.756 1015.39 143.651 c 132
 978.482 114.547 939.984 90.5106 899.896 71.5423 c 132
 859.807 52.574 818.116 36.6655 774.823 23.8169 c 132
 731.53 10.9683 690.312 1.78672 651.17 -3.72797 c 132
 612.029 -9.24266 574.397 -12 538.275 -12 c 4
525.968 591.058 m 28
 526.334 570.613 533.976 553.309 548.895 539.148 c 132
 563.814 524.987 581.533 518.14 602.054 518.608 c 4
 623.222 519.091 641.288 526.677 656.251 541.366 c 132
 671.214 556.055 678.51 573.776 678.139 594.53 c 4
 677.788 614.104 669.775 630.226 654.098 642.897 c 132
 638.421 655.568 620.223 661.666 599.502 661.193 c 4
 579.261 660.731 561.859 653.784 547.294 640.353 c 132
 532.729 626.922 525.62 610.49 525.968 591.058 c 28
EndSplineSet
Fore
787 631 m 0
 894 631 958 555 958 466 c 0
 958 345 834 117 537 117 c 0
 232 117 184 342 184 398 c 0
 184 687 379 1066 898 1066 c 0
 1295 1066 1395 795 1395 602 c 0
 1395 136 1033 -126 664 -160 c 1
 572 17 l 1
 1084 103 1121 465 1121 536 c 0
 1121 628 1077 808 839 808 c 0
 588 808 462 663 462 486 c 0
 462 419 492 375 548 356 c 1
 545 367 544 379 544 391 c 0
 544 514 655 631 787 631 c 0
739 355 m 0
 782 355 825 394 825 440 c 0
 825 473 800 500 763 500 c 0
 718 500 678 460 678 415 c 0
 678 381 703 355 739 355 c 0
EndSplineSet
EndChar
StartChar: uni0E52
Encoding: 3666 3666 201
Width: 1600
Flags: W
HStem: 0 234<453 1188.87> 310 132<842.661 972.988> 586 132<900.442 983.068> 1050 20G<821 1016.62 1287.43 1418> 1445 20G<439.503 502>
VStem: 315 261<626.727 1269.38> 620 218<445.814 572.691> 985 134<454.082 583.089> 1320 277<548.437 814.064>
Fore
1320 707 m 0
 1320 771 1301 809 1263 820 c 1
 1093 743 l 1
 953 824 l 1
 923 800 901 760 887 704 c 1
 912 713 932 718 948 718 c 0
 1059 718 1119 634 1119 551 c 0
 1119 423 1002 310 876 310 c 0
 653 310 620 472 620 543 c 0
 620 600 660 950 982 1070 c 1
 1143 977 l 1
 1327 1070 l 1
 1509 1047 1597 935 1597 734 c 0
 1597 596 1525 0 1071 0 c 2
 122 0 l 1
 150 93 315 685 315 1011 c 0
 315 1135 296 1230 257 1296 c 1
 464 1465 l 1
 540 1386 576 1241 576 1029 c 0
 576 852 535 495 453 234 c 1
 1103 234 l 2
 1288 234 1320 685 1320 707 c 0
924 586 m 0
 877 586 838 544 838 500 c 0
 838 468 863 442 899 442 c 0
 946 442 985 484 985 528 c 0
 985 560 960 586 924 586 c 0
EndSplineSet
EndChar
StartChar: uni0E53
Encoding: 3667 3667 202
Width: 1600
Flags: W
HStem: -16 132<549.487 680.858> 260 132<556.879 689.704> 813 249<616.806 786.715 1121.38 1264.84>
VStem: 213 275<336.285 607.221> 692 134<127.722 257.678> 1281 288<428.781 802.008>
Fore
756 1062 m 0
 356 1062 213 631 213 384 c 0
 213 64 391 -16 588 -16 c 0
 707 -16 826 96 826 226 c 0
 826 310 764 392 655 392 c 0
 592 392 538 372 491 332 c 1
 489 332 488 337 488 345 c 1
 488 345 511 655 598 752 c 0
 635 792 678 813 728 813 c 0
 781 813 797 764 797 703 c 0
 797 673 793 638 786 597 c 2
 767 486 l 9
 1046 486 l 17
 1065 597 l 2
 1094 763 1141 813 1191 813 c 0
 1245 813 1281 783 1281 679 c 0
 1281 542 1222 280 1037 -6 c 1
 1297 -6 l 1
 1500 210 1569 553 1569 694 c 0
 1569 872 1503 1062 1240 1062 c 0
 1128 1062 1042 1015 981 922 c 1
 945 1037 846 1062 756 1062 c 0
546 175 m 0
 546 221 587 260 632 260 c 0
 669 260 692 233 692 201 c 0
 692 155 651 116 606 116 c 0
 569 116 546 143 546 175 c 0
EndSplineSet
EndChar
StartChar: uni0E54
Encoding: 3668 3668 203
Width: 1600
Flags: W
HStem: -1 226<559.051 759.634> 0 240<1249.17 1401> 584 132<848.571 980.164> 831 236<740.277 1137.53> 1208 20G<1719.5 1758.4>
VStem: 205 277<308.641 609.774> 684 151<399.5 569.534> 982 133<452.639 580.634>
Fore
1115 548 m 0x7f
 1115 480 1088 402 1023 354 c 1
 1090 286 1230 248 1443 240 c 1
 1401 0 l 1x7f
 1252 11 1128 35 1028 72 c 1
 971 24 737 -1 653 -1 c 0
 460 -1 205 79 205 396 c 0
 205 639 308 787 462 904 c 0
 598 1009 791 1063 1038 1067 c 0
 1524 1075 1677 1165 1762 1228 c 1
 1717 978 l 1
 1472 834 1037 831 978 831 c 0
 677 831 482 660 482 444 c 0
 482 332 549 225 693 225 c 0xbf
 728 225 770 230 820 240 c 1
 729 293 684 359 684 440 c 0
 684 596 819 716 944 716 c 0
 1043 716 1115 646 1115 548 c 0x7f
921 584 m 0
 874 584 835 542 835 498 c 0
 835 466 860 440 896 440 c 0
 943 440 982 482 982 526 c 0
 982 558 957 584 921 584 c 0
EndSplineSet
EndChar
StartChar: uni0E55
Encoding: 3669 3669 204
Width: 1600
Flags: W
HStem: -1 226<559.491 759.634> 0 240<1249.17 1401> 584 132<847.681 980.164> 831 250<773.516 978> 1208 20G<1719.5 1758.4> 1273 144<782.62 943.643>
VStem: 203 279<305.398 611.56> 610 147<1089.17 1246.5> 684 151<399 571.342> 952 147<1107.29 1263.53> 982 133<452.639 580.634>
Fore
871 1273 m 0x3f40
 807 1273 757 1215 757 1158 c 0
 757 1116 790 1081 838 1081 c 0
 902 1081 952 1139 952 1196 c 0
 952 1238 919 1273 871 1273 c 0x3f40
1099 1220 m 0
 1099 1159 1076 1105 1049 1067 c 1
 1531 1077 1677 1165 1762 1228 c 1
 1717 978 l 1
 1472 834 1037 831 978 831 c 0
 677 831 482 660 482 443 c 0
 482 328 552 225 693 225 c 0xbf40
 728 225 770 230 820 240 c 1
 730 293 684 359 684 439 c 0
 684 605 828 716 944 716 c 0
 1043 716 1115 646 1115 548 c 0
 1115 480 1088 402 1023 354 c 1
 1090 286 1230 248 1443 240 c 1
 1401 0 l 1x7ea0
 1252 11 1128 35 1028 72 c 1
 971 24 737 -1 653 -1 c 0xbea0
 471 -1 203 78 203 390 c 0
 203 549 259 745 397 868 c 0
 487 948 573 995 656 1008 c 1
 626 1044 610 1085 610 1132 c 0
 610 1283 747 1417 897 1417 c 0
 1026 1417 1099 1320 1099 1220 c 0
921 584 m 0
 874 584 835 542 835 498 c 0
 835 466 860 440 896 440 c 0
 943 440 982 482 982 526 c 0x3ea0
 982 558 957 584 921 584 c 0
EndSplineSet
EndChar
StartChar: uni0E56
Encoding: 3670 3670 205
Width: 1380
Flags: W
HStem: 0 236<658 889.815> 454 128<443.989 596.82> 830 242<619.048 935.94> 1433 20G<272.607 355.5>
VStem: 270 151<228 433.314> 356 187<813.229 1166> 604 143<330.416 446.927> 1085 273<411.139 704.081>
Fore
747 406 m 0xfb
 747 385 731 259 684 236 c 1
 1057 249 1085 507 1085 570 c 0
 1085 735 937 830 726 830 c 0
 608 830 474 803 349 720 c 1
 354 759 356 797 356 833 c 0
 356 975 313 1134 201 1209 c 1
 279 1453 l 1
 432 1407 543 1256 543 1076 c 0xf7
 543 1062 542 1047 541 1032 c 1
 622 1059 705 1072 793 1072 c 0
 1100 1072 1358 950 1358 644 c 0
 1358 416 1259 265 1126 158 c 0
 982 41 816 0 658 0 c 0
 361 0 270 171 270 285 c 0
 270 423 377 582 549 582 c 0
 662 582 747 505 747 406 c 0xfb
421 352 m 0xfb
 421 322 444 283 501 283 c 0
 555 283 604 330 604 383 c 0
 604 416 580 454 525 454 c 0
 464 454 421 395 421 352 c 0xfb
EndSplineSet
EndChar
StartChar: uni0E57
Encoding: 3671 3671 206
Width: 1800
Flags: W
HStem: -16 132<519.322 650.871> 260 132<527.08 659.704> 813 249<566.199 713.988 1035.47 1182.4>
VStem: 183 270<337.548 528.854> 662 134<128.449 257.678> 1200 283<444.902 798.434> 1696 233<822.79 1264>
Fore
1157 1062 m 0
 1418 1062 1483 896 1483 746 c 0
 1483 557 1417 344 1365 233 c 1
 1457 336 1536 472 1603 641 c 0
 1665 799 1696 1021 1696 1307 c 2
 1696 1368 l 9
 1929 1264 l 17
 1913 808 1831 482 1682 287 c 0
 1534 92 1379 -6 1217 -6 c 2
 957 -6 l 1
 1142 280 1200 542 1200 679 c 0
 1200 769 1170 813 1109 813 c 0
 1045 812 1000 740 975 597 c 2
 956 486 l 9
 697 486 l 17
 716 597 l 2
 744 753 713 813 648 813 c 0
 486 813 453 407 453 363 c 0
 453 343 455 333 461 332 c 1
 508 372 562 392 625 392 c 0
 734 392 796 310 796 226 c 0
 796 98 678 -16 558 -16 c 0
 359 -16 183 64 183 386 c 0
 183 533 261 1062 676 1062 c 0
 817 1062 877 999 901 922 c 1
 961 1015 1047 1062 1157 1062 c 0
602 260 m 0
 559 260 516 223 516 175 c 0
 516 143 539 116 576 116 c 0
 619 116 662 153 662 201 c 0
 662 233 639 260 602 260 c 0
EndSplineSet
EndChar
StartChar: uni0E58
Encoding: 3672 3672 207
Width: 1600
Flags: W
HStem: 0 261<1046.84 1291.69> 405 135<1223.94 1357.18> 831 236<715.776 1117.53> 1208 20G<1699.5 1738.4>
VStem: 187 274<300.323 601.494> 1080 132<263.524 391.33> 1359 135<273.295 401.61>
Fore
1494 371 m 0
 1494 241 1385 0 1100 0 c 0
 922 0 817 66 786 198 c 9
 692 0 l 17
 444 0 187 84 187 418 c 0
 187 710 380 857 442 904 c 0
 578 1009 771 1063 1018 1067 c 0
 1504 1075 1657 1165 1742 1228 c 1
 1697 978 l 1
 1452 834 1017 831 958 831 c 0
 665 831 461 670 461 430 c 0
 461 296 557 253 560 252 c 1
 696 554 l 9
 917 511 l 17
 952 327 1021 221 1123 194 c 1
 1094 226 1080 262 1080 303 c 0
 1080 421 1192 540 1323 540 c 0
 1431 540 1494 461 1494 371 c 0
1298 405 m 0
 1251 405 1212 363 1212 319 c 0
 1212 287 1237 261 1273 261 c 0
 1320 261 1359 303 1359 347 c 0
 1359 379 1334 405 1298 405 c 0
EndSplineSet
EndChar
StartChar: uni0E59
Encoding: 3673 3673 208
Width: 1670
Flags: W
HStem: 0 161<495.5 772.116> 305 132<658.223 788.776> 832.492 243.705<576.004 813.003> 845.039 230.961<1231.12 1376.92> 1202 20G<1737.5 1768.66>
VStem: 191.636 257.243<288.454 691.373> 791.136 134.352<174.662 302.551>
Fore
592 0 m 0xee
 399 0 191.636 117.755 191.636 455.84 c 0
 191.636 817.637 434.065 1076.2 797.71 1076.2 c 0xee
 854.139 1076.2 971 1069 1072 936 c 1
 1172 1068 1266 1076 1312 1076 c 256
 1482 1076 1516 977 1524 957 c 1
 1641 1025 1714 1134 1761 1222 c 1
 1846 1000 l 1
 1806 921 1707 755 1419 676 c 1
 1412 760 1378.22 845.039 1283.37 845.039 c 0xde
 1253.65 845.039 1214 815 1165 757 c 1
 1302 481 1350 183 1370 0 c 9
 1116 0 l 17
 1072 231 1019 426 957 582 c 0
 860 827 756.323 832.492 706.154 832.492 c 0
 603.244 832.492 448.879 760.603 448.879 473.046 c 0
 448.879 378.468 471 309 517 258 c 1
 522 291 605 437 754 437 c 0
 863 437 925.488 354.591 925.488 270.772 c 0
 925.488 117.613 770 0 592 0 c 0xee
731 305 m 0
 688 305 644.864 267.858 644.864 219.829 c 0
 644.864 187.769 668 161 705 161 c 0
 748 161 791.136 198.142 791.136 246.171 c 0
 791.136 278.231 768 305 731 305 c 0
EndSplineSet
EndChar
StartChar: uni0E5A
Encoding: 3674 3674 209
Width: 1600
Flags: W
HStem: 0 21G<872 1119.53 1223 1470.51> 591 340<431.728 685.5> 1080 158<445.925 577.604>
VStem: 211 217<784.5 1061.81> 582 174<944.048 1076.87>
Fore
428 991 m 0
 428 958 455 931 493 931 c 16
 544 931 582 974 582 1016 c 0
 582 1051 556 1080 518 1080 c 0
 471 1080 428 1033 428 991 c 0
756 1037 m 0
 756 972 729 893 664 851 c 1
 777 882 904 997 1043 1196 c 1
 1313 1116 l 1
 1116 0 l 1
 872 0 l 1
 1016 819 l 1
 957 724 788 591 583 591 c 0
 386 591 211 685 211 884 c 0
 211 1127 404 1238 548 1238 c 0
 672 1238 756 1145 756 1037 c 0
1467 0 m 1
 1223 0 l 1
 1416 1096 l 1
 1649 1036 l 1
 1467 0 l 1
EndSplineSet
EndChar
StartChar: uni0E5B
Encoding: 3675 3675 210
Width: 2550
Flags: W
HStem: 0 264<588.226 870.82> 258 229<1486 1573.61 1854 1934.24> 299 216<2282.98 2558> 411 131<804.229 933.94> 687 131<815.627 946.998> 919 269<669.706 945.59>
VStem: 218 266<369.754 707.904> 669 133<544.852 673.559>
Fore
484 502 m 0x9f
 484 378 582 264 734 264 c 0x9f
 788 264 970 285 1086 395 c 0
 1162 466 1236 583 1309 745 c 1
 1471 675 l 1
 1486 487 l 1
 1493 487 l 2
 1558 487 1626 576 1698 746 c 9
 1836 675 l 9
 1854 487 l 1
 1860 487 l 0x4f
 1919 487 1984 576 2056 746 c 9
 2194 675 l 1
 2207 571 2312 515 2508 515 c 0
 2536 515 2565 515 2596 517 c 1
 2558 299 l 1x2f
 2237 300 2074 348 2069 444 c 1
 2006 320 1908 257 1775 257 c 0
 1756 257 1736 259 1716 261 c 1
 1711 444 l 17
 1655 320 1554 258 1407 258 c 0x4f
 1388 258 1368 259 1348 261 c 1
 1345 347 l 17
 1341 346 1294 298 1205 201 c 0
 1082 67 909 0 684 0 c 0
 489 0 218 93 218 471 c 0
 218 730 418 1188 896 1188 c 0
 1158 1188 1223 1004 1223 867 c 0
 1223 607 1039 411 838 411 c 0
 731 411 669 490 669 578 c 0
 669 700 780 818 910 818 c 0
 937 818 960 814 981 806 c 1
 969 887 902 919 814 919 c 0
 636 919 484 750 484 502 c 0x9f
949 627 m 0
 949 660 926 687 889 687 c 0
 842 687 802 645 802 602 c 0
 802 573 824 542 864 542 c 0
 905 542 949 580 949 627 c 0
EndSplineSet
EndChar
StartChar: afii301
Encoding: 8205 8205 212
Width: 0
Flags: W
VStem: -84 544<-275 1364>
Fore
-12 -275 m 1
 -84 -275 l 1
 160 1114 l 1
 2 978 l 1
 -38 1027 l 1
 163 1196 l 1
 22 1364 l 1
 79 1413 l 1
 219 1242 l 1
 419 1413 l 1
 460 1364 l 1
 259 1196 l 1
 400 1027 l 1
 342 978 l 1
 232 1114 l 1
 -12 -275 l 1
EndSplineSet
EndChar
StartChar: afii299
Encoding: 8206 8206 213
Width: 0
Flags: W
HStem: 1163 71<240 506>
VStem: -84 725<-275 1198>
Fore
641 1198 m 1
 387 984 l 1
 346 1033 l 1
 506 1163 l 1
 240 1163 l 1
 -13 -275 l 1
 -84 -275 l 1
 182 1234 l 1
 519 1234 l 1
 405 1364 l 1
 462 1413 l 1
 641 1198 l 1
EndSplineSet
EndChar
StartChar: afii300
Encoding: 8207 8207 214
Width: 0
Flags: W
HStem: 1163 71<-84 169>
VStem: -220 473<1198 1234>
Fore
-13 -275 m 1
 -84 -275 l 1
 169 1163 l 1
 -97 1163 l 1
 17 1033 l 1
 -40 984 l 1
 -220 1198 l 1
 35 1413 l 1
 76 1364 l 1
 -84 1234 l 1
 253 1234 l 1
 -13 -275 l 1
EndSplineSet
EndChar
StartChar: uni2010
Encoding: 8208 8208 215
Width: 973
Flags: W
HStem: 543 225<325 911>
VStem: 286 664<543 768>
Fore
325 768 m 1
 950 768 l 1
 911 543 l 1
 286 543 l 1
 325 768 l 1
EndSplineSet
EndChar
StartChar: endash
Encoding: 8211 8211 216
Width: 1024
Flags: W
HStem: 432 258<122 1100>
Fore
122 690 m 1
 1146 690 l 1
 1100 432 l 1
 76 432 l 1
 122 690 l 1
EndSplineSet
EndChar
StartChar: emdash
Encoding: 8212 8212 217
Width: 2048
Flags: W
HStem: 432 258<122 2124>
Fore
122 690 m 1
 2170 690 l 1
 2124 432 l 1
 76 432 l 1
 122 690 l 1
EndSplineSet
EndChar
StartChar: afii00208
Encoding: 8213 8213 218
Width: 1862
Flags: W
HStem: 572 160<239 1853>
Fore
1853 572 m 1
 211 572 l 1
 239 732 l 1
 1881 732 l 1
 1853 572 l 1
EndSplineSet
EndChar
StartChar: underscoredbl
Encoding: 8215 8215 219
Width: 1118
Flags: W
HStem: -423 130<-68 1059> -212 130<-30 1097>
Fore
1097 -212 m 1
 -53 -212 l 1
 -30 -82 l 1
 1120 -82 l 1
 1097 -212 l 1
1059 -423 m 1
 -91 -423 l 1
 -68 -293 l 1
 1082 -293 l 1
 1059 -423 l 1
EndSplineSet
EndChar
StartChar: quoteleft
Encoding: 8216 8216 220
Width: 778
Flags: W
VStem: 362 552<856 1493>
Fore
702 856 m 1
 362 856 l 1
 412 1141 l 1
 701 1493 l 1
 914 1493 l 1
 752 1141 l 1
 702 856 l 1
EndSplineSet
EndChar
StartChar: quoteright
Encoding: 8217 8217 221
Width: 778
Flags: W
VStem: 280 552<856 1493>
Fore
492 1493 m 1
 832 1493 l 1
 782 1208 l 1
 493 856 l 1
 280 856 l 1
 442 1208 l 1
 492 1493 l 1
EndSplineSet
EndChar
StartChar: quotesinglbase
Encoding: 8218 8218 222
Width: 778
Flags: W
HStem: -250 637<314 316>
VStem: 103 553<-250 387>
Fore
316 387 m 1
 656 387 l 1
 606 102 l 1
 314 -250 l 1
 103 -250 l 1
 266 102 l 1
 316 387 l 1
EndSplineSet
EndChar
StartChar: quotereversed
Encoding: 8219 8219 223
Width: 432
Flags: W
HStem: 997 559<354 609>
VStem: 112 497<997 1556>
Fore
609 1556 m 1
 354 997 l 1
 112 997 l 1
 471 1556 l 1
 609 1556 l 1
EndSplineSet
EndChar
StartChar: quotedblleft
Encoding: 8220 8220 224
Width: 1346
Flags: W
Fore
1208 856 m 1
 868 856 l 1
 918 1139 l 1
 1207 1493 l 1
 1420 1493 l 1
 1258 1139 l 1
 1208 856 l 1
702 856 m 1
 362 856 l 1
 412 1141 l 1
 701 1493 l 1
 914 1493 l 1
 752 1141 l 1
 702 856 l 1
EndSplineSet
EndChar
StartChar: quotedblright
Encoding: 8221 8221 225
Width: 1346
Flags: W
HStem: 856 637<552 552 552 552>
Fore
552 1493 m 1
 892 1493 l 1
 842 1208 l 1
 552 856 l 1
 339 856 l 1
 502 1208 l 1
 552 1493 l 1
1058 1493 m 1
 1398 1493 l 1
 1348 1206 l 1
 1058 856 l 1
 845 856 l 1
 1008 1206 l 1
 1058 1493 l 1
EndSplineSet
EndChar
StartChar: quotedblbase
Encoding: 8222 8222 226
Width: 1346
Flags: W
HStem: -250 637<314 316>
Fore
316 387 m 1
 656 387 l 1
 606 102 l 1
 314 -250 l 1
 103 -250 l 1
 266 102 l 1
 316 387 l 1
822 387 m 1
 1162 387 l 1
 1112 100 l 1
 822 -250 l 1
 609 -250 l 1
 772 100 l 1
 822 387 l 1
EndSplineSet
EndChar
StartChar: dagger
Encoding: 8224 8224 227
Width: 1024
Flags: W
HStem: 874 238<249 496 868 1117>
VStem: 207 952<874 1112>
Fore
605 1493 m 1
 935 1493 l 1
 868 1112 l 1
 1159 1112 l 1
 1117 874 l 1
 826 874 l 1
 637 -197 l 1
 307 -197 l 1
 496 874 l 1
 207 874 l 1
 249 1112 l 1
 538 1112 l 1
 605 1493 l 1
EndSplineSet
EndChar
StartChar: daggerdbl
Encoding: 8225 8225 228
Width: 1024
Flags: W
HStem: 184 238<125 374 746 995> 874 238<249 496 868 1117>
Fore
605 1493 m 1
 935 1493 l 1
 868 1112 l 1
 1159 1112 l 1
 1117 874 l 1
 826 874 l 1
 746 422 l 1
 1037 422 l 1
 995 184 l 1
 704 184 l 1
 637 -197 l 1
 307 -197 l 1
 374 184 l 1
 83 184 l 1
 125 422 l 1
 416 422 l 1
 496 874 l 1
 207 874 l 1
 249 1112 l 1
 538 1112 l 1
 605 1493 l 1
EndSplineSet
EndChar
StartChar: bullet
Encoding: 8226 8226 229
Width: 1309
Flags: W
Fore
423 697 m 0
 423 926 630 1120 852 1120 c 256
 1036 1120 1154 988 1154 828 c 0
 1154 605 954 401 724 401 c 0
 539 401 423 534 423 697 c 0
EndSplineSet
EndChar
StartChar: ellipsis
Encoding: 8230 8230 230
Width: 2048
Flags: W
HStem: 0 387<230 522 912 1204 1594 1886>
Fore
1594 387 m 1
 1954 387 l 1
 1886 0 l 1
 1526 0 l 1
 1594 387 l 1
230 387 m 1
 590 387 l 1
 522 0 l 1
 162 0 l 1
 230 387 l 1
912 387 m 1
 1272 387 l 1
 1204 0 l 1
 844 0 l 1
 912 387 l 1
EndSplineSet
EndChar
StartChar: perthousand
Encoding: 8240 8240 231
Width: 2949
Flags: W
HStem: -29 170<1522.56 1713.68 2438.19 2628.97> 616 168<1594.45 1784.49 2509.24 2699.89> 707 167<530.325 722.948> 1352 168<600.169 790.902>
VStem: 253 250<899.42 1231.57> 819 251<997.503 1324.42> 1244 253<165.96 493.651> 1810 253<259.142 590.315> 2159 253<167.165 493.16> 2726 252<264.46 591.846>
Fore
2726 467 m 0xdfc0
 2726 557 2691 616 2612 616 c 0
 2452 616 2412 386 2412 292 c 0
 2412 200 2448 141 2528 141 c 0
 2686 141 2726 374 2726 467 c 0xdfc0
2159 282 m 0
 2159 514 2304 784 2641 784 c 0
 2905 784 2978 619 2978 476 c 0
 2978 243 2831 -29 2498 -29 c 0
 2227 -29 2159 147 2159 282 c 0
819 1201 m 0
 819 1272 796 1352 703 1352 c 0
 543 1352 503 1117 503 1027 c 0
 503 935 538 874 619 874 c 0xbfc0
 779 874 819 1111 819 1201 c 0
732 1520 m 0
 944 1520 1070 1410 1070 1212 c 0
 1070 993 935 707 590 707 c 256
 327 707 253 872 253 1017 c 0
 253 1242 394 1520 732 1520 c 0
665 -29 m 1
 444 -29 l 1
 1650 1520 l 1
 1872 1520 l 1
 665 -29 l 1
1244 277 m 0
 1244 521 1395 784 1725 784 c 256xdfc0
 1995 784 2063 612 2063 476 c 0
 2063 245 1918 -29 1582 -29 c 256
 1312 -29 1244 146 1244 277 c 0
1810 466 m 0
 1810 557 1775 616 1696 616 c 256
 1536 616 1497 385 1497 292 c 0
 1497 200 1532 141 1612 141 c 256
 1771 141 1810 372 1810 466 c 0
EndSplineSet
EndChar
StartChar: minute
Encoding: 8242 8242 232
Width: 602
Flags: W
HStem: 870 619<426 834>
VStem: 290 544<870 1489>
Fore
834 1489 m 1
 426 870 l 1
 290 870 l 1
 594 1489 l 1
 834 1489 l 1
EndSplineSet
EndChar
StartChar: second
Encoding: 8243 8243 233
Width: 972
Flags: W
HStem: 870 619<422 830>
VStem: 290 934<870 1489>
Fore
830 1489 m 1
 422 870 l 1
 290 870 l 1
 594 1489 l 1
 830 1489 l 1
1224 1489 m 1
 816 870 l 1
 684 870 l 1
 988 1489 l 1
 1224 1489 l 1
EndSplineSet
EndChar
StartChar: guilsinglleft
Encoding: 8249 8249 234
Width: 844
Flags: W
HStem: 137 926<675 838>
VStem: 247 591<506 1063>
Fore
838 1063 m 1
 796 821 l 1
 464 600 l 1
 718 379 l 1
 675 137 l 1
 247 506 l 1
 280 692 l 1
 838 1063 l 1
EndSplineSet
EndChar
StartChar: guilsinglright
Encoding: 8250 8250 235
Width: 844
Flags: W
HStem: 137 926<217 380>
VStem: 217 591<137 692>
Fore
380 1063 m 1
 808 692 l 1
 775 506 l 1
 217 137 l 1
 260 379 l 1
 591 600 l 1
 338 821 l 1
 380 1063 l 1
EndSplineSet
EndChar
StartChar: uni203E
Encoding: 8254 8254 237
Width: 1118
Flags: W
HStem: 1658 131<267 1410>
Fore
1410 1658 m 1
 244 1658 l 1
 267 1789 l 1
 1433 1789 l 1
 1410 1658 l 1
EndSplineSet
EndChar
StartChar: fraction
Encoding: 8260 8260 238
Width: 886
Flags: W
HStem: 0 21G<-29 150.009>
Fore
1179 1489 m 1
 136 0 l 1
 -29 0 l 1
 1014 1489 l 1
 1179 1489 l 1
EndSplineSet
EndChar
StartChar: uni207F
Encoding: 8319 8319 239
Width: 1010
Flags: W
HStem: 1368 151<729.879 906.55>
VStem: 928 177<1178.68 1343.22>
Fore
854 1519 m 0
 1055 1519 1105 1388 1105 1269 c 0
 1105 1236 1102 1201 1095 1163 c 2
 990 566 l 1
 818 566 l 1
 910 1088 l 2
 920 1148 928 1209 928 1240 c 0
 928 1334 882 1368 782 1368 c 0
 729 1368 656 1352 517 1254 c 1
 396 566 l 1
 225 566 l 1
 387 1488 l 1
 558 1488 l 1
 541 1388 l 1
 705 1511 791 1519 854 1519 c 0
EndSplineSet
EndChar
StartChar: dottedcircle
Encoding: 9676 9676 240
Width: 1247
Flags: W
HStem: 7 121<568.044 677.918> 68 121<873.014 983.206> 98 121<319.207 430.292> 234 121<1068.21 1177.96> 249 121<203.044 313.609> 438 121<1179.21 1290.29> 445 121<116.684 226.771> 679 121<172.359 284.166 1208.18 1319.08> 868 121<312.014 422.206> 891 121<1138.18 1249.17> 1011 121<526.207 636.247> 1034 121<975.207 1085.97> 1079 121<764.207 874.247>
VStem: 110 123<450.848 559.781> 166 124<685.013 793.884> 197 122<254.005 364.862> 306 122<873.721 983.872> 313 123<104.097 213.139> 520 122<1016.02 1126.14> 562 123<13.6871 100.828> 758 122<1084.02 1194.14> 867 122<73.7215 183.872> 969 123<1040.19 1127.25> 1062 122<239.532 349.139> 1132 123<897.097 1006.48> 1173 123<444.097 553.139> 1202 123<685.168 794.814>
Fore
356 868 m 0x018080
 321 868 306 891 306 917 c 0
 306 950 332 989 377 989 c 0
 412 989 428 966 428 940 c 0
 428 906 401 868 356 868 c 0x018080
570 1011 m 0x012020
 535 1011 520 1034 520 1059 c 0
 520 1093 547 1132 592 1132 c 0
 626 1132 642 1109 642 1083 c 0
 642 1049 616 1011 570 1011 c 0x012020
808 1079 m 0x010808
 773 1079 758 1102 758 1127 c 0
 758 1161 785 1200 830 1200 c 0
 864 1200 880 1177 880 1151 c 0
 880 1117 854 1079 808 1079 c 0x010808
110 492 m 0x0304
 110 530 142 566 182 566 c 0
 217 566 233 543 233 517 c 0
 233 484 206 445 160 445 c 0
 130 445 110 464 110 492 c 0x0304
247 249 m 0x0901
 212 249 197 272 197 297 c 0
 197 331 223 370 268 370 c 0
 303 370 319 347 319 320 c 0
 319 287 293 249 247 249 c 0x0901
385 219 m 0x210040
 418 219 436 197 436 169 c 0
 436 133 404 98 363 98 c 0
 328 98 313 121 313 146 c 0
 313 180 340 219 385 219 c 0x210040
634 128 m 0x810010
 671 128 685 98 685 79 c 0
 685 46 653 7 612 7 c 0
 577 7 562 30 562 55 c 0
 562 89 588 128 634 128 c 0x810010
917 68 m 0x410004
 882 68 867 91 867 117 c 0
 867 150 893 189 938 189 c 0
 973 189 989 166 989 140 c 0
 989 106 962 68 917 68 c 0x410004
1112 234 m 0x110001
 1077 234 1062 257 1062 282 c 0
 1062 316 1089 355 1134 355 c 0
 1169 355 1184 332 1184 307 c 0
 1184 273 1158 234 1112 234 c 0x110001
1245 559 m 0x05000040
 1278 559 1296 537 1296 509 c 0
 1296 473 1264 438 1223 438 c 0
 1188 438 1173 461 1173 486 c 0
 1173 520 1200 559 1245 559 c 0x05000040
1325 751 m 0x01000020
 1325 710 1291 679 1252 679 c 0
 1217 679 1202 701 1202 727 c 0
 1202 761 1229 800 1273 800 c 0
 1304 800 1325 779 1325 751 c 0x01000020
1255 963 m 0x01400080
 1255 921 1219 891 1182 891 c 0
 1147 891 1132 914 1132 939 c 0
 1132 973 1159 1012 1203 1012 c 0
 1239 1012 1255 986 1255 963 c 0x01400080
1092 1106 m 0x011002
 1092 1070 1062 1034 1019 1034 c 0
 984 1034 969 1057 969 1082 c 0
 969 1116 996 1155 1041 1155 c 0
 1080 1155 1092 1126 1092 1106 c 0x011002
166 727 m 0x0102
 166 765 198 800 238 800 c 0
 274 800 290 774 290 751 c 0
 290 709 254 679 217 679 c 0
 187 679 166 698 166 727 c 0x0102
EndSplineSet
EndChar
StartChar: uni0E10.descless
Encoding: 63232 63232 241
Width: 1251
Flags: W
HStem: 0 21G<677.336 986.571> 205 144<379.674 518.055> 498 144<392.688 527.835> 984 241<621.002 1073.81>
VStem: 229 148<351.706 482.916>
Back
1125 984 m 29,0,-1
1038 537 m 14,1,-1
 1038 0 l 5,2,-1
 727 0 l 5,3,-1
 509 336 l 5,4,5
 494.333 312 471.167 292.333 439.5 277 c 4,6,7
 407.833 261.667 374 254.333 338 255 c 4,8,9
 274.667 255.667 222 276 180 316 c 4,10,11
 138 356 117 405.667 117 465 c 4,12,13
 117 531.667 140.167 586.333 186.5 629 c 4,14,15
 232.833 671.667 289 692.667 355 692 c 4,16,17
 398.333 692 440.333 682.167 481 662.5 c 4,18,19
 521.667 642.833 557.667 616.5 589 583.5 c 4,20,21
 620.333 550.5 646.667 518.667 668 488 c 4,22,23
 689.333 457.333 708.333 425.667 725 393 c 5,24,-1
 724 590 l 6,25,26
 724 626.667 695.333 660.167 638 690.5 c 4,27,28
 580.667 720.833 512.167 744.167 432.5 760.5 c 4,29,30
 352.833 776.833 278.833 789.5 210.5 798.5 c 4,31,32
 142.167 807.5 88.6667 812 50 812 c 5,33,-1
 49 1085 l 5,34,35
 253 1178.33 441.333 1225 614 1225 c 4,36,37
 658 1225 715.667 1214.67 787 1194 c 4,38,39
 858.333 1173.33 916.333 1162 961 1160 c 4,40,41
 1015 1157.33 1069.67 1172 1125 1204 c 5,42,-1
 1125 984 l 5,43,44
 1077 945.333 1017.67 927.333 947 930 c 4,45,46
 916.333 930.667 865.167 939.833 793.5 957.5 c 4,47,48
 721.833 975.167 663.333 984 618 984 c 4,49,50
 576.667 986 533.167 983.333 487.5 976 c 4,51,52
 441.833 968.667 402.667 957 370 941 c 5,53,-1
 407 938.5 l 6,54,55
 431.667 936.833 463.667 932.667 503 926 c 4,56,57
 542.333 919.333 585.667 910.667 633 900 c 4,58,59
 680.333 889.333 727.667 873.667 775 853 c 4,60,61
 822.333 832.333 865.667 808.5 905 781.5 c 4,62,63
 944.333 754.5 976.333 719.833 1001 677.5 c 4,64,65
 1025.67 635.167 1038 588.333 1038 537 c 14,1,-1
336 399 m 28,43,-1
 356.667 399 374.5 406 389.5 420 c 4,44,45
 404.5 434 412.333 451.333 413 472 c 4,46,47
 413 493.333 405.5 511.333 390.5 526 c 4,48,49
 375.5 540.667 357.667 548 337 548 c 4,50,51
 316.333 548 298.5 540.667 283.5 526 c 4,52,53
 268.5 511.333 261 493.333 261 472 c 4,54,55
 261 451.333 268.333 434 283 420 c 4,56,57
 297.667 406 315.333 399 336 399 c 28,43,-1
797 -45 m 4,58,59
EndSplineSet
Fore
1122 858 m 1
 1111 959 997 984 896 984 c 0
 729 984 649 951 618 938 c 1
 1079 808 l 2
 1164 784 1207 733 1207 655 c 0
 1207 619 1198 578 1180 531 c 2
 979 0 l 1
 683 0 l 1
 602 286 l 1
 567 242 496 205 423 205 c 0
 304 205 229 273 229 381 c 0
 229 496 338 642 508 642 c 0
 511 642 l 0
 584 642 642 614 686 558 c 0
 732 501 769 435 797 360 c 1
 865 530 l 2
 870 543 872 555 872 566 c 0
 872 610 823 643 734 666 c 2
 277 782 l 1
 331 1088 l 1
 431 1127 693 1225 934 1225 c 0
 1133 1225 1272 1191 1351 1122 c 1
 1122 858 l 1
377 409 m 0
 377 376 403 349 441 349 c 24
 492 349 531 393 531 437 c 0
 531 470 506 498 468 498 c 0
 420 498 377 455 377 409 c 0
EndSplineSet
EndChar
StartChar: uni0E48.low
Encoding: 63242 63242 251
Width: 0
Flags: W
VStem: -201 308<1364 1764>
AnchorPoint: "AboveBase" 22.4043 1284 mark 0
Fore
-131 1764 m 25
 107 1764 l 1
 37 1364 l 1
 -201 1364 l 1
 -131 1764 l 25
EndSplineSet
EndChar
StartChar: uni0E49.low
Encoding: 63243 63243 252
Width: 0
Flags: W
HStem: 1329 281<-382 -157.486> 1738 100<-270.545 -142.18>
VStem: -372 92<1611.84 1728.51> -141 114<1620.23 1735.94>
AnchorPoint: "AboveBase" -63.5957 1284 mark 0
Fore
-372 1645 m 0
 -372 1781 -238 1838 -174 1838 c 0
 -74 1838 -27 1763 -27 1692 c 0
 -27 1634 -60 1568 -110 1514 c 1
 1 1533 129 1629 274 1802 c 1
 376 1642 l 1
 171 1428 -122 1329 -382 1329 c 2
 -395 1329 l 1
 -366 1478 l 1
 -290 1484 -290 1483 -248 1520 c 1
 -258 1520 l 2
 -301 1520 -372 1550 -372 1645 c 0
-198 1738 m 0
 -245 1738 -280 1701 -280 1662 c 0
 -280 1633 -256 1610 -223 1610 c 8
 -174 1610 -141 1652 -141 1688 c 0
 -141 1717 -165 1738 -198 1738 c 0
EndSplineSet
EndChar
StartChar: uni0E4A.low
Encoding: 63244 63244 253
Width: 0
Flags: W
HStem: 1326 95<-419.237 -301.533> 1532 74<-392.588 -298.088>
VStem: -559 138<1432.74 1523.88> -297 79<1429.49 1531.44> -56 154<1479.77 1638.12>
AnchorPoint: "AboveBase" 68.4043 1284 mark 0
Fore
-371 1421 m 0
 -341 1421 -297 1447 -297 1485 c 0
 -297 1508 -317 1532 -348 1532 c 0
 -390 1532 -421 1493 -421 1463 c 0
 -421 1441 -406 1421 -371 1421 c 0
-218 1497 m 0
 -218 1429 -281 1326 -390 1326 c 0
 -474 1326 -559 1391 -559 1486 c 0
 -559 1562 -493 1718 -316 1780 c 1
 -191 1692 l 1
 -51 1782 l 1
 35 1751 98 1662 98 1582 c 0
 98 1508 52 1480 15 1442 c 1
 112 1475 219 1658 263 1775 c 1
 404 1654 l 1
 359 1531 140 1330 -75 1327 c 1
 -128 1449 l 1
 -108 1464 -56 1500 -56 1586 c 0
 -56 1615 -65 1637 -84 1654 c 1
 -213 1577 l 1
 -326 1651 l 1
 -370 1618 -365 1622 -393 1586 c 1
 -388 1604 -398 1606 -336 1606 c 0
 -266 1604 -218 1556 -218 1497 c 0
EndSplineSet
EndChar
StartChar: uni0E4B.low
Encoding: 63245 63245 254
Width: 0
Flags: W
HStem: 1495 202<-386 -266 -20 99>
VStem: -421 555<1495 1697>
AnchorPoint: "AboveBase" -1.5957 1284 mark 0
Fore
99 1495 m 1
 -55 1495 l 1
 -83 1341 l 1
 -294 1341 l 1
 -266 1495 l 1
 -421 1495 l 1
 -386 1697 l 1
 -231 1697 l 1
 -204 1851 l 1
 7 1851 l 1
 -20 1697 l 1
 134 1697 l 1
 99 1495 l 1
EndSplineSet
EndChar
StartChar: uni0E4C.low
Encoding: 63246 63246 255
Width: 0
Flags: W
HStem: 1316 122<-323.385 -185.984>
VStem: -470 144<1441.61 1573.53> -173 145<1451.57 1589.58>
AnchorPoint: "AboveBase" -70.417 1268 mark 0
Fore
-28 1577 m 0
 -28 1419 -163 1316 -282 1316 c 0
 -415 1316 -470 1400 -470 1486 c 0
 -470 1599 -371 1736 -205 1756 c 0
 -133 1766 230 1770 345 1837 c 1
 342 1654 l 1
 280 1621 209 1615 167 1615 c 0
 152 1615 77 1621 16 1621 c 0
 -4 1621 -22 1621 -39 1618 c 1
 -33 1601 -28 1597 -28 1577 c 0
-261 1438 m 0
 -221 1438 -173 1474 -173 1527 c 0
 -173 1569 -196 1591 -232 1591 c 8
 -280 1591 -326 1545 -326 1499 c 0
 -326 1463 -296 1438 -261 1438 c 0
EndSplineSet
EndChar
StartChar: uni0E0D.descless
Encoding: 63247 63247 256
Width: 1968
Flags: W
HStem: -11 189<335.705 542.356> 0 221<1225 1506> 994 241<557.258 962.548>
VStem: 558 208<193.359 324.108>
Fore
854 1235 m 0xb0
 1114 1235 1341 1166 1341 914 c 0
 1341 885 1338 854 1332 822 c 2
 1225 221 l 1
 1506 221 l 1
 1679 1202 l 1
 1987 1202 l 1
 1775 0 l 1
 876 0 l 1x70
 1018 806 l 2
 1020 819 1022 831 1022 843 c 0
 1022 965 883 994 765 994 c 0
 679 994 610 975 552 947 c 1
 738 856 l 1
 704 660 l 1
 538 611 513 542 507 505 c 1
 573 502 l 2
 662 498 766 420 766 295 c 0
 766 138 630 -11 408 -11 c 0
 265 -11 154 98 154 225 c 0
 154 257 155 291 162 329 c 2
 188 474 l 2
 198 531 227 664 388 744 c 1
 216 821 l 1
 266 1097 l 1
 553 1208 736 1235 854 1235 c 0xb0
558 268 m 0
 558 301 533 327 495 327 c 24
 451 327 404 290 404 239 c 0
 404 213 423 178 468 178 c 0xb0
 518 178 558 223 558 268 c 0
EndSplineSet
EndChar
StartChar: uniF71B
Encoding: 63259 63259 268
Width: 1000
Flags: W
HStem: 1065 20G<402.484 1021>
VStem: 226 795<61 1085>
Fore
1021 1085 m 1
 841 61 l 1
 226 61 l 1
 406 1085 l 1
 1021 1085 l 1
EndSplineSet
EndChar
StartChar: uniF71C
Encoding: 63260 63260 269
Width: 700
Flags: W
HStem: -423 269<32 217>
VStem: 32 427<-423 -154>
Fore
32 -423 m 1
 217 -154 l 1
 459 -154 l 1
 170 -423 l 1
 32 -423 l 1
EndSplineSet
EndChar
StartChar: uniF71D
Encoding: 63261 63261 270
Width: 800
Flags: W
HStem: -236 211<178 224 510 574> -127 102<244 510>
VStem: 140 472<-236 -25>
Fore
574 -236 m 1xa0
 490 -236 l 1xa0
 510 -127 l 1
 244 -127 l 1x60
 224 -236 l 1
 140 -236 l 1
 178 -25 l 1xa0
 612 -25 l 1x60
 574 -236 l 1xa0
EndSplineSet
EndChar
StartChar: afii61664
Encoding: 8204 8204 271
Width: 0
Flags: W
VStem: -84 347<-275 1289>
Fore
263 1289 m 1
 -12 -275 l 1
 -84 -275 l 1
 191 1289 l 1
 263 1289 l 1
EndSplineSet
EndChar
StartChar: uni00B9
Encoding: 185 185 274
Width: 897
Flags: W
HStem: 668 157<286 493 723 900>
VStem: 259 668<668 825>
Fore
286 825 m 1
 493 825 l 1
 585 1346 l 1
 351 1294 l 1
 379 1454 l 1
 617 1503 l 1
 843 1503 l 1
 723 825 l 1
 927 825 l 1
 900 668 l 1
 259 668 l 1
 286 825 l 1
EndSplineSet
EndChar
StartChar: ordmasculine
Encoding: 186 186 275
Width: 1155
Flags: W
HStem: 373 200<267 1055> 698 170<627.427 845.486> 1350 170<696.779 918.795>
VStem: 304 287<903.529 1223.05> 955 286<993.537 1316.12>
Fore
304 1016 m 0
 304 1259 469 1520 846 1520 c 0
 1171 1520 1241 1326 1241 1197 c 0
 1241 983 1100 698 701 698 c 256
 377 698 304 889 304 1016 c 0
267 573 m 1
 1090 573 l 1
 1055 373 l 1
 232 373 l 1
 267 573 l 1
955 1188 m 0
 955 1289 908 1350 816 1350 c 0
 636 1350 591 1129 591 1029 c 0
 591 952 619 868 731 868 c 0
 910 868 955 1087 955 1188 c 0
EndSplineSet
EndChar
StartChar: guillemotright
Encoding: 187 187 276
Width: 1323
Flags: W
HStem: 137 926<696 859>
Fore
859 1063 m 1
 1287 692 l 1
 1254 506 l 1
 696 137 l 1
 739 379 l 1
 1071 600 l 1
 817 821 l 1
 859 1063 l 1
380 1063 m 1
 806 692 l 1
 773 506 l 1
 217 137 l 1
 260 379 l 1
 591 600 l 1
 338 821 l 1
 380 1063 l 1
EndSplineSet
EndChar
StartChar: onequarter
Encoding: 188 188 277
Width: 2120
Flags: W
HStem: 0 21G<1593 1826.58> 162 155<1410 1622 1879 1989> 668 157<264 469 698 876>
Fore
1706 641 m 1
 1410 317 l 1
 1649 317 l 1
 1706 641 l 1
1722 836 m 1
 1970 836 l 1
 1879 317 l 1
 2016 317 l 1
 1989 162 l 1
 1852 162 l 1
 1823 0 l 1
 1593 0 l 1
 1622 162 l 1
 1231 162 l 1
 1260 330 l 1
 1722 836 l 1
728 -29 m 1
 505 -29 l 1
 1712 1520 l 1
 1935 1520 l 1
 728 -29 l 1
264 825 m 1
 469 825 l 1
 561 1346 l 1
 328 1294 l 1
 356 1454 l 1
 595 1503 l 1
 818 1503 l 1
 698 825 l 1
 903 825 l 1
 876 668 l 1
 237 668 l 1
 264 825 l 1
EndSplineSet
LCarets2: 2 0 0 
Ligature2: "'frac' Diagonal Fractions in Thai lookup 3" one slash four
Ligature2: "'frac' Diagonal Fractions in Thai lookup 3" one fraction four
EndChar
StartChar: onehalf
Encoding: 189 189 278
Width: 2120
Flags: W
HStem: 0 168<1679 2021> 668 157<264 469 698 876> 705 147<1633.12 1863.54>
VStem: 1880 247<510.231 687.864>
Fore
1827 852 m 0xb0
 2076 852 2127 735 2127 657 c 0
 2127 516 2021 422 1902 334 c 2
 1679 168 l 1
 2051 168 l 1
 2021 0 l 1
 1346 0 l 1
 1373 154 l 1
 1735 422 l 2
 1809 477 1880 537 1880 613 c 0
 1880 668 1836 705 1764 705 c 0
 1704 705 1614 691 1462 612 c 1
 1495 799 l 1
 1586 825 1706 852 1827 852 c 0xb0
728 -29 m 1
 505 -29 l 1
 1712 1520 l 1
 1935 1520 l 1
 728 -29 l 1
264 825 m 1xd0
 469 825 l 1
 561 1346 l 1
 328 1294 l 1
 356 1454 l 1
 595 1503 l 1
 818 1503 l 1
 698 825 l 1
 903 825 l 1
 876 668 l 1
 237 668 l 1
 264 825 l 1xd0
EndSplineSet
LCarets2: 2 0 0 
Ligature2: "'frac' Diagonal Fractions in Thai lookup 3" one slash two
Ligature2: "'frac' Diagonal Fractions in Thai lookup 3" one fraction two
EndChar
StartChar: threequarters
Encoding: 190 190 279
Width: 2120
Flags: W
HStem: 0 21G<1593 1826.58> 162 155<1410 1622 1879 1989> 653 146<357.243 669.726> 1047 137<471 698.554> 1372 148<481.033 725.57>
VStem: 722 244<851.992 1007.29> 762 249<1216.58 1356.65>
Fore
1722 836 m 1xf8
 1970 836 l 1
 1879 317 l 1
 2016 317 l 1
 1989 162 l 1
 1852 162 l 1
 1823 0 l 1
 1593 0 l 1
 1622 162 l 1
 1231 162 l 1
 1260 330 l 1
 1722 836 l 1xf8
1706 641 m 1
 1410 317 l 1
 1649 317 l 1
 1706 641 l 1
1011 1342 m 0xfa
 1011 1211 909 1142 803 1120 c 1
 954 1090 966 987 966 951 c 0
 966 832 892 653 516 653 c 0
 406 653 310 669 227 698 c 1
 258 872 l 1
 320 834 403 799 499 799 c 0
 680 799 722 886 722 944 c 0xfc
 722 1006 677 1047 521 1047 c 2
 447 1047 l 1
 471 1184 l 1
 555 1184 l 2
 652 1184 762 1201 762 1298 c 0
 762 1361 684 1372 619 1372 c 0
 517 1372 413 1336 364 1319 c 1
 393 1485 l 1
 484 1508 588 1520 702 1520 c 0
 967 1520 1011 1413 1011 1342 c 0xfa
728 -29 m 1
 505 -29 l 1
 1712 1520 l 1
 1935 1520 l 1
 728 -29 l 1
EndSplineSet
LCarets2: 2 0 0 
Ligature2: "'frac' Diagonal Fractions in Thai lookup 3" three slash four
Ligature2: "'frac' Diagonal Fractions in Thai lookup 3" three fraction four
EndChar
StartChar: questiondown
Encoding: 191 191 280
Width: 1188
Flags: W
HStem: -29 262<602.891 935.183> 1137 356<750 1048>
VStem: 197 370<199.5 472.606>
Fore
636 -29 m 0
 274 -29 197 142 197 257 c 0
 197 435 249 552 437 702 c 2
 511 760 l 2
 596 825 640 870 653 942 c 2
 661 987 l 1
 1022 987 l 1
 1013 938 l 2
 992 814 930 745 785 631 c 2
 711 573 l 2
 632 511 567 439 567 350 c 0
 567 303 594 233 725 233 c 0
 728 233 l 0
 885 233 1067 336 1120 367 c 1
 1064 53 l 1
 954 16 795 -29 636 -29 c 0
1048 1137 m 1
 687 1137 l 1
 750 1493 l 1
 1111 1493 l 1
 1048 1137 l 1
EndSplineSet
EndChar
StartChar: Agrave
Encoding: 192 192 281
Width: 1585
Flags: W
HStem: 0 21<10 407.515 1184.62 1575> 272 277<685 1094>
VStem: 769 434<1635 1899>
Fore
1052 1899 m 1
 1203 1635 l 1
 1007 1635 l 1
 769 1899 l 1
 1052 1899 l 1
EndSplineSet
Refer: 37 65 N 1 0 0 1 0 0 3
EndChar
StartChar: Aacute
Encoding: 193 193 282
Width: 1585
Flags: W
HStem: 0 21<10 407.515 1184.62 1575> 272 277<685 1094> 1635 264<1105 1154>
VStem: 909 528<1635 1899>
Fore
1154 1899 m 5
 1437 1899 l 1
 1105 1635 l 1
 909 1635 l 1
 1154 1899 l 5
EndSplineSet
Refer: 37 65 N 1 0 0 1 0 0 3
EndChar
StartChar: Acircumflex
Encoding: 194 194 283
Width: 1585
Flags: W
HStem: 0 21<10 407.515 1184.62 1575> 272 277<685 1094>
VStem: 679 754<1635 1635>
Fore
949 1899 m 5
 1257 1899 l 1
 1433 1635 l 1
 1255 1635 l 1
 1085 1796 l 1
 857 1635 l 1
 679 1635 l 1
 949 1899 l 5
EndSplineSet
Refer: 37 65 N 1 0 0 1 0 0 3
EndChar
StartChar: Atilde
Encoding: 195 195 284
Width: 1585
Flags: W
HStem: 0 21<10 407.515 1184.62 1575> 272 277<685 1094> 1635 149<1125.5 1258.97>
VStem: 708 743<1635 1901>
Fore
1216 1784 m 0
 1228 1784 1291 1773 1312 1901 c 1
 1451 1901 l 1
 1405 1616 1245 1635 1235 1635 c 0
 1086 1635 1023 1751 940 1751 c 0
 925 1751 870 1759 847 1635 c 1
 708 1635 l 1
 766 1923 916 1900 925 1901 c 0
 1072 1919 1136 1784 1216 1784 c 0
EndSplineSet
Refer: 37 65 N 1 0 0 1 0 0 3
EndChar
StartChar: Adieresis
Encoding: 196 196 285
Width: 1585
Flags: W
HStem: 0 21<10 407.515 1184.62 1575> 272 277<685 1094> 1653 246<788 979 1183 1374>
VStem: 744 674<1653 1899>
Fore
788 1899 m 5
 1023 1899 l 1
 979 1653 l 1
 744 1653 l 1
 788 1899 l 5
1183 1899 m 5
 1418 1899 l 1
 1374 1653 l 1
 1139 1653 l 1
 1183 1899 l 5
EndSplineSet
Refer: 37 65 N 1 0 0 1 0 0 3
EndChar
StartChar: Aring
Encoding: 197 197 286
Width: 1585
Flags: W
HStem: 0 21G<10 407.515 1184.62 1575> 272 277<685 1094> 1747 154<996.306 1190.06>
VStem: 788 157<1504.68 1696.8> 1211 156<1534.78 1727>
Fore
1367 1670 m 0
 1367 1606 1346 1522 1290 1464 c 1
 1575 0 l 1
 1188 0 l 1
 1142 272 l 1
 540 272 l 1
 397 0 l 1
 10 0 l 1
 811 1464 l 1
 793 1499 788 1533 788 1563 c 0
 788 1735 944 1901 1128 1901 c 0
 1283 1901 1367 1781 1367 1670 c 0
1101 1747 m 0
 1020 1747 945 1675 945 1591 c 0
 945 1534 988 1485 1055 1485 c 256
 1138 1485 1211 1560 1211 1639 c 0
 1211 1697 1168 1747 1101 1747 c 0
685 549 m 1
 1094 549 l 1
 995 1143 l 1
 685 549 l 1
EndSplineSet
EndChar
StartChar: AE
Encoding: 198 198 287
Width: 2222
Flags: W
HStem: 0 291<1448 2073> 350 277<746 1074> 633 291<1560 2123> 1202 291<1609 2262>
Fore
1109 1237 m 1
 746 627 l 1
 1123 627 l 1
 1230 1237 l 1
 1109 1237 l 1
888 1493 m 1
 2313 1493 l 1
 2262 1202 l 1
 1609 1202 l 1
 1560 924 l 1
 2174 924 l 1
 2123 633 l 1
 1509 633 l 1
 1448 291 l 1
 2124 291 l 1
 2073 0 l 1
 1012 0 l 1
 1074 350 l 1
 580 350 l 1
 371 0 l 1
 0 0 l 1
 888 1493 l 1
EndSplineSet
EndChar
StartChar: Egrave
Encoding: 200 200 289
Width: 1399
Flags: W
HStem: 0 291<624 1249> 633 291<736 1300> 1202 291<785 1439>
VStem: 693 434<1635 1899>
Fore
976 1899 m 5
 1127 1635 l 1
 931 1635 l 1
 693 1899 l 1
 976 1899 l 5
EndSplineSet
Refer: 41 69 N 1 0 0 1 0 0 3
EndChar
StartChar: Eacute
Encoding: 201 201 290
Width: 1399
Flags: W
HStem: 0 291<624 1249> 633 291<736 1300> 1202 291<785 1439> 1635 264<1029 1078>
VStem: 833 528<1635 1899>
Fore
1078 1899 m 5
 1361 1899 l 1
 1029 1635 l 1
 833 1635 l 1
 1078 1899 l 5
EndSplineSet
Refer: 41 69 N 1 0 0 1 0 0 3
EndChar
StartChar: Ecircumflex
Encoding: 202 202 291
Width: 1399
Flags: W
HStem: 0 291<624 1249> 633 291<736 1300> 1202 291<785 1439>
VStem: 603 754<1635 1635>
Fore
873 1899 m 5
 1181 1899 l 1
 1357 1635 l 1
 1179 1635 l 1
 1009 1796 l 1
 781 1635 l 1
 603 1635 l 1
 873 1899 l 5
EndSplineSet
Refer: 41 69 N 1 0 0 1 0 0 3
EndChar
StartChar: Edieresis
Encoding: 203 203 292
Width: 1399
Flags: W
HStem: 0 291<624 1249> 633 291<736 1300> 1202 291<785 1439> 1653 246<712 903 1107 1298>
VStem: 668 674<1653 1899>
Fore
712 1899 m 5
 947 1899 l 1
 903 1653 l 1
 668 1653 l 1
 712 1899 l 5
1107 1899 m 5
 1342 1899 l 1
 1298 1653 l 1
 1063 1653 l 1
 1107 1899 l 5
EndSplineSet
Refer: 41 69 N 1 0 0 1 0 0 3
EndChar
StartChar: Igrave
Encoding: 204 204 293
Width: 762
Flags: W
HStem: 0 21<188 576.523>
VStem: 188 648<0 1493> 357 434<1635 1899>
Fore
640 1899 m 5xa0
 791 1635 l 1
 595 1635 l 1
 357 1899 l 1
 640 1899 l 5xa0
EndSplineSet
Refer: 45 73 N 1 0 0 1 0 0 3
EndChar
StartChar: Iacute
Encoding: 205 205 294
Width: 762
Flags: W
HStem: 0 21<188 576.523> 1635 264<693 742>
VStem: 188 648<0 1493> 497 528<1635 1899>
Fore
742 1899 m 5xd0
 1025 1899 l 1
 693 1635 l 1
 497 1635 l 1
 742 1899 l 5xd0
EndSplineSet
Refer: 45 73 N 1 0 0 1 0 0 3
EndChar
StartChar: Icircumflex
Encoding: 206 206 295
Width: 762
Flags: W
HStem: 0 21<188 576.523>
VStem: 188 648<0 1493> 267 754<1635 1635>
Fore
537 1899 m 5xa0
 845 1899 l 1
 1021 1635 l 1
 843 1635 l 1
 673 1796 l 1
 445 1635 l 1
 267 1635 l 1
 537 1899 l 5xa0
EndSplineSet
Refer: 45 73 N 1 0 0 1 0 0 3
EndChar
StartChar: Idieresis
Encoding: 207 207 296
Width: 762
Flags: W
HStem: 0 21<188 576.523> 1653 246<376 567 771 962>
VStem: 188 648<0 1493> 332 674<1653 1899>
Fore
376 1899 m 5xd0
 611 1899 l 1
 567 1653 l 1
 332 1653 l 1
 376 1899 l 5xd0
771 1899 m 5
 1006 1899 l 1
 962 1653 l 1
 727 1653 l 1
 771 1899 l 5
EndSplineSet
Refer: 45 73 N 1 0 0 1 0 0 3
EndChar
StartChar: Eth
Encoding: 208 208 297
Width: 1716
Flags: W
HStem: 0 291<643 1027.88> 621 260<188 316 747 936> 1202 291<804 1179>
VStem: 1357 402<626.808 1042.92>
Fore
1357 862 m 0
 1357 998 1303 1202 941 1202 c 2
 804 1202 l 1
 747 881 l 1
 982 881 l 1
 936 621 l 1
 701 621 l 1
 643 291 l 1
 780 291 l 2
 1261 291 1357 663 1357 862 c 0
470 1493 m 1
 877 1493 l 2
 1214 1493 1465 1472 1631 1280 c 0
 1714 1182 1759 1061 1759 909 c 0
 1759 478 1484 147 1124 48 c 0
 1007 16 836 0 612 0 c 2
 207 0 l 1
 316 621 l 1
 142 621 l 1
 188 881 l 1
 362 881 l 1
 470 1493 l 1
EndSplineSet
EndChar
StartChar: Ntilde
Encoding: 209 209 298
Width: 1714
Flags: HW
HStem: 0 21<188 556.535 1088.93 1529.52> 1635 149<1178.5 1311.97>
VStem: 761 743<1635 1901>
Fore
1269 1784 m 0
 1281 1784 1344 1773 1365 1901 c 1
 1504 1901 l 1
 1458 1616 1298 1635 1288 1635 c 0
 1139 1635 1076 1751 993 1751 c 0
 978 1751 923 1759 900 1635 c 1
 761 1635 l 1
 819 1923 969 1900 978 1901 c 0
 1125 1919 1189 1784 1269 1784 c 0
EndSplineSet
Refer: 50 78 N 1 0 0 1 0 0 3
EndChar
StartChar: Ograve
Encoding: 210 210 299
Width: 1741
Flags: W
HStem: -29 279<748.531 1095.64> 1241 279<907.262 1255.44>
VStem: 216 400<389.858 854.858> 847 434<1635 1899> 1387 400<635.818 1100.24>
Fore
1130 1899 m 5
 1281 1635 l 1
 1085 1635 l 1
 847 1899 l 1
 1130 1899 l 5
EndSplineSet
Refer: 51 79 N 1 0 0 1 0 0 3
EndChar
StartChar: Oacute
Encoding: 211 211 300
Width: 1741
Flags: W
HStem: -29 279<748.531 1095.64> 1241 279<907.262 1255.44> 1635 264<1183 1232>
VStem: 216 400<389.858 854.858> 987 528<1635 1899> 1387 400<635.818 1100.24>
Fore
1232 1899 m 5xf8
 1515 1899 l 1
 1183 1635 l 1
 987 1635 l 1
 1232 1899 l 5xf8
EndSplineSet
Refer: 51 79 N 1 0 0 1 0 0 3
EndChar
StartChar: Ocircumflex
Encoding: 212 212 301
Width: 1741
Flags: W
HStem: -29 279<748.531 1095.64> 1241 279<907.262 1255.44>
VStem: 216 400<389.858 854.858> 757 754<1635 1635> 1387 400<635.818 1100.24>
Fore
1027 1899 m 5xf0
 1335 1899 l 1
 1511 1635 l 1
 1333 1635 l 1
 1163 1796 l 1
 935 1635 l 1
 757 1635 l 1
 1027 1899 l 5xf0
EndSplineSet
Refer: 51 79 N 1 0 0 1 0 0 3
EndChar
StartChar: Otilde
Encoding: 213 213 302
Width: 1741
Flags: HW
HStem: -29 279<748.531 1095.64> 1241 279<907.262 1255.44> 1635 149<1203.5 1336.97>
VStem: 216 400<389.858 854.858> 786 743<1635 1901> 1387 400<635.818 1100.24>
Fore
1294 1784 m 0xf8
 1306 1784 1369 1773 1390 1901 c 1
 1529 1901 l 1
 1483 1616 1323 1635 1313 1635 c 0
 1164 1635 1101 1751 1018 1751 c 0
 1003 1751 948 1759 925 1635 c 1
 786 1635 l 1
 844 1923 994 1900 1003 1901 c 0
 1150 1919 1214 1784 1294 1784 c 0xf8
EndSplineSet
Refer: 51 79 N 1 0 0 1 0 0 3
EndChar
StartChar: Odieresis
Encoding: 214 214 303
Width: 1741
Flags: W
HStem: -29 279<748.531 1095.64> 1241 279<907.262 1255.44> 1653 246<866 1057 1261 1452>
VStem: 216 400<389.858 854.858> 822 674<1653 1899> 1387 400<635.818 1100.24>
Fore
866 1899 m 1xf8
 1101 1899 l 1
 1057 1653 l 1
 822 1653 l 1
 866 1899 l 1xf8
1261 1899 m 1
 1496 1899 l 1
 1452 1653 l 1
 1217 1653 l 1
 1261 1899 l 1
EndSplineSet
Refer: 51 79 N 1 0 0 1 0 0 3
EndChar
StartChar: multiply
Encoding: 215 215 304
Width: 1716
Flags: W
Fore
1650 1075 m 1
 1139 641 l 1
 1497 209 l 1
 1299 41 l 1
 941 473 l 1
 431 41 l 1
 293 209 l 1
 803 641 l 1
 446 1075 l 1
 643 1243 l 1
 1001 809 l 1
 1511 1243 l 1
 1650 1075 l 1
EndSplineSet
EndChar
StartChar: Oslash
Encoding: 216 216 305
Width: 1741
Flags: W
HStem: -29 279<748.666 1090.37> 1241 279<906.954 1259.9>
VStem: 217 399<523.463 855.003> 1388 399<638.085 977.163>
Fore
916 250 m 0
 1293 250 1388 701 1388 906 c 0
 1388 932 1386 956 1383 979 c 1
 669 371 l 1
 720 294 798 250 916 250 c 0
1087 1241 m 0
 710 1241 616 790 616 588 c 0
 616 564 617 542 620 522 c 1
 1332 1126 l 1
 1300 1172 1236 1241 1087 1241 c 0
865 -29 m 0
 654 -29 497 27 383 129 c 1
 145 -74 l 1
 52 39 l 1
 293 244 l 1
 242 335 217 440 217 564 c 0
 217 995 483 1520 1138 1520 c 0
 1349 1520 1500 1468 1615 1368 c 1
 1849 1567 l 1
 1942 1452 l 1
 1706 1253 l 1
 1759 1164 1787 1056 1787 930 c 0
 1787 447 1480 -29 865 -29 c 0
EndSplineSet
EndChar
StartChar: Ugrave
Encoding: 217 217 306
Width: 1663
Flags: W
HStem: -29 283<729.37 1042.83>
VStem: 808 434<1635 1899>
Fore
1091 1899 m 1
 1242 1635 l 1
 1046 1635 l 1
 808 1899 l 1
 1091 1899 l 1
EndSplineSet
Refer: 57 85 N 1 0 0 1 0 0 3
EndChar
StartChar: Uacute
Encoding: 218 218 307
Width: 1663
Flags: W
HStem: -29 283<729.37 1042.83> 1635 264<1144 1193>
VStem: 948 528<1635 1899>
Fore
1193 1899 m 5
 1476 1899 l 1
 1144 1635 l 1
 948 1635 l 1
 1193 1899 l 5
EndSplineSet
Refer: 57 85 N 1 0 0 1 0 0 3
EndChar
StartChar: Ucircumflex
Encoding: 219 219 308
Width: 1663
Flags: W
HStem: -29 283<729.37 1042.83>
VStem: 718 754<1635 1635>
Fore
988 1899 m 5
 1296 1899 l 1
 1472 1635 l 1
 1294 1635 l 1
 1124 1796 l 1
 896 1635 l 1
 718 1635 l 1
 988 1899 l 5
EndSplineSet
Refer: 57 85 N 1 0 0 1 0 0 3
EndChar
StartChar: Udieresis
Encoding: 220 220 309
Width: 1663
Flags: W
HStem: -29 283<729.37 1042.83> 1653 246<827 1018 1222 1413>
VStem: 783 674<1653 1899>
Fore
827 1899 m 5
 1062 1899 l 1
 1018 1653 l 1
 783 1653 l 1
 827 1899 l 5
1222 1899 m 5
 1457 1899 l 1
 1413 1653 l 1
 1178 1653 l 1
 1222 1899 l 5
EndSplineSet
Refer: 57 85 N 1 0 0 1 0 0 3
EndChar
StartChar: Yacute
Encoding: 221 221 310
Width: 1483
Flags: W
HStem: 0 21<549 937.529> 1635 264<1054 1103>
VStem: 858 528<1635 1899>
Fore
1103 1899 m 5
 1386 1899 l 1
 1054 1635 l 1
 858 1635 l 1
 1103 1899 l 5
EndSplineSet
Refer: 61 89 N 1 0 0 1 0 0 3
EndChar
StartChar: Thorn
Encoding: 222 222 311
Width: 1511
Flags: W
HStem: 0 21G<188 576.488> 258 279<668 1040.58> 956 277<790 1103.62>
Fore
1558 853 m 0
 1558 629 1432 258 872 258 c 2
 618 258 l 1
 573 0 l 1
 188 0 l 1
 451 1493 l 1
 836 1493 l 1
 790 1233 l 1
 1044 1233 l 2
 1485 1233 1558 1005 1558 853 c 0
1156 795 m 0
 1156 859 1126 956 955 956 c 2
 742 956 l 1
 668 537 l 1
 882 537 l 2
 1101 537 1156 695 1156 795 c 0
EndSplineSet
EndChar
StartChar: germandbls
Encoding: 223 223 312
Width: 1473
Flags: W
HStem: -29 238<777.593 1041.17> 1319 237<817.879 1096.77>
VStem: 776 328<705.5 934.191>
Fore
1127 1186 m 0
 1127 1239 1106 1319 966 1319 c 0
 820 1319 747 1232 724 1100 c 2
 530 0 l 1
 172 0 l 1
 368 1114 l 2
 422 1415 630 1556 989 1556 c 0
 1255 1556 1451 1469 1451 1215 c 0
 1451 1183 1447 1150 1441 1114 c 2
 1429 1043 l 1
 1156 1025 1104 936 1104 864 c 0
 1104 822 1125 795 1222 735 c 2
 1284 698 l 2
 1367 648 1452 570 1452 427 c 0
 1452 273 1382 -29 919 -29 c 0
 812 -29 715 -2 651 20 c 1
 694 264 l 1
 770 224 844 209 909 209 c 0
 1012 209 1094 270 1094 363 c 0
 1094 417 1063 449 969 508 c 2
 905 547 l 2
 839 588 776 650 776 761 c 0
 776 915 863 1061 1123 1145 c 1
 1125 1160 1127 1173 1127 1186 c 0
EndSplineSet
EndChar
StartChar: acircumflex
Encoding: 226 226 315
Width: 1382
Flags: W
HStem: 0 21<860 1224.54> 504 213<579.933 949> 909 238<575.001 944.317> 1262 376<866 1298>
VStem: 544 754<1262 1262>
Fore
866 1638 m 5
 1108 1638 l 1
 1298 1262 l 1
 1120 1262 l 1
 960 1487 l 1
 722 1262 l 1
 544 1262 l 1
 866 1638 l 5
EndSplineSet
Refer: 69 97 N 1 0 0 1 0 0 3
EndChar
StartChar: atilde
Encoding: 227 227 316
Width: 1382
Flags: W
HStem: 0 21<860 1224.54> 504 213<579.933 949> 909 238<575.001 944.317> 1438 24<817 1089>
VStem: 581 746<1462 1591 1309 1591>
Fore
817 1438 m 0
 739 1438 728 1355 720 1309 c 1
 581 1309 l 1
 590 1362 621 1593 816 1593 c 0
 973 1593 1004 1462 1089 1462 c 0
 1107 1462 1166 1457 1188 1591 c 1
 1327 1591 l 1
 1324 1576 1298 1307 1091 1307 c 0
 935 1307 936 1438 817 1438 c 0
EndSplineSet
Refer: 69 97 N 1 0 0 1 0 0 3
EndChar
StartChar: aring
Encoding: 229 229 318
Width: 1382
Flags: HW
HStem: 0 21<860 1224.54> 504 213<579.933 949> 909 238<575.001 944.317> 1249 154<849.142 1055.53> 1665 154<881.477 1084.39>
VStem: 678 156<1420.98 1617.67> 1102 156<1450.58 1648.32>
Fore
992 1665 m 0
 892 1665 834 1586 834 1505 c 0
 834 1442 875 1403 945 1403 c 0
 1050 1403 1102 1487 1102 1565 c 0
 1102 1627 1061 1665 992 1665 c 0
678 1482 m 0
 678 1660 839 1819 1019 1819 c 256
 1161 1819 1258 1721 1258 1587 c 0
 1258 1410 1101 1249 918 1249 c 256
 776 1249 678 1348 678 1482 c 0
EndSplineSet
Refer: 69 97 N 1 0 0 1 0 0 3
EndChar
StartChar: ae
Encoding: 230 230 319
Width: 2146
Flags: W
HStem: -29 238<368.602 749.31 1373.56 1827.13> 461 221<1337 1799> 504 213<579.933 949> 909 238<572.92 951.403 1468.6 1751.43>
Fore
1804 735 m 0xd0
 1804 837 1737 909 1624 909 c 0
 1469 909 1378 808 1337 682 c 1
 1799 682 l 1
 1802 701 1804 718 1804 735 c 0xd0
508 324 m 0
 508 278 533 209 658 209 c 0
 792 209 915 314 942 463 c 2
 949 504 l 1
 763 504 l 2xb0
 548 504 508 396 508 324 c 0
994 777 m 0
 994 856 934 909 744 909 c 0
 579 909 446 874 330 817 c 1
 378 1090 l 1
 598 1140 748 1147 827 1147 c 0
 1099 1147 1195 1051 1238 991 c 1
 1342 1080 1484 1147 1668 1147 c 0
 1981 1147 2159 970 2159 695 c 0
 2159 653 2155 609 2147 563 c 2
 2129 461 l 1
 1291 461 l 1xd0
 1290 452 1290 443 1290 435 c 0
 1290 276 1388 209 1560 209 c 0
 1759 209 1949 291 2056 344 c 1
 2007 68 l 1
 1860 16 1678 -29 1482 -29 c 0
 1264 -29 1082 33 1002 178 c 1
 855 46 703 -29 503 -29 c 0
 205 -29 140 145 140 262 c 0
 140 376 189 537 334 625 c 0
 433 685 577 717 767 717 c 2
 986 717 l 1
 991 745 l 2
 993 756 994 767 994 777 c 0
EndSplineSet
EndChar
StartChar: ecircumflex
Encoding: 234 234 323
Width: 1389
Flags: W
HStem: -29 238<622.032 1068.29> 461 221<577 1042> 909 238<707.87 994.582> 1262 376<897 1329>
VStem: 575 754<1262 1262>
Fore
897 1638 m 5
 1139 1638 l 1
 1329 1262 l 1
 1151 1262 l 1
 991 1487 l 1
 753 1262 l 1
 575 1262 l 1
 897 1638 l 5
EndSplineSet
Refer: 73 101 N 1 0 0 1 0 0 3
EndChar
StartChar: igrave
Encoding: 236 236 325
Width: 702
Flags: W
HStem: 0 21G<172 533.518> 1262 376<529 745>
VStem: 172 555<0 1120> 246 499<1262 1638>
Fore
369 1120 m 5xe0
 727 1120 l 1
 530 0 l 1
 172 0 l 1
 369 1120 l 5xe0
EndSplineSet
Refer: 68 96 N 1 0 0 1 -137 0 2
EndChar
StartChar: iacute
Encoding: 237 237 326
Width: 702
Flags: W
HStem: 0 21G<172 533.518> 1262 376<647 799>
VStem: 172 555<0 1120> 451 631<1262 1638>
Fore
369 1120 m 5xe0
 727 1120 l 1
 530 0 l 1
 172 0 l 1
 369 1120 l 5xe0
EndSplineSet
Refer: 119 180 N 1 0 0 1 -137 0 2
EndChar
StartChar: icircumflex
Encoding: 238 238 327
Width: 702
Flags: W
HStem: 0 21G<172 533.518>
VStem: 172 803<0 1262>
Fore
543 1638 m 5
 785 1638 l 1
 975 1262 l 1
 797 1262 l 1
 637 1487 l 1
 399 1262 l 1
 221 1262 l 1
 543 1638 l 5
369 1120 m 5
 727 1120 l 1
 530 0 l 1
 172 0 l 1
 369 1120 l 5
EndSplineSet
EndChar
StartChar: idieresis
Encoding: 239 239 328
Width: 702
Flags: W
HStem: 0 21G<172 533.518> 1339 246<339 531 734 926>
VStem: 172 555<0 1120> 296 673<1339 1585>
Fore
369 1120 m 5xe0
 727 1120 l 1
 530 0 l 1
 172 0 l 1
 369 1120 l 5xe0
EndSplineSet
Refer: 107 168 N 1 0 0 1 -137 0 2
EndChar
StartChar: eth
Encoding: 240 240 329
Width: 1407
Flags: W
HStem: -29 256<617.409 886.784> 797 258<686.891 992.741>
VStem: 174 374<293.156 650.646> 1055 375<440.54 750.024>
Fore
745 227 m 0
 993 227 1055 522 1055 671 c 0
 1055 695 1054 719 1051 743 c 1
 997 772 927 797 846 797 c 0
 608 797 548 593 548 449 c 0
 548 349 587 227 745 227 c 0
174 421 m 0
 174 801 430 1055 833 1055 c 0
 922 1055 965 1041 994 1028 c 1
 843 1247 l 1
 449 1128 l 1
 435 1257 l 1
 759 1354 l 1
 606 1556 l 1
 958 1556 l 1
 1049 1440 l 1
 1445 1554 l 1
 1457 1425 l 1
 1125 1329 l 1
 1290 1100 l 2
 1370 984 1430 855 1430 691 c 0
 1430 371 1229 -29 700 -29 c 0
 260 -29 174 241 174 421 c 0
EndSplineSet
EndChar
StartChar: ntilde
Encoding: 241 241 330
Width: 1458
Flags: HW
HStem: 0 21<172 533.521 938 1301.52> 877 270<902.303 1235.5> 1438 24<873 1145>
VStem: 637 746<1462 1591 1309 1591>
Fore
873 1438 m 0
 795 1438 784 1355 776 1309 c 1
 637 1309 l 1
 646 1362 677 1593 872 1593 c 0
 1029 1593 1060 1462 1145 1462 c 0
 1163 1462 1222 1457 1244 1591 c 1
 1383 1591 l 1
 1380 1576 1354 1307 1147 1307 c 0
 991 1307 992 1438 873 1438 c 0
EndSplineSet
Refer: 82 110 N 1 0 0 1 0 0 3
EndChar
StartChar: ocircumflex
Encoding: 244 244 333
Width: 1407
Flags: W
HStem: -29 256<615.953 887.729> 891 256<723.784 987.703> 1262 376<895 1327>
VStem: 174 375<291.477 674.799> 573 754<1262 1262> 1055 376<436.391 827.257>
Fore
895 1638 m 5xf8
 1137 1638 l 1
 1327 1262 l 1
 1149 1262 l 1
 989 1487 l 1
 751 1262 l 1
 573 1262 l 1
 895 1638 l 5xf8
EndSplineSet
Refer: 83 111 N 1 0 0 1 0 0 3
EndChar
StartChar: otilde
Encoding: 245 245 334
Width: 1407
Flags: W
HStem: -29 256<615.953 887.729> 891 256<723.784 987.703> 1438 24<846 1118>
VStem: 174 375<291.477 674.799> 610 746<1462 1592 1310 1592> 1055 376<436.391 827.257>
Fore
846 1438 m 0xf8
 768 1438 758 1356 750 1310 c 1
 610 1310 l 1
 620 1362 650 1594 846 1594 c 0
 1002 1594 1034 1462 1118 1462 c 0
 1136 1462 1196 1458 1218 1592 c 1
 1356 1592 l 1
 1354 1576 1328 1308 1120 1308 c 0
 964 1308 966 1438 846 1438 c 0xf8
EndSplineSet
Refer: 83 111 N 1 0 0 1 0 0 3
EndChar
StartChar: divide
Encoding: 247 247 336
Width: 1716
Flags: W
HStem: 86 309<775 1027> 524 236<351 1591> 889 309<916 1169>
CounterMasks: 1 e0
Fore
775 395 m 1
 1082 395 l 1
 1027 86 l 1
 720 86 l 1
 775 395 l 1
916 1198 m 1
 1223 1198 l 1
 1169 889 l 1
 862 889 l 1
 916 1198 l 1
351 760 m 1
 1633 760 l 1
 1591 524 l 1
 309 524 l 1
 351 760 l 1
EndSplineSet
EndChar
StartChar: oslash
Encoding: 248 248 337
Width: 1407
Flags: W
HStem: -29 256<615.571 880.977> 891 256<723.671 991.591> 1197 20G<1404.85 1445.02>
Fore
1003 836 m 1
 972 872 927 891 862 891 c 0
 598 891 541 552 550 426 c 1
 1003 836 l 1
598 287 m 1
 634 244 686 227 745 227 c 0
 1021 227 1062 591 1055 698 c 1
 598 287 l 1
700 -29 m 0
 595 -29 464 -14 349 61 c 1
 173 -94 l 1
 78 0 l 1
 251 158 l 1
 193 244 174 342 174 420 c 0
 174 681 322 1147 907 1147 c 0
 1051 1147 1163 1117 1252 1059 c 1
 1427 1217 l 1
 1518 1116 l 1
 1351 967 l 1
 1403 892 1430 801 1430 693 c 0
 1430 441 1284 -29 700 -29 c 0
EndSplineSet
EndChar
StartChar: ucircumflex
Encoding: 251 251 340
Width: 1458
Flags: W
HStem: -29 271<420.5 753.979> 1262 376<922 1354>
VStem: 600 754<1262 1262>
Fore
922 1638 m 5
 1164 1638 l 1
 1354 1262 l 1
 1176 1262 l 1
 1016 1487 l 1
 778 1262 l 1
 600 1262 l 1
 922 1638 l 5
EndSplineSet
Refer: 89 117 N 1 0 0 1 0 0 3
EndChar
StartChar: thorn
Encoding: 254 254 343
Width: 1466
Flags: HW
HStem: -29 260<703.025 945.253> 887 260<898.903 1223.5>
VStem: 1114 373<441.541 823.486>
Fore
896 -29 m 0
 723 -29 625 46 559 162 c 1
 455 -426 l 1
 97 -426 l 1
 446 1556 l 1
 804 1556 l 1
 699 956 l 1
 815 1081 941 1147 1103 1147 c 0
 1344 1147 1487 965 1487 705 c 0
 1487 351 1252 -29 896 -29 c 0
1114 669 m 0
 1114 807 1052 887 924 887 c 0
 679 887 618 590 618 449 c 0
 618 311.467 681.309 231 809 231 c 256
 1053 231 1114 530 1114 669 c 0
EndSplineSet
EndChar
StartChar: Cacute
Encoding: 262 262 345
Width: 1503
Flags: W
HStem: -29 279<786.387 1211.62> 1241 279<946.541 1399.34> 1635 264<1207 1256>
VStem: 217 402<419.278 864.533> 1011 528<1635 1899>
Fore
1256 1899 m 1
 1539 1899 l 1
 1207 1635 l 1
 1011 1635 l 1
 1256 1899 l 1
EndSplineSet
Refer: 39 67 N 1 0 0 1 0 0 3
EndChar
StartChar: Ccaron
Encoding: 268 268 347
Width: 1503
Flags: W
HStem: -29 279<786.387 1211.62> 1241 279<946.541 1399.34>
VStem: 217 402<419.278 864.533> 828 754<1899 1899>
Fore
1004 1635 m 5
 828 1899 l 1
 1006 1899 l 1
 1176 1737 l 1
 1404 1899 l 1
 1582 1899 l 1
 1312 1635 l 1
 1004 1635 l 5
EndSplineSet
Refer: 39 67 N 1 0 0 1 0 0 3
EndChar
StartChar: ccaron
Encoding: 269 269 348
Width: 1214
Flags: W
HStem: -29 256<657.962 1026.98> 891 256<745.946 1132.4> 1262 376<635 825>
VStem: 175 377<324.207 674.18> 635 754<1638 1638>
Fore
825 1262 m 5
 635 1638 l 1
 813 1638 l 1
 972 1411 l 1
 1211 1638 l 1
 1389 1638 l 1
 1067 1262 l 1
 825 1262 l 5
EndSplineSet
Refer: 71 99 N 1 0 0 1 0 0 3
EndChar
StartChar: dcroat
Encoding: 273 273 349
Width: 1466
Flags: W
HStem: -29 260<440.5 766.388> 887 260<714.936 959.184> 1237 205<862 1152 1548 1666>
VStem: 177 374<295.216 675.617>
Fore
767 1147 m 0
 940 1147 1037 1070 1103 956 c 1
 1152 1237 l 1
 826 1237 l 1
 862 1442 l 1
 1188 1442 l 1
 1208 1556 l 1
 1568 1556 l 1
 1548 1442 l 1
 1702 1442 l 1
 1666 1237 l 1
 1512 1237 l 1
 1294 0 l 1
 934 0 l 1
 963 162 l 1
 845 35 721 -29 560 -29 c 0
 321 -29 177 145 177 419 c 0
 177 745 397 1147 767 1147 c 0
551 445 m 0
 551 343 588 231 739 231 c 0
 983 231 1044 530 1044 669 c 0
 1044 807 982 887 854 887 c 0
 597 887 551 558 551 445 c 0
EndSplineSet
EndChar
StartChar: Gbreve
Encoding: 286 286 350
Width: 1681
Flags: HW
HStem: -29 279<802.251 1211.63> 571 258<1076 1266> 1241 279<957.582 1468.06> 1635 143<988.991 1245.36>
VStem: 217 402<416.441 862.103>
Fore
1133 1778 m 0
 1195 1778 1283 1780 1345 1899 c 1
 1488 1899 l 1
 1471 1844 l 2
 1426 1693 1274 1635 1105 1635 c 0
 940 1635 813 1690 813 1833 c 2
 816 1899 l 1
 959 1899 l 1
 972 1807 1021 1778 1133 1778 c 0
EndSplineSet
Refer: 43 71 N 1 0 0 1 0 0 3
EndChar
StartChar: gbreve
Encoding: 287 287 351
Width: 1466
Flags: HW
HStem: -442 237<333.125 779.238> 0 21<437 645.5> 887 258<715.632 960.681> 1342 143<853.413 1110.04>
VStem: 180 374<317.59 693.711>
Fore
997 1485 m 0
 1060 1485 1148 1487 1209 1606 c 1
 1352 1606 l 1
 1335 1551 l 2
 1290 1400 1139 1342 970 1342 c 0
 805 1342 677 1397 677 1540 c 2
 680 1606 l 1
 823 1606 l 1
 836 1514 885 1485 997 1485 c 0
EndSplineSet
Refer: 75 103 N 1 0 0 1 0 0 3
EndChar
StartChar: Idotaccent
Encoding: 304 304 352
Width: 762
Flags: W
HStem: 0 21<188 576.523> 1653 246<554 784>
VStem: 188 648<0 1493> 510 318<1653 1899>
Fore
554 1899 m 1xd0
 828 1899 l 1
 784 1653 l 1
 510 1653 l 1
 554 1899 l 1xd0
EndSplineSet
Refer: 45 73 N 1 0 0 1 0 0 3
EndChar
StartChar: dotlessi
Encoding: 305 305 353
Width: 702
Flags: W
HStem: 0 21G<172 533.518>
VStem: 172 555<0 1120>
Fore
369 1120 m 1
 727 1120 l 1
 530 0 l 1
 172 0 l 1
 369 1120 l 1
EndSplineSet
EndChar
StartChar: Lslash
Encoding: 321 321 354
Width: 1315
Flags: W
HStem: 0 291<635 1260>
Fore
462 1493 m 1
 847 1493 l 1
 774 1077 l 1
 1061 1262 l 1
 1169 1069 l 1
 725 797 l 1
 635 291 l 1
 1311 291 l 1
 1260 0 l 1
 199 0 l 1
 291 524 l 1
 125 418 l 1
 15 608 l 1
 341 805 l 1
 462 1493 l 1
EndSplineSet
EndChar
StartChar: lslash
Encoding: 322 322 355
Width: 760
Flags: W
HStem: 0 21G<199 562.515> 1123 20G<857.045 900.779>
VStem: 88 885<709 989>
Fore
473 1556 m 1
 833 1556 l 1
 745 1055 l 1
 890 1143 l 1
 973 989 l 1
 704 825 l 1
 559 0 l 1
 199 0 l 1
 312 641 l 1
 172 555 l 1
 88 709 l 1
 353 872 l 1
 473 1556 l 1
EndSplineSet
EndChar
StartChar: OE
Encoding: 338 338 356
Width: 2390
Flags: W
HStem: 0 291<840.023 1231 1616 2241> 633 291<1728 2291> 1202 291<986.902 1392 1777 2430>
VStem: 219 403<465.86 865.006>
Fore
622 631 m 0
 622 495 688 291 1126 291 c 2
 1231 291 l 1
 1392 1202 l 1
 1285 1202 l 2
 698 1202 622 834 622 631 c 0
1282 1495 m 0
 1303 1495 1325 1493 1353 1493 c 2
 2481 1493 l 1
 2430 1202 l 1
 1777 1202 l 1
 1728 924 l 1
 2342 924 l 1
 2291 633 l 1
 1677 633 l 1
 1616 291 l 1
 2292 291 l 1
 2241 0 l 1
 1090 0 l 2
 1061 0 1047 -2 1018 -2 c 0
 333 -2 219 350 219 585 c 0
 219 911 398 1495 1282 1495 c 0
EndSplineSet
EndChar
StartChar: oe
Encoding: 339 339 357
Width: 2241
Flags: W
HStem: -29 256<615.953 888.527> -29 238<1470.38 1920.29> 461 221<1429 1894> 891 256<723.784 992.028> 909 238<1560.36 1846.17>
VStem: 174 375<291.477 674.799> 1055 330<431 669>
Fore
1899 735 m 0x2e
 1899 837 1832 909 1719 909 c 0
 1563 909 1471 810 1429 682 c 1
 1894 682 l 1
 1897 701 1899 718 1899 735 c 0x2e
1744 1147 m 0
 2135 1147 2254 910 2254 698 c 0
 2254 656 2249 611 2241 563 c 2
 2223 461 l 1
 1386 461 l 1
 1385 451 1385 441 1385 431 c 0
 1385 274 1488 209 1651 209 c 0
 1654 209 l 0
 1853 209 2043 291 2150 344 c 1
 2101 68 l 1
 1955 16 1771 -29 1576 -29 c 0x6e
 1372 -29 1235 15 1155 139 c 1
 1018 20 862 -29 700 -29 c 0
 260 -29 174 241 174 421 c 0
 174 678 321 1147 907 1147 c 0xb6
 1092 1147 1215 1089 1299 979 c 1
 1431 1097 1569 1147 1744 1147 c 0
1055 669 m 0
 1055 777 1017 891 862 891 c 0
 597 891 549 565 549 447 c 0
 549 340 588 227 745 227 c 0xb6
 994 227 1055 528 1055 669 c 0
EndSplineSet
EndChar
StartChar: Scaron
Encoding: 352 352 360
Width: 1475
Flags: W
HStem: -29 279<469.322 941.557> 1241 279<766.767 1259.17>
VStem: 325 360<863 1168> 671 754<1899 1899> 1030 385<330.281 653>
Fore
847 1635 m 5xd0
 671 1899 l 1
 849 1899 l 1
 1019 1737 l 1
 1247 1899 l 1
 1425 1899 l 1
 1155 1635 l 1
 847 1635 l 5xd0
EndSplineSet
Refer: 55 83 N 1 0 0 1 0 0 3
EndChar
StartChar: scaron
Encoding: 353 353 361
Width: 1219
Flags: W
HStem: -29 238<319.237 789.776> 909 238<602.073 1052.39> 1262 376<522 712>
VStem: 522 754<1638 1638> 841 347<258.062 500.5>
Fore
712 1262 m 5xf0
 522 1638 l 1
 700 1638 l 1
 859 1411 l 1
 1098 1638 l 1
 1276 1638 l 1
 954 1262 l 1
 712 1262 l 5xf0
EndSplineSet
Refer: 87 115 N 1 0 0 1 0 0 3
EndChar
StartChar: Ydieresis
Encoding: 376 376 362
Width: 1483
Flags: W
HStem: 0 21<549 937.529> 1653 246<737 928 1132 1323>
VStem: 693 674<1653 1899>
Fore
737 1899 m 5
 972 1899 l 1
 928 1653 l 1
 693 1653 l 1
 737 1899 l 5
1132 1899 m 5
 1367 1899 l 1
 1323 1653 l 1
 1088 1653 l 1
 1132 1899 l 5
EndSplineSet
Refer: 61 89 N 1 0 0 1 0 0 3
EndChar
StartChar: Zcaron
Encoding: 381 381 363
Width: 1485
Flags: W
HStem: 0 291<620 1393> 1202 291<378 1105>
VStem: 677 754<1899 1899>
Fore
853 1635 m 5
 677 1899 l 1
 855 1899 l 1
 1025 1737 l 1
 1253 1899 l 1
 1431 1899 l 1
 1161 1635 l 1
 853 1635 l 5
EndSplineSet
Refer: 62 90 N 1 0 0 1 0 0 3
EndChar
StartChar: zcaron
Encoding: 382 382 364
Width: 1192
Flags: W
HStem: 0 256<549 1094> 864 256<314 834> 1262 376<508 698>
VStem: 508 754<1638 1638>
Fore
698 1262 m 5
 508 1638 l 1
 686 1638 l 1
 845 1411 l 1
 1084 1638 l 1
 1262 1638 l 1
 940 1262 l 1
 698 1262 l 5
EndSplineSet
Refer: 94 122 N 1 0 0 1 0 0 3
EndChar
StartChar: florin
Encoding: 402 402 365
Width: 1425
Flags: W
HStem: -426 238<50.1758 275.846> 657 238<428 628 1071 1314> 1319 237<1262.38 1493.68>
Fore
-17 -131 m 1
 23 -159 77 -188 145 -188 c 0
 273 -188 342 -103 407 68 c 2
 628 657 l 1
 386 657 l 1
 428 895 l 1
 717 895 l 1
 812 1147 l 2
 933 1463 1131 1556 1343 1556 c 0
 1440 1556 1524 1541 1602 1516 c 1
 1558 1262 l 1
 1518 1291 1465 1319 1396 1319 c 0
 1247 1319 1183 1200 1133 1063 c 2
 1071 895 l 1
 1356 895 l 1
 1314 657 l 1
 982 657 l 1
 730 -16 l 2
 612 -332 410 -426 197 -426 c 0
 101 -426 16 -410 -62 -385 c 1
 -17 -131 l 1
EndSplineSet
EndChar
StartChar: circumflex
Encoding: 710 710 366
Width: 1024
Flags: W
HStem: 1262 376<680 1112>
VStem: 358 754<1262 1262>
Fore
680 1638 m 1
 922 1638 l 1
 1112 1262 l 1
 934 1262 l 1
 774 1487 l 1
 536 1262 l 1
 358 1262 l 1
 680 1638 l 1
EndSplineSet
EndChar
StartChar: caron
Encoding: 711 711 367
Width: 1024
Flags: W
HStem: 1262 376<424 614>
VStem: 424 754<1638 1638>
Fore
614 1262 m 1
 424 1638 l 1
 602 1638 l 1
 761 1411 l 1
 1000 1638 l 1
 1178 1638 l 1
 856 1262 l 1
 614 1262 l 1
EndSplineSet
EndChar
StartChar: breve
Encoding: 728 728 368
Width: 1024
Flags: W
HStem: 1309 153<636.853 915.543>
VStem: 455 147<1498.52 1550 1550 1606>
Fore
743 1309 m 256
 569 1309 455 1383 455 1550 c 0
 455 1568 456 1586 459 1606 c 1
 602 1606 l 1
 601 1521 650 1462 770 1462 c 256
 898 1462 962 1528 988 1606 c 1
 1131 1606 l 1
 1091 1422 961 1309 743 1309 c 256
EndSplineSet
EndChar
StartChar: dotaccent
Encoding: 729 729 369
Width: 1024
Flags: W
HStem: 1339 246<654 885>
VStem: 611 317<1339 1585>
Fore
654 1585 m 1
 928 1585 l 1
 885 1339 l 1
 611 1339 l 1
 654 1585 l 1
EndSplineSet
EndChar
StartChar: ring
Encoding: 730 730 370
Width: 1024
Flags: W
HStem: 1249 154<670.542 863.641> 1665 154<700.621 894.12>
VStem: 492 157<1425.23 1611.84> 915 157<1455.63 1643.37>
Fore
806 1665 m 0
 722 1665 649 1590 649 1510 c 0
 649 1453 691 1403 759 1403 c 0
 843 1403 915 1476 915 1559 c 0
 915 1615 873 1665 806 1665 c 0
492 1485 m 0
 492 1655 650 1819 833 1819 c 256
 984 1819 1072 1708 1072 1586 c 0
 1072 1409 913 1249 732 1249 c 256
 582 1249 492 1358 492 1485 c 0
EndSplineSet
EndChar
StartChar: ogonek
Encoding: 731 731 371
Width: 1024
Flags: W
HStem: -401 147<482.703 620.452> -20 20G<417 594>
VStem: 300 175<-286.5 -123.182>
Fore
300 -258 m 0
 300 -155 381 -65 453 0 c 1
 594 0 l 1
 493 -109 475 -146 475 -182 c 0
 475 -211 494 -254 569 -254 c 0
 618 -254 670 -246 731 -223 c 1
 703 -379 l 1
 608 -397 548 -401 509 -401 c 0
 327 -401 300 -315 300 -258 c 0
EndSplineSet
EndChar
StartChar: tilde
Encoding: 732 732 372
Width: 1024
Flags: W
HStem: 1307 155<819.223 971.061> 1438 155<563.587 713.501>
VStem: 395 746<1462 1591 1309 1591> 395 139<1322.94 1442.35>
Fore
1141 1591 m 1xa0
 1116 1447 1042 1307 894 1307 c 0xa0
 773 1307 698 1438 631 1438 c 0
 547 1438 534 1309 534 1309 c 1x50
 395 1309 l 1
 421 1454 493 1593 641 1593 c 0x60
 770 1593 828 1462 903 1462 c 0
 987 1462 1000 1588 1002 1591 c 1
 1141 1591 l 1xa0
EndSplineSet
EndChar
StartChar: hungarumlaut
Encoding: 733 733 373
Width: 1024
Flags: W
HStem: 1262 376<579 676>
VStem: 416 854<1262 1638>
Fore
676 1638 m 1
 893 1638 l 1
 579 1262 l 1
 416 1262 l 1
 676 1638 l 1
1039 1638 m 1
 1270 1638 l 1
 932 1262 l 1
 758 1262 l 1
 1039 1638 l 1
EndSplineSet
EndChar
StartChar: Omega
Encoding: 937 937 374
Width: 1575
Flags: W
HStem: 0 256<100 391 1272 1518> 1241 268<819.174 1182.18>
VStem: 229 307<459.278 920.295> 1320 314<702.31 1102.34>
Fore
1004 1241 m 0
 704 1241 536 971 536 677 c 0
 536 445 659 334 715 291 c 1
 664 0 l 1
 55 0 l 1
 100 256 l 1
 391 256 l 1
 290 373 229 510 229 679 c 0
 229 1107 553 1509 1038 1509 c 0
 1514.8 1509 1634 1208.76 1634 976 c 0
 1634 688 1500 443 1272 256 c 1
 1563 256 l 1
 1518 0 l 1
 909 0 l 1
 960 291 l 1
 1286 490 1320 819 1320 922 c 0
 1320 1064.17 1257.05 1241 1004 1241 c 0
EndSplineSet
EndChar
StartChar: pi
Encoding: 960 960 375
Width: 1319
Flags: W
HStem: 0 21G<174 468.005 698 992.074> 868 224<352.08 454 454 479 765 1003 1292 1468>
Fore
95 737 m 1
 177 990 294 1092 592 1092 c 2
 1547 1092 l 1
 1468 868 l 1
 1292 868 l 1
 985 0 l 1
 698 0 l 1
 1003 868 l 1
 765 868 l 1
 461 0 l 1
 174 0 l 1
 479 868 l 1
 454 868 l 2
 366 868 330 807 308 738 c 1
 95 737 l 1
EndSplineSet
EndChar
StartChar: Euro
Encoding: 8364 8364 376
Width: 1425
Flags: W
HStem: -29 262<787.358 1145.41> 477 195<167 262 657 956> 821 195<228 292 752 1171> 1257 263<950.018 1338.86>
Fore
657 477 m 1
 693 326 785 233 965 233 c 0
 1122 233 1254 308 1357 391 c 1
 1302 82 l 1
 1187 21 1042 -29 869 -29 c 0
 510 -29 304 158 262 477 c 1
 45 477 l 1
 167 672 l 1
 265 672 l 1
 267 687 276 763 292 821 c 1
 106 821 l 1
 228 1016 l 1
 357 1016 l 1
 496 1299 747 1520 1142 1520 c 0
 1265 1520 1405 1494 1536 1409 c 1
 1482 1100 l 1
 1394 1203 1280 1257 1146 1257 c 0
 952 1257 827 1150 752 1016 c 1
 1291 1016 l 1
 1171 821 l 1
 678 821 l 1
 672 800 653 709 650 672 c 1
 1079 672 l 1
 956 477 l 1
 657 477 l 1
EndSplineSet
EndChar
StartChar: trademark
Encoding: 8482 8482 377
Width: 2048
Flags: W
HStem: 1350 143<558 705 877 1051>
Fore
1416 1493 m 1
 1495 1266 l 1
 1654 1493 l 1
 1881 1493 l 1
 1779 915 l 1
 1609 915 l 1
 1686 1352 l 1
 1504 1096 l 1
 1428 1096 l 1
 1336 1352 l 1
 1259 915 l 1
 1087 915 l 1
 1189 1493 l 1
 1416 1493 l 1
1076 1493 m 1
 1051 1350 l 1
 877 1350 l 1
 800 915 l 1
 628 915 l 1
 705 1350 l 1
 533 1350 l 1
 558 1493 l 1
 1076 1493 l 1
EndSplineSet
EndChar
StartChar: partialdiff
Encoding: 8706 8706 378
Width: 1114
Flags: W
HStem: -25 76<397.64 592.636> 770 90<584.519 776.073> 1249 113<750 981.805>
VStem: 120 254<132.657 428.101> 999 207<895.405 1169.5>
Fore
841 1362 m 0
 1078 1362 1206 1198 1206 938 c 0
 1206 509 917 -25 471 -25 c 0
 241 -25 120 124 120 304 c 0
 120 568 333 860 625 860 c 0
 739 860 835 828 887 684 c 1
 916 763 999 999 999 1114 c 0
 999 1182 976 1249 931 1249 c 0
 861 1249 723 1063 586 1063 c 0
 525 1063 493 1106 493 1155 c 0
 493 1266 659 1362 841 1362 c 0
488 51 m 0
 673 51 801 449 801 622 c 0
 801 711 769 770 693 770 c 0
 501 770 374 365 374 195 c 0
 374 97 412 51 488 51 c 0
EndSplineSet
EndChar
StartChar: uni2206
Encoding: 8710 8710 379
Width: 1427
Flags: W
HStem: 0 256<432 1085> 1453 20G<811.826 1128.11>
Fore
909 1110 m 1
 432 256 l 1
 1085 256 l 1
 909 1110 l 1
823 1473 m 1
 1124 1473 l 1
 1427 0 l 1
 0 0 l 1
 823 1473 l 1
EndSplineSet
EndChar
StartChar: product
Encoding: 8719 8719 380
Width: 1612
Flags: W
HStem: 1184 289<703 1323>
Fore
410 1473 m 1
 1718 1473 l 1
 1389 -393 l 1
 1045 -393 l 1
 1323 1184 l 1
 703 1184 l 1
 425 -393 l 1
 81 -393 l 1
 410 1473 l 1
EndSplineSet
EndChar
StartChar: summation
Encoding: 8721 8721 381
Width: 1470
Flags: W
HStem: -393 266<472 1358> 1208 265<709 1587>
Fore
326 1473 m 1
 1634 1473 l 1
 1587 1208 l 1
 709 1208 l 1
 1215 563 l 1
 472 -127 l 1
 1405 -127 l 1
 1358 -393 l 1
 -28 -393 l 1
 2 -221 l 1
 836 551 l 1
 285 1241 l 1
 326 1473 l 1
EndSplineSet
EndChar
StartChar: minus
Encoding: 8722 8722 382
Width: 1716
Flags: W
HStem: 524 236<351 1591>
Fore
351 760 m 1
 1633 760 l 1
 1591 524 l 1
 309 524 l 1
 351 760 l 1
EndSplineSet
EndChar
StartChar: uni2215
Encoding: 8725 8725 383
Width: 342
Flags: W
Fore
-189 -29 m 1
 -413 -29 l 1
 794 1520 l 1
 1018 1520 l 1
 -189 -29 l 1
EndSplineSet
EndChar
StartChar: uni2219
Encoding: 8729 8729 384
Width: 778
Flags: W
HStem: 518 387<369 660>
VStem: 300 429<518 905>
Fore
369 905 m 1
 729 905 l 1
 660 518 l 1
 300 518 l 1
 369 905 l 1
EndSplineSet
EndChar
StartChar: radical
Encoding: 8730 8730 385
Width: 1366
Flags: W
HStem: 1565 149<1550 1646>
Fore
1457 1714 m 1
 1672 1714 l 1
 1646 1565 l 1
 1550 1565 l 1
 677 -41 l 1
 558 -41 l 1
 400 805 l 1
 245 750 l 1
 231 879 l 1
 613 1006 l 1
 724 371 l 1
 1457 1714 l 1
EndSplineSet
EndChar
StartChar: infinity
Encoding: 8734 8734 386
Width: 1706
Flags: W
HStem: 186 248<458.436 697.245> 186 240<1127.18 1387.8> 784 248<1222.15 1463.9> 791 239<529.95 798.834>
VStem: 293 127<473.619 704.207> 1503 127<516.003 743.275>
Fore
1503 641 m 0x6c
 1503 722 1445 784 1352 784 c 0
 1237 784 1147 688 1055 561 c 1
 1091 483 1156 426 1265 426 c 0
 1411 426 1503 530 1503 641 c 0x6c
420 575 m 0
 420 505 468 434 571 434 c 0
 682 434 776 531 868 657 c 1
 814 772 726 791 657 791 c 0x9c
 507 791 420 684 420 575 c 0
1231 186 m 0x6c
 1093 186 1019 276 934 442 c 1
 832 296 713 186 565 186 c 0
 402 186 293 327 293 510 c 0
 293 726 432 1030 692 1030 c 0x9c
 827 1030 904 938 988 774 c 1
 1101 932 1220 1032 1358 1032 c 0
 1521 1032 1630 893 1630 707 c 0
 1630 500 1495 186 1231 186 c 0x6c
EndSplineSet
EndChar
StartChar: integral
Encoding: 8747 8747 387
Width: 1249
Flags: W
HStem: -373 125<224 368.258> 1223 21G<1226 1321.5> 1434 122<1094.3 1333>
Fore
302 -141 m 0
 302 -183 291 -197 291 -221 c 0
 291 -241 299 -248 318 -248 c 0
 425 -248 546 361 586 573 c 0
 715 1190 893 1556 1235 1556 c 0
 1431 1556 1444 1431 1444 1400 c 0
 1444 1303 1374 1223 1269 1223 c 0
 1183 1223 1162 1276 1162 1329 c 0
 1162 1365 1171 1393 1171 1411 c 0
 1171 1426 1164 1434 1141 1434 c 0
 1074 1434 995 1206 902 767 c 2
 883 676 l 2
 825 398 744 -85 466 -290 c 0
 391 -345 311 -373 224 -373 c 0
 221 -373 l 0
 55 -373 16 -280 16 -218 c 0
 16 -115 88 -39 198 -39 c 0
 281 -39 302 -92 302 -141 c 0
EndSplineSet
EndChar
StartChar: approxequal
Encoding: 8776 8776 388
Width: 1716
Flags: W
HStem: 248 233<1033.19 1378.13> 385 233<490.905 836.835> 666 233<1106.65 1451.87> 803 231<561.836 911.143>
Fore
1686 1059 m 1x20
 1643 815 l 1
 1532 741 1398 666 1235 666 c 0x20
 1038 666 901 803 717 803 c 0
 640 803 523 785 330 643 c 1
 373 887 l 1
 482 958 617 1034 780 1034 c 0x10
 982 1034 1117 899 1300 899 c 0
 1425 899 1545 958 1686 1059 c 1x20
1612 641 m 1
 1569 397 l 1
 1458 323 1325 248 1162 248 c 0x80
 964 248 828 385 643 385 c 0
 489 385 353 297 257 225 c 1
 300 469 l 1
 411 542 544 618 707 618 c 0x40
 903 618 1047 481 1226 481 c 0x80
 1351 481 1471 540 1612 641 c 1
EndSplineSet
EndChar
StartChar: notequal
Encoding: 8800 8800 389
Width: 1716
Flags: W
HStem: -10 21G<435 475.066> 295 237<311 505 1001 1551> 752 235<391 950 1438 1632>
Fore
391 987 m 1
 1182 987 l 1
 1488 1292 l 1
 1615 1167 l 1
 1438 987 l 1
 1673 987 l 1
 1632 752 l 1
 1214 752 l 1
 1001 532 l 1
 1593 532 l 1
 1551 295 l 1
 761 295 l 1
 455 -10 l 1
 328 117 l 1
 505 295 l 1
 269 295 l 1
 311 532 l 1
 735 532 l 1
 950 752 l 1
 350 752 l 1
 391 987 l 1
EndSplineSet
EndChar
StartChar: lessequal
Encoding: 8804 8804 390
Width: 1716
Flags: W
HStem: 0 238<259 1499>
Fore
1541 238 m 1
 1499 0 l 1
 217 0 l 1
 259 238 l 1
 1541 238 l 1
1666 948 m 1
 732 739 l 1
 1592 530 l 1
 1550 287 l 1
 327 623 l 1
 368 858 l 1
 1709 1192 l 1
 1666 948 l 1
EndSplineSet
EndChar
StartChar: greaterequal
Encoding: 8805 8805 391
Width: 1716
Flags: W
HStem: 0 238<259 1499>
Fore
259 238 m 1
 1541 238 l 1
 1499 0 l 1
 217 0 l 1
 259 238 l 1
384 948 m 1
 427 1192 l 1
 1650 858 l 1
 1609 623 l 1
 268 287 l 1
 310 530 l 1
 1244 739 l 1
 384 948 l 1
EndSplineSet
EndChar
StartChar: lozenge
Encoding: 9674 9674 392
Width: 1012
Flags: W
VStem: 110 1000<592 592>
Fore
754 1409 m 1
 225 592 l 1
 465 -233 l 1
 995 592 l 1
 754 1409 l 1
797 1653 m 1
 1110 592 l 1
 422 -477 l 1
 110 592 l 1
 797 1653 l 1
EndSplineSet
EndChar
StartChar: uniFB02
Encoding: 64258 64258 393
Width: 1518
Flags: W
HStem: 0 21G<217 578.518 985 1349.52> 864 256<236 369 772 1008> 1321 235<820.225 1218>
Fore
909 1556 m 2
 1620 1556 l 1
 1346 0 l 1
 985 0 l 1
 1218 1321 l 1
 944 1321 l 2
 837 1321 801 1282 786 1198 c 2
 772 1120 l 1
 1053 1120 l 1
 1008 864 l 1
 727 864 l 1
 575 0 l 1
 217 0 l 1
 369 864 l 1
 191 864 l 1
 236 1120 l 1
 414 1120 l 1
 428 1198 l 2
 472 1442 624 1556 909 1556 c 2
EndSplineSet
LCarets2: 1 0 
Ligature2: "'liga' Standard Ligatures in Latin lookup 2" f l
EndChar
StartChar: uniFB01
Encoding: 64257 64257 394
Width: 1518
Flags: W
HStem: 0 21G<219 583.518 985 1349.52> 864 256<240 371 777 1137> 1264 292<1259 1569> 1321 235<822.225 1144>
Fore
1259 1556 m 1xe0
 1620 1556 l 1xd0
 1569 1264 l 1
 1208 1264 l 1
 1259 1556 l 1xe0
1185 1556 m 1
 1144 1321 l 1
 946 1321 l 2
 847 1321 807 1288 791 1198 c 2
 777 1120 l 1
 1543 1120 l 1
 1346 0 l 1
 985 0 l 1
 1137 864 l 1
 732 864 l 1
 580 0 l 1
 219 0 l 1
 371 864 l 1
 195 864 l 1
 240 1120 l 1
 416 1120 l 1
 430 1198 l 2
 474 1442 626 1556 911 1556 c 2
 1185 1556 l 1
EndSplineSet
LCarets2: 1 0 
Ligature2: "'liga' Standard Ligatures in Latin lookup 2" f i
EndChar
